<svg xmlns="http://www.w3.org/2000/svg" xmlns:xlink="http://www.w3.org/1999/xlink" width="123" zoomAndPan="magnify" viewBox="0 0 92.25 34.499999" height="46" preserveAspectRatio="xMidYMid meet" version="1.0"><defs><g/><clipPath id="17f33a7261"><path d="M 34.851562 14 L 74 14 L 74 20.34375 L 34.851562 20.34375 Z M 34.851562 14 " clip-rule="nonzero"/></clipPath><clipPath id="4d8353306d"><path d="M 2 1.761719 L 22 1.761719 L 22 30 L 2 30 Z M 2 1.761719 " clip-rule="nonzero"/></clipPath><clipPath id="d4808ccabb"><path d="M 71 5 L 77 5 L 77 12 L 71 12 Z M 71 5 " clip-rule="nonzero"/></clipPath><clipPath id="4bcde9a1b7"><path d="M 75.628906 0.558594 L 81.773438 5.886719 L 76.445312 12.03125 L 70.300781 6.703125 Z M 75.628906 0.558594 " clip-rule="nonzero"/></clipPath><clipPath id="7e7adf5e26"><path d="M 75.628906 0.558594 L 81.773438 5.886719 L 76.445312 12.03125 L 70.300781 6.703125 Z M 75.628906 0.558594 " clip-rule="nonzero"/></clipPath><clipPath id="64736679c9"><path d="M 75.628906 0.558594 L 81.773438 5.886719 L 76.445312 12.03125 L 70.300781 6.703125 Z M 75.628906 0.558594 " clip-rule="nonzero"/></clipPath><clipPath id="c826b2087d"><path d="M 75 2 L 79 2 L 79 5 L 75 5 Z M 75 2 " clip-rule="nonzero"/></clipPath><clipPath id="38db084d17"><path d="M 75.628906 0.558594 L 81.773438 5.886719 L 76.445312 12.03125 L 70.300781 6.703125 Z M 75.628906 0.558594 " clip-rule="nonzero"/></clipPath><clipPath id="48bf3a7c80"><path d="M 75.628906 0.558594 L 81.773438 5.886719 L 76.445312 12.03125 L 70.300781 6.703125 Z M 75.628906 0.558594 " clip-rule="nonzero"/></clipPath><clipPath id="77f2c0cf1e"><path d="M 75.628906 0.558594 L 81.773438 5.886719 L 76.445312 12.03125 L 70.300781 6.703125 Z M 75.628906 0.558594 " clip-rule="nonzero"/></clipPath><clipPath id="805d413ac1"><path d="M 77 4 L 81 4 L 81 7 L 77 7 Z M 77 4 " clip-rule="nonzero"/></clipPath><clipPath id="41a73be8fb"><path d="M 75.628906 0.558594 L 81.773438 5.886719 L 76.445312 12.03125 L 70.300781 6.703125 Z M 75.628906 0.558594 " clip-rule="nonzero"/></clipPath><clipPath id="daa85a56c8"><path d="M 75.628906 0.558594 L 81.773438 5.886719 L 76.445312 12.03125 L 70.300781 6.703125 Z M 75.628906 0.558594 " clip-rule="nonzero"/></clipPath><clipPath id="b7a1510279"><path d="M 75.628906 0.558594 L 81.773438 5.886719 L 76.445312 12.03125 L 70.300781 6.703125 Z M 75.628906 0.558594 " clip-rule="nonzero"/></clipPath><clipPath id="48f370191d"><path d="M 72 2 L 75 2 L 75 6 L 72 6 Z M 72 2 " clip-rule="nonzero"/></clipPath><clipPath id="4f2adb2a7c"><path d="M 75.628906 0.558594 L 81.773438 5.886719 L 76.445312 12.03125 L 70.300781 6.703125 Z M 75.628906 0.558594 " clip-rule="nonzero"/></clipPath><clipPath id="5c5c44d043"><path d="M 75.628906 0.558594 L 81.773438 5.886719 L 76.445312 12.03125 L 70.300781 6.703125 Z M 75.628906 0.558594 " clip-rule="nonzero"/></clipPath><clipPath id="2807bef07c"><path d="M 75.628906 0.558594 L 81.773438 5.886719 L 76.445312 12.03125 L 70.300781 6.703125 Z M 75.628906 0.558594 " clip-rule="nonzero"/></clipPath><clipPath id="16deb4be47"><path d="M 77 7 L 80 7 L 80 10 L 77 10 Z M 77 7 " clip-rule="nonzero"/></clipPath><clipPath id="832eb2371c"><path d="M 75.628906 0.558594 L 81.773438 5.886719 L 76.445312 12.03125 L 70.300781 6.703125 Z M 75.628906 0.558594 " clip-rule="nonzero"/></clipPath><clipPath id="d7e0d09373"><path d="M 75.628906 0.558594 L 81.773438 5.886719 L 76.445312 12.03125 L 70.300781 6.703125 Z M 75.628906 0.558594 " clip-rule="nonzero"/></clipPath><clipPath id="595d5c715d"><path d="M 75.628906 0.558594 L 81.773438 5.886719 L 76.445312 12.03125 L 70.300781 6.703125 Z M 75.628906 0.558594 " clip-rule="nonzero"/></clipPath><clipPath id="82d7463a45"><path d="M 34 5 L 40 5 L 40 11 L 34 11 Z M 34 5 " clip-rule="nonzero"/></clipPath><clipPath id="65575d5b52"><path d="M 29.167969 5.652344 L 35.476562 0.523438 L 40.605469 6.832031 L 34.296875 11.960938 Z M 29.167969 5.652344 " clip-rule="nonzero"/></clipPath><clipPath id="9282da3b75"><path d="M 29.167969 5.652344 L 35.476562 0.523438 L 40.605469 6.832031 L 34.296875 11.960938 Z M 29.167969 5.652344 " clip-rule="nonzero"/></clipPath><clipPath id="3c281c34ef"><path d="M 29.167969 5.652344 L 35.476562 0.523438 L 40.605469 6.832031 L 34.296875 11.960938 Z M 29.167969 5.652344 " clip-rule="nonzero"/></clipPath><clipPath id="c692147649"><path d="M 31 3 L 34 3 L 34 7 L 31 7 Z M 31 3 " clip-rule="nonzero"/></clipPath><clipPath id="5d5b7356e5"><path d="M 29.167969 5.652344 L 35.476562 0.523438 L 40.605469 6.832031 L 34.296875 11.960938 Z M 29.167969 5.652344 " clip-rule="nonzero"/></clipPath><clipPath id="d1f7e4ca5d"><path d="M 29.167969 5.652344 L 35.476562 0.523438 L 40.605469 6.832031 L 34.296875 11.960938 Z M 29.167969 5.652344 " clip-rule="nonzero"/></clipPath><clipPath id="27a24fc9a9"><path d="M 29.167969 5.652344 L 35.476562 0.523438 L 40.605469 6.832031 L 34.296875 11.960938 Z M 29.167969 5.652344 " clip-rule="nonzero"/></clipPath><clipPath id="089e840cb6"><path d="M 33 1 L 36 1 L 36 5 L 33 5 Z M 33 1 " clip-rule="nonzero"/></clipPath><clipPath id="affd8e7e40"><path d="M 29.167969 5.652344 L 35.476562 0.523438 L 40.605469 6.832031 L 34.296875 11.960938 Z M 29.167969 5.652344 " clip-rule="nonzero"/></clipPath><clipPath id="fc8657f6da"><path d="M 29.167969 5.652344 L 35.476562 0.523438 L 40.605469 6.832031 L 34.296875 11.960938 Z M 29.167969 5.652344 " clip-rule="nonzero"/></clipPath><clipPath id="a214cb78b0"><path d="M 29.167969 5.652344 L 35.476562 0.523438 L 40.605469 6.832031 L 34.296875 11.960938 Z M 29.167969 5.652344 " clip-rule="nonzero"/></clipPath><clipPath id="cad21bb506"><path d="M 31 6 L 34 6 L 34 10 L 31 10 Z M 31 6 " clip-rule="nonzero"/></clipPath><clipPath id="07707feb67"><path d="M 29.167969 5.652344 L 35.476562 0.523438 L 40.605469 6.832031 L 34.296875 11.960938 Z M 29.167969 5.652344 " clip-rule="nonzero"/></clipPath><clipPath id="6d25a72242"><path d="M 29.167969 5.652344 L 35.476562 0.523438 L 40.605469 6.832031 L 34.296875 11.960938 Z M 29.167969 5.652344 " clip-rule="nonzero"/></clipPath><clipPath id="0215bc94f6"><path d="M 29.167969 5.652344 L 35.476562 0.523438 L 40.605469 6.832031 L 34.296875 11.960938 Z M 29.167969 5.652344 " clip-rule="nonzero"/></clipPath><clipPath id="a7a468ca88"><path d="M 36 2 L 39 2 L 39 6 L 36 6 Z M 36 2 " clip-rule="nonzero"/></clipPath><clipPath id="c6ae82664b"><path d="M 29.167969 5.652344 L 35.476562 0.523438 L 40.605469 6.832031 L 34.296875 11.960938 Z M 29.167969 5.652344 " clip-rule="nonzero"/></clipPath><clipPath id="73e85e246d"><path d="M 29.167969 5.652344 L 35.476562 0.523438 L 40.605469 6.832031 L 34.296875 11.960938 Z M 29.167969 5.652344 " clip-rule="nonzero"/></clipPath><clipPath id="64146d98f6"><path d="M 29.167969 5.652344 L 35.476562 0.523438 L 40.605469 6.832031 L 34.296875 11.960938 Z M 29.167969 5.652344 " clip-rule="nonzero"/></clipPath></defs><g clip-path="url(#17f33a7261)"><path fill="#000000" d="M 6.996094 14.601562 L 7.15625 18.628906 L 16.648438 18.308594 L 7.714844 38.4375 L 7.714844 41.945312 L 21.113281 41.625 L 21.035156 37.957031 L 12.417969 37.957031 L 20.792969 18.03125 L 20.554688 14.441406 Z M 22.890625 41.464844 L 26.800781 41.464844 L 26.917969 22.652344 L 23.011719 22.652344 Z M 22.691406 16.675781 C 22.691406 17.871094 23.648438 18.828125 24.84375 18.828125 C 26.042969 18.828125 27 17.871094 27 16.675781 C 27 15.480469 26.042969 14.523438 24.84375 14.523438 C 23.648438 14.523438 22.691406 15.480469 22.691406 16.675781 Z M 41.972656 21.9375 L 38.0625 21.9375 L 38.222656 23.09375 C 37.503906 22.851562 36.746094 22.734375 35.949219 22.734375 C 31.324219 22.734375 28.613281 27.039062 28.613281 32.21875 C 28.613281 38.355469 33.039062 43.378906 38.902344 40.191406 C 39.21875 43.257812 38.0625 45.210938 36.867188 45.332031 C 36.148438 45.410156 35.03125 45.253906 35.152344 43.21875 L 31.402344 42.902344 C 31.242188 47.523438 32.800781 48.640625 36.507812 48.878906 C 41.214844 49.160156 43.367188 44.8125 42.890625 35.40625 C 42.570312 29.148438 42.171875 22.894531 41.972656 21.9375 Z M 36.230469 26.398438 C 38.222656 26.398438 38.742188 27.996094 38.742188 29.988281 C 39.179688 36.5625 38.660156 37.957031 36.230469 37.957031 C 31.363281 37.957031 31.164062 26.398438 36.230469 26.398438 Z M 57.941406 21.9375 L 54.03125 21.9375 L 54.191406 23.09375 C 53.472656 22.851562 52.714844 22.734375 51.917969 22.734375 C 47.292969 22.734375 44.578125 27.039062 44.578125 32.21875 C 44.578125 38.355469 49.007812 43.378906 54.871094 40.191406 C 55.1875 43.257812 54.03125 45.210938 52.835938 45.332031 C 52.117188 45.410156 51 45.253906 51.121094 43.21875 L 47.371094 42.902344 C 47.210938 47.523438 48.765625 48.640625 52.476562 48.878906 C 57.183594 49.160156 59.335938 44.8125 58.859375 35.40625 C 58.539062 29.148438 58.140625 22.894531 57.941406 21.9375 Z M 52.199219 26.398438 C 54.191406 26.398438 54.710938 27.996094 54.710938 29.988281 C 55.148438 36.5625 54.628906 37.957031 52.199219 37.957031 C 47.332031 37.957031 47.132812 26.398438 52.199219 26.398438 Z M 66.808594 35.167969 C 63.101562 34.808594 64.777344 26.121094 65.652344 22.972656 L 61.664062 22.734375 C 59.273438 30.066406 60.347656 42.261719 68.921875 37.402344 C 69.121094 41.945312 67.488281 44.058594 66.492188 44.136719 C 64.933594 44.214844 64.457031 43.257812 64.617188 41.707031 L 60.789062 41.707031 C 60.347656 45.890625 62.582031 47.644531 66.210938 47.683594 C 75.984375 47.761719 73.269531 24.246094 73.03125 22.652344 L 68.882812 22.734375 C 69.523438 28.75 70.082031 35.527344 66.808594 35.167969 Z M 66.808594 35.167969 " fill-opacity="1" fill-rule="nonzero"/></g><path fill="#ff782c" d="M 38.585938 9.730469 L 37.367188 9.769531 L 37.417969 18.082031 L 38.648438 18.175781 L 38.609375 15.570312 C 38.871094 15.699219 39.167969 15.777344 39.492188 15.804688 C 40.980469 15.894531 41.890625 14.546875 41.902344 12.875 C 41.929688 10.855469 40.347656 8.914062 38.597656 10.234375 Z M 39.414062 14.597656 C 38.921875 14.574219 38.6875 14.25 38.625 13.796875 L 38.648438 11.566406 C 38.726562 11.089844 38.921875 10.816406 39.453125 10.855469 C 41.046875 10.960938 41.046875 14.703125 39.414062 14.597656 Z M 45.207031 9.792969 C 43.707031 9.792969 42.824219 11.191406 42.824219 12.875 C 42.824219 14.5625 43.707031 15.90625 45.207031 15.90625 C 46.402344 15.90625 47.242188 15.375 47.386719 13.914062 L 46.089844 13.914062 C 46.039062 14.429688 45.855469 14.742188 45.300781 14.742188 C 44.601562 14.742188 44.210938 14.03125 44.105469 13.214844 L 47.414062 13.214844 L 47.414062 12.152344 C 47.414062 10.726562 46.492188 9.792969 45.207031 9.792969 Z M 45.300781 10.984375 C 45.949219 10.984375 46.117188 11.503906 46.117188 12.152344 L 44.160156 12.152344 C 44.316406 11.503906 44.691406 10.984375 45.300781 10.984375 Z M 48.574219 10.570312 L 49.105469 10.570312 C 48.921875 13.121094 48.445312 16.101562 50.492188 16.039062 C 51.929688 15.984375 52.113281 14.507812 51.902344 13.574219 L 50.816406 13.628906 C 50.917969 14.457031 50.816406 14.960938 50.464844 14.882812 C 49.816406 14.742188 50.179688 12.695312 50.402344 10.570312 L 51.734375 10.597656 L 51.734375 9.558594 L 50.476562 9.558594 C 50.503906 9.171875 50.542969 8.769531 50.582031 8.394531 L 49.273438 8.601562 C 49.234375 8.898438 49.207031 9.222656 49.183594 9.558594 L 48.652344 9.558594 Z M 55.894531 11.90625 L 56.996094 12.152344 C 57.382812 10.335938 56.359375 9.558594 55.140625 9.558594 C 53.960938 9.558594 53.300781 10.390625 53.183594 11.269531 C 53.054688 12.34375 53.859375 12.8125 55.425781 13.640625 C 55.996094 14.03125 55.722656 15.039062 55.039062 14.976562 C 54.195312 14.898438 54.335938 13.953125 54.429688 13.445312 L 53.195312 13.445312 C 52.988281 15.273438 53.613281 16.0625 54.984375 16.0625 C 56.230469 16.0625 56.839844 15.273438 56.929688 14.277344 C 57.125 12.292969 54.195312 12.382812 54.480469 11.269531 C 54.753906 10.195312 56.230469 10.726562 55.894531 11.90625 Z M 59.582031 11.710938 C 59.675781 11.285156 59.894531 10.984375 60.375 10.984375 C 61.449219 10.984375 61.101562 11.605469 61.113281 15.90625 L 62.488281 15.90625 C 62.628906 11.074219 62.617188 9.792969 60.464844 9.792969 C 60.152344 9.792969 59.855469 9.859375 59.582031 9.960938 L 59.660156 7.359375 L 58.40625 7.359375 L 58.25 15.90625 L 59.507812 15.882812 Z M 66.195312 15.90625 C 69.421875 15.90625 69.589844 9.792969 66.195312 9.792969 C 62.941406 9.792969 62.824219 15.90625 66.195312 15.90625 Z M 66.285156 10.984375 C 67.75 10.984375 67.816406 14.742188 66.285156 14.742188 C 64.574219 14.742188 64.496094 10.984375 66.285156 10.984375 Z M 70.964844 9.730469 L 69.746094 9.769531 L 69.800781 18.082031 L 71.03125 18.175781 L 70.992188 15.570312 C 71.25 15.699219 71.546875 15.777344 71.871094 15.804688 C 73.363281 15.894531 74.269531 14.546875 74.285156 12.875 C 74.308594 10.855469 72.726562 8.914062 70.976562 10.234375 Z M 71.796875 14.597656 C 71.300781 14.574219 71.070312 14.25 71.003906 13.796875 L 71.03125 11.566406 C 71.109375 11.089844 71.300781 10.816406 71.832031 10.855469 C 73.429688 10.960938 73.429688 14.703125 71.796875 14.597656 Z M 71.796875 14.597656 " fill-opacity="1" fill-rule="nonzero"/><path fill="#ff782c" d="M 13.222656 23.789062 C 13.203125 24.730469 13.699219 25.613281 14.519531 26.0625 C 15.410156 26.550781 16.5 26.429688 17.265625 25.757812 C 17.957031 25.15625 18.261719 24.214844 18.078125 23.320312 C 16.824219 23.597656 15.203125 23.75 13.222656 23.789062 Z M 13.222656 23.789062 " fill-opacity="1" fill-rule="evenodd"/><path fill="#ff782c" d="M 8.179688 17.679688 C 9.726562 19.023438 10.667969 20.957031 10.789062 23.035156 C 10.800781 23.25 10.808594 23.464844 10.800781 23.679688 L 10.796875 23.878906 L 10.648438 24.011719 C 10.5625 24.089844 10.484375 24.175781 10.410156 24.261719 C 9.976562 24.773438 9.742188 25.421875 9.742188 26.097656 C 9.742188 26.371094 9.785156 26.644531 9.859375 26.90625 L 9.917969 27.097656 L 9.820312 27.273438 C 9.675781 27.535156 9.511719 27.792969 9.332031 28.035156 L 9.160156 28.273438 L 8.878906 28.214844 C 8.125 28.050781 7.375 27.824219 6.660156 27.523438 C 5.234375 26.917969 3.863281 25.964844 3.109375 24.542969 L 3.046875 24.421875 L 3.058594 24.285156 C 3.152344 23.007812 3.304688 21.730469 3.480469 20.464844 L 3.589844 19.679688 L 4.203125 20.15625 C 4.4375 20.335938 4.707031 20.457031 4.996094 20.515625 C 5.371094 20.585938 5.726562 20.550781 6.066406 20.375 C 6.710938 20.042969 7.078125 19.277344 7.28125 18.601562 C 7.347656 18.382812 7.402344 18.160156 7.449219 17.941406 L 7.605469 17.175781 Z M 8.179688 17.679688 " fill-opacity="1" fill-rule="evenodd"/><path fill="#ff782c" d="M 14.628906 5.085938 C 16.027344 5.085938 17.160156 6.246094 17.160156 7.679688 C 17.160156 9.113281 16.027344 10.273438 14.628906 10.273438 C 13.234375 10.273438 12.101562 9.113281 12.101562 7.679688 C 12.101562 6.246094 13.234375 5.085938 14.628906 5.085938 Z M 14.628906 5.085938 " fill-opacity="1" fill-rule="evenodd"/><g clip-path="url(#4d8353306d)"><path fill="#000000" d="M 12.113281 1.875 C 13.679688 1.875 15.261719 2.140625 16.476562 2.671875 C 18.183594 1.570312 19.273438 1.46875 19.757812 2.363281 C 20.144531 3.078125 19.871094 4.535156 18.945312 6.742188 C 19.582031 9.621094 20.113281 12.230469 20.550781 14.5625 C 20.996094 16.960938 21.34375 19.105469 21.589844 20.984375 L 21.589844 20.988281 C 21.625 21.265625 21.648438 21.539062 21.660156 21.804688 C 21.753906 23.898438 21.113281 25.589844 19.835938 26.847656 C 18.59375 28.074219 16.765625 28.863281 14.445312 29.183594 C 13.957031 29.25 13.441406 29.296875 12.90625 29.320312 C 10.632812 29.429688 8.296875 29.074219 6.367188 28.253906 C 4.566406 27.488281 3.097656 26.3125 2.335938 24.730469 L 2.261719 24.574219 L 2.273438 24.40625 C 2.417969 22.382812 2.742188 19.882812 3.25 16.902344 C 3.746094 13.996094 4.421875 10.609375 5.277344 6.742188 C 4.351562 4.535156 4.082031 3.074219 4.460938 2.363281 C 4.945312 1.46875 6.042969 1.570312 7.746094 2.671875 C 8.960938 2.140625 10.542969 1.875 12.113281 1.875 Z M 12.164062 28.085938 C 12.394531 28.085938 12.625 28.078125 12.855469 28.066406 C 13.351562 28.042969 13.832031 28 14.289062 27.9375 C 16.34375 27.65625 17.941406 26.980469 18.992188 25.945312 C 19.832031 25.117188 20.328125 24.039062 20.429688 22.730469 C 19.988281 23.027344 19.421875 23.277344 18.730469 23.476562 C 17.210938 23.910156 15.023438 24.125 12.167969 24.113281 C 11.695312 24.1875 11.289062 24.433594 10.996094 24.78125 C 10.699219 25.132812 10.515625 25.597656 10.515625 26.101562 C 10.515625 26.601562 10.695312 27.066406 10.996094 27.417969 C 11.285156 27.765625 11.691406 28.007812 12.164062 28.085938 Z M 16.253906 3.949219 C 15.179688 3.40625 13.652344 3.132812 12.113281 3.132812 C 10.570312 3.132812 9.042969 3.40625 7.96875 3.949219 L 7.652344 4.109375 C 6.570312 4.949219 6.328125 4.789062 6.929688 3.621094 C 6.070312 3.054688 5.605469 2.839844 5.535156 2.972656 C 5.335938 3.339844 5.652344 4.492188 6.480469 6.429688 L 6.558594 6.617188 L 6.515625 6.820312 C 5.652344 10.714844 4.96875 14.148438 4.460938 17.117188 C 4.351562 17.75 4.035156 18.726562 4.445312 19.300781 C 4.609375 19.519531 4.847656 19.683594 5.128906 19.738281 C 5.363281 19.78125 5.558594 19.75 5.71875 19.667969 C 6.085938 19.480469 6.355469 18.988281 6.542969 18.367188 C 6.765625 17.648438 6.863281 16.789062 6.890625 15.972656 C 6.917969 15.042969 6.835938 13.867188 6.664062 13.054688 C 6.488281 12.21875 8.222656 12.652344 8.113281 16.011719 C 8.082031 16.929688 7.964844 17.910156 7.710938 18.738281 C 7.425781 19.664062 6.96875 20.425781 6.269531 20.789062 C 5.875 20.992188 5.429688 21.0625 4.914062 20.96875 C 4.542969 20.902344 4.210938 20.746094 3.929688 20.527344 C 3.734375 21.941406 3.59375 23.207031 3.507812 24.320312 C 4.152344 25.535156 5.351562 26.460938 6.832031 27.089844 C 7.746094 27.476562 8.765625 27.753906 9.828125 27.910156 C 9.488281 27.386719 9.289062 26.761719 9.289062 26.09375 C 9.289062 25.28125 9.582031 24.53125 10.070312 23.957031 C 10.558594 23.378906 11.238281 22.976562 12.027344 22.859375 L 12.058594 22.855469 L 12.113281 22.855469 C 14.882812 22.867188 16.980469 22.671875 18.402344 22.261719 C 19.574219 21.925781 20.222656 21.480469 20.351562 20.921875 C 20.328125 20.78125 20.3125 20.636719 20.289062 20.488281 C 20 20.726562 19.648438 20.898438 19.257812 20.96875 C 18.746094 21.066406 18.292969 20.992188 17.902344 20.789062 C 17.203125 20.425781 16.742188 19.664062 16.460938 18.738281 C 16.210938 17.910156 16.09375 16.929688 16.058594 16.011719 C 16.058594 13.359375 17.578125 11.492188 17.398438 13.214844 C 17.308594 14.078125 17.265625 15.480469 17.28125 15.972656 C 17.308594 16.789062 17.410156 17.648438 17.628906 18.367188 C 17.816406 18.984375 18.085938 19.476562 18.453125 19.667969 C 18.613281 19.75 18.808594 19.777344 19.042969 19.738281 C 19.328125 19.683594 19.5625 19.519531 19.726562 19.300781 C 20.285156 18.527344 19.496094 15.601562 19.347656 14.800781 C 18.902344 12.394531 18.355469 9.734375 17.710938 6.820312 L 17.664062 6.617188 C 17.410156 5.304688 17.558594 4.945312 18.109375 5.539062 C 18.660156 4.132812 18.855469 3.28125 18.691406 2.972656 C 18.605469 2.820312 18 3.132812 16.863281 3.90625 L 16.570312 4.109375 Z M 16.253906 3.949219 " fill-opacity="1" fill-rule="nonzero"/></g><path fill="#000000" d="M 11.972656 10.195312 C 12.347656 10.195312 12.640625 10.171875 12.640625 10.554688 C 12.640625 10.800781 12.515625 11.015625 12.328125 11.140625 C 12.339844 11.152344 12.34375 11.167969 12.351562 11.1875 L 12.351562 11.191406 L 12.355469 11.195312 L 12.359375 11.203125 L 12.359375 11.207031 L 12.367188 11.222656 L 12.367188 11.238281 C 12.371094 11.25 12.371094 11.261719 12.371094 11.277344 C 12.40625 11.515625 12.515625 11.726562 12.675781 11.890625 C 12.835938 12.050781 13.050781 12.160156 13.28125 12.195312 C 13.515625 12.226562 13.75 12.171875 13.945312 12.058594 C 14.140625 11.941406 14.300781 11.765625 14.390625 11.542969 C 14.480469 11.328125 14.71875 11.226562 14.925781 11.320312 C 15.132812 11.410156 15.230469 11.65625 15.144531 11.867188 C 14.980469 12.265625 14.695312 12.582031 14.347656 12.785156 C 14.003906 12.984375 13.59375 13.078125 13.179688 13.019531 C 12.761719 12.964844 12.390625 12.769531 12.105469 12.484375 C 12.058594 12.4375 12.015625 12.382812 11.972656 12.328125 C 11.929688 12.382812 11.882812 12.433594 11.835938 12.484375 C 11.550781 12.769531 11.179688 12.964844 10.765625 13.019531 C 10.347656 13.078125 9.9375 12.988281 9.59375 12.785156 C 9.246094 12.582031 8.964844 12.265625 8.800781 11.867188 C 8.710938 11.65625 8.808594 11.410156 9.015625 11.320312 C 9.222656 11.226562 9.460938 11.328125 9.550781 11.542969 C 9.644531 11.765625 9.804688 11.941406 10 12.058594 C 10.195312 12.171875 10.425781 12.222656 10.660156 12.195312 C 10.894531 12.160156 11.105469 12.050781 11.265625 11.890625 C 11.421875 11.730469 11.53125 11.515625 11.570312 11.277344 C 11.574219 11.265625 11.574219 11.253906 11.574219 11.238281 L 11.574219 11.230469 L 11.578125 11.226562 L 11.578125 11.222656 L 11.585938 11.207031 L 11.585938 11.203125 L 11.589844 11.195312 L 11.597656 11.1875 C 11.601562 11.171875 11.605469 11.152344 11.617188 11.140625 C 11.425781 11.015625 11.304688 10.800781 11.304688 10.554688 C 11.292969 10.171875 11.601562 10.195312 11.972656 10.195312 Z M 11.972656 10.195312 " fill-opacity="1" fill-rule="evenodd"/><path fill="#000000" d="M 14.136719 7.070312 C 14.46875 7.070312 14.738281 7.347656 14.738281 7.6875 C 14.738281 8.027344 14.46875 8.304688 14.136719 8.304688 C 13.804688 8.304688 13.535156 8.027344 13.535156 7.6875 C 13.535156 7.347656 13.804688 7.070312 14.136719 7.070312 Z M 14.136719 7.070312 " fill-opacity="1" fill-rule="evenodd"/><path fill="#000000" d="M 9.796875 7.070312 C 10.128906 7.070312 10.398438 7.347656 10.398438 7.6875 C 10.398438 8.027344 10.128906 8.304688 9.796875 8.304688 C 9.464844 8.304688 9.195312 8.027344 9.195312 7.6875 C 9.195312 7.347656 9.464844 7.070312 9.796875 7.070312 Z M 9.796875 7.070312 " fill-opacity="1" fill-rule="evenodd"/><path fill="#000000" d="M 16.398438 9.277344 C 15.398438 9.660156 16.242188 8.460938 18.988281 7.839844 C 19.941406 7.625 20.910156 7.472656 21.882812 7.394531 C 22.050781 7.382812 22.195312 7.515625 22.207031 7.683594 C 22.21875 7.859375 22.09375 8.011719 21.925781 8.023438 C 20.976562 8.097656 20.039062 8.242188 19.121094 8.449219 C 18.199219 8.660156 17.289062 8.9375 16.398438 9.277344 Z M 16.398438 9.277344 " fill-opacity="1" fill-rule="nonzero"/><path fill="#000000" d="M 16.859375 10.433594 C 16.042969 10.539062 16.4375 9.527344 19.640625 9.703125 C 20.597656 9.757812 21.546875 9.894531 22.476562 10.121094 C 22.636719 10.164062 22.742188 10.332031 22.699219 10.5 C 22.660156 10.667969 22.496094 10.777344 22.332031 10.734375 C 21.433594 10.515625 20.523438 10.378906 19.605469 10.328125 C 18.691406 10.28125 17.773438 10.316406 16.859375 10.433594 Z M 16.859375 10.433594 " fill-opacity="1" fill-rule="nonzero"/><path fill="#000000" d="M 16.753906 11.335938 C 15.386719 10.894531 18.066406 11.019531 20.128906 11.902344 C 20.972656 12.261719 21.570312 12.589844 21.933594 12.886719 C 22.066406 12.996094 22.085938 13.191406 21.976562 13.324219 C 21.871094 13.460938 21.679688 13.480469 21.546875 13.375 C 21.234375 13.117188 20.683594 12.816406 19.894531 12.476562 C 19.089844 12.136719 18.042969 11.757812 16.753906 11.335938 Z M 16.753906 11.335938 " fill-opacity="1" fill-rule="nonzero"/><path fill="#000000" d="M 7.25 9.277344 C 8.25 9.660156 7.40625 8.460938 4.660156 7.839844 C 3.703125 7.625 2.738281 7.472656 1.765625 7.394531 C 1.597656 7.382812 1.449219 7.515625 1.4375 7.683594 C 1.429688 7.859375 1.554688 8.011719 1.722656 8.023438 C 2.671875 8.097656 3.609375 8.242188 4.527344 8.449219 C 5.449219 8.660156 6.359375 8.9375 7.25 9.277344 Z M 7.25 9.277344 " fill-opacity="1" fill-rule="nonzero"/><path fill="#000000" d="M 6.898438 10.417969 C 7.714844 10.523438 7.324219 9.515625 4.117188 9.6875 C 3.164062 9.742188 2.214844 9.878906 1.285156 10.109375 C 1.121094 10.148438 1.019531 10.316406 1.058594 10.488281 C 1.097656 10.65625 1.261719 10.761719 1.429688 10.71875 C 2.324219 10.5 3.238281 10.367188 4.152344 10.316406 C 5.0625 10.265625 5.984375 10.300781 6.898438 10.417969 Z M 6.898438 10.417969 " fill-opacity="1" fill-rule="nonzero"/><path fill="#000000" d="M 6.894531 11.335938 C 8.261719 10.894531 5.578125 11.019531 3.519531 11.902344 C 2.675781 12.261719 2.074219 12.589844 1.714844 12.886719 C 1.582031 12.996094 1.5625 13.191406 1.667969 13.324219 C 1.773438 13.460938 1.96875 13.480469 2.097656 13.375 C 2.414062 13.117188 2.964844 12.816406 3.753906 12.476562 C 4.558594 12.136719 5.605469 11.757812 6.894531 11.335938 Z M 6.894531 11.335938 " fill-opacity="1" fill-rule="nonzero"/><g clip-path="url(#d4808ccabb)"><g clip-path="url(#4bcde9a1b7)"><g clip-path="url(#7e7adf5e26)"><g clip-path="url(#64736679c9)"><path fill="#ff782c" d="M 76.179688 10.628906 C 75.101562 11.871094 75.195312 9.949219 74.0625 8.964844 C 72.925781 7.980469 70.996094 8.308594 72.070312 7.066406 C 72.574219 6.488281 73.574219 6.289062 74.355469 6.054688 C 75.246094 5.785156 75.925781 5.550781 76.527344 6.078125 C 77.136719 6.601562 77.003906 7.359375 76.863281 8.285156 C 76.738281 9.085938 76.679688 10.054688 76.179688 10.628906 Z M 76.179688 10.628906 " fill-opacity="1" fill-rule="evenodd"/></g></g></g></g><g clip-path="url(#c826b2087d)"><g clip-path="url(#38db084d17)"><g clip-path="url(#48bf3a7c80)"><g clip-path="url(#77f2c0cf1e)"><path fill="#ff782c" d="M 77.671875 4.269531 C 77.546875 4.414062 77.402344 4.539062 77.25 4.644531 C 77.09375 4.746094 76.9375 4.820312 76.777344 4.863281 C 76.621094 4.910156 76.472656 4.921875 76.332031 4.898438 C 76.195312 4.875 76.078125 4.824219 75.980469 4.738281 C 75.882812 4.65625 75.8125 4.546875 75.773438 4.410156 C 75.730469 4.277344 75.722656 4.128906 75.742188 3.964844 C 75.761719 3.800781 75.8125 3.636719 75.894531 3.46875 C 75.972656 3.300781 76.078125 3.144531 76.207031 2.996094 C 76.332031 2.851562 76.472656 2.726562 76.628906 2.621094 C 76.785156 2.519531 76.941406 2.445312 77.097656 2.402344 C 77.257812 2.355469 77.40625 2.347656 77.542969 2.367188 C 77.683594 2.390625 77.800781 2.441406 77.898438 2.527344 C 77.996094 2.609375 78.066406 2.71875 78.105469 2.855469 C 78.148438 2.988281 78.15625 3.136719 78.136719 3.300781 C 78.113281 3.464844 78.0625 3.628906 77.984375 3.796875 C 77.902344 3.964844 77.800781 4.121094 77.671875 4.269531 Z M 77.671875 4.269531 " fill-opacity="1" fill-rule="nonzero"/></g></g></g></g><g clip-path="url(#805d413ac1)"><g clip-path="url(#41a73be8fb)"><g clip-path="url(#daa85a56c8)"><g clip-path="url(#b7a1510279)"><path fill="#ff782c" d="M 79.597656 5.96875 C 79.46875 6.117188 79.324219 6.246094 79.167969 6.347656 C 79.011719 6.453125 78.851562 6.53125 78.691406 6.574219 C 78.53125 6.617188 78.378906 6.628906 78.238281 6.609375 C 78.097656 6.585938 77.976562 6.53125 77.878906 6.449219 C 77.78125 6.363281 77.710938 6.25 77.667969 6.113281 C 77.628906 5.980469 77.617188 5.828125 77.640625 5.664062 C 77.660156 5.496094 77.710938 5.328125 77.792969 5.160156 C 77.875 4.988281 77.980469 4.828125 78.109375 4.679688 C 78.238281 4.53125 78.382812 4.402344 78.539062 4.296875 C 78.695312 4.195312 78.855469 4.117188 79.015625 4.074219 C 79.179688 4.027344 79.328125 4.015625 79.46875 4.039062 C 79.609375 4.0625 79.730469 4.113281 79.828125 4.199219 C 79.925781 4.285156 79.996094 4.398438 80.039062 4.53125 C 80.082031 4.667969 80.089844 4.820312 80.070312 4.984375 C 80.046875 5.152344 79.996094 5.320312 79.914062 5.488281 C 79.832031 5.660156 79.726562 5.820312 79.597656 5.96875 Z M 79.597656 5.96875 " fill-opacity="1" fill-rule="nonzero"/></g></g></g></g><g clip-path="url(#48f370191d)"><g clip-path="url(#4f2adb2a7c)"><g clip-path="url(#5c5c44d043)"><g clip-path="url(#2807bef07c)"><path fill="#ff782c" d="M 74.707031 4.503906 C 74.625 4.644531 74.523438 4.769531 74.40625 4.875 C 74.285156 4.980469 74.160156 5.058594 74.023438 5.113281 C 73.886719 5.167969 73.75 5.195312 73.617188 5.1875 C 73.484375 5.183594 73.363281 5.148438 73.253906 5.085938 C 73.144531 5.019531 73.054688 4.929688 72.988281 4.816406 C 72.917969 4.703125 72.871094 4.574219 72.855469 4.429688 C 72.835938 4.285156 72.84375 4.132812 72.878906 3.976562 C 72.914062 3.820312 72.972656 3.671875 73.054688 3.53125 C 73.140625 3.390625 73.238281 3.265625 73.359375 3.160156 C 73.476562 3.054688 73.605469 2.972656 73.742188 2.917969 C 73.878906 2.863281 74.011719 2.839844 74.144531 2.84375 C 74.277344 2.851562 74.398438 2.886719 74.507812 2.949219 C 74.617188 3.015625 74.707031 3.101562 74.777344 3.214844 C 74.847656 3.328125 74.890625 3.460938 74.910156 3.605469 C 74.929688 3.75 74.921875 3.902344 74.886719 4.058594 C 74.851562 4.210938 74.792969 4.359375 74.707031 4.503906 Z M 74.707031 4.503906 " fill-opacity="1" fill-rule="nonzero"/></g></g></g></g><g clip-path="url(#16deb4be47)"><g clip-path="url(#832eb2371c)"><g clip-path="url(#d7e0d09373)"><g clip-path="url(#595d5c715d)"><path fill="#ff782c" d="M 77.847656 7.398438 C 77.273438 7.792969 77.089844 8.425781 77.441406 8.8125 C 77.785156 9.195312 78.535156 9.191406 79.109375 8.796875 C 79.683594 8.402344 79.867188 7.765625 79.519531 7.382812 C 79.171875 6.996094 78.421875 7.003906 77.847656 7.398438 Z M 77.847656 7.398438 " fill-opacity="1" fill-rule="evenodd"/></g></g></g></g><g fill="#000000" fill-opacity="1"><g transform="translate(22.873381, 27.555996)"><g><path d="M 3.046875 0.320312 C 4.464844 0.320312 5.96875 -0.554688 5.953125 -1.808594 C 5.941406 -3.074219 4.8125 -3.589844 4.117188 -3.992188 C 3.421875 -4.382812 2.867188 -4.96875 2.867188 -5.453125 C 2.878906 -6.09375 3.226562 -6.398438 3.699219 -6.414062 C 4.117188 -6.429688 4.589844 -6.050781 4.382812 -5.46875 C 4.339844 -5.355469 4.589844 -4.9375 5.191406 -4.9375 C 5.703125 -4.9375 5.925781 -5.246094 5.925781 -5.578125 C 5.925781 -6.414062 5.191406 -7.222656 3.644531 -7.261719 C 2.433594 -7.289062 0.738281 -6.84375 0.792969 -5.132812 C 0.820312 -4.007812 2.199219 -3.410156 3.03125 -2.90625 C 3.492188 -2.628906 3.855469 -2.171875 3.824219 -1.65625 C 3.785156 -1.140625 3.507812 -0.695312 2.921875 -0.695312 C 2.40625 -0.695312 2.058594 -1.210938 2.226562 -1.628906 C 2.253906 -1.683594 2.058594 -2.03125 1.488281 -2.03125 C 0.695312 -2.03125 0.375 -1.085938 0.820312 -0.460938 C 1.253906 0.152344 2.335938 0.320312 3.046875 0.320312 Z M 3.046875 0.320312 "/></g></g></g><g fill="#000000" fill-opacity="1"><g transform="translate(29.398452, 27.555996)"><g><path d="M 5.300781 -4.117188 C 5.398438 -5.035156 4.714844 -5.84375 3.464844 -5.84375 C 1.738281 -5.84375 0.570312 -4.648438 0.570312 -2.683594 C 0.570312 -1.390625 1.113281 0.25 3.410156 0.25 C 4.410156 0.25 4.925781 -0.152344 5.105469 -0.554688 C 5.285156 -0.960938 4.703125 -1.390625 4.605469 -1.253906 C 4.1875 -0.667969 3.855469 -0.460938 3.464844 -0.5 C 3.074219 -0.554688 2.671875 -0.917969 2.53125 -1.792969 L 2.769531 -1.792969 C 3.605469 -1.792969 5.09375 -2.28125 5.300781 -4.117188 Z M 2.460938 -2.601562 C 2.460938 -2.699219 2.476562 -2.796875 2.476562 -2.90625 C 2.558594 -4.480469 3.046875 -5.132812 3.589844 -5.09375 C 4.132812 -5.050781 4.1875 -4.203125 4.144531 -3.8125 C 4.019531 -2.851562 3.367188 -2.574219 2.714844 -2.574219 C 2.628906 -2.574219 2.546875 -2.585938 2.460938 -2.601562 Z M 2.460938 -2.601562 "/></g></g></g><g fill="#000000" fill-opacity="1"><g transform="translate(35.102674, 27.555996)"><g><path d="M 3.605469 -0.265625 C 4.550781 -0.792969 5.621094 -2.753906 5.664062 -4.117188 C 5.703125 -5.203125 5.414062 -5.996094 4.621094 -6.039062 C 4.257812 -6.050781 3.839844 -5.859375 3.894531 -5.414062 C 3.921875 -5.257812 3.992188 -5.148438 4.078125 -5.148438 C 4.507812 -5.148438 4.8125 -4.785156 4.8125 -4.046875 C 4.8125 -2.753906 3.644531 -0.5 2.878906 -0.5 C 2.519531 -0.5 2.40625 -1.988281 2.40625 -3.269531 C 2.40625 -3.910156 2.433594 -4.980469 2.433594 -5.691406 C 2.433594 -6.066406 0.777344 -6.191406 0.75 -5.664062 C 0.683594 -4.242188 0.652344 -0.960938 1.195312 -0.472656 C 1.753906 0 2.558594 0.320312 3.605469 -0.265625 Z M 3.605469 -0.265625 "/></g></g></g><g fill="#000000" fill-opacity="1"><g transform="translate(41.168625, 27.555996)"><g><path d="M 5.300781 -4.117188 C 5.398438 -5.035156 4.714844 -5.84375 3.464844 -5.84375 C 1.738281 -5.84375 0.570312 -4.648438 0.570312 -2.683594 C 0.570312 -1.390625 1.113281 0.25 3.410156 0.25 C 4.410156 0.25 4.925781 -0.152344 5.105469 -0.554688 C 5.285156 -0.960938 4.703125 -1.390625 4.605469 -1.253906 C 4.1875 -0.667969 3.855469 -0.460938 3.464844 -0.5 C 3.074219 -0.554688 2.671875 -0.917969 2.53125 -1.792969 L 2.769531 -1.792969 C 3.605469 -1.792969 5.09375 -2.28125 5.300781 -4.117188 Z M 2.460938 -2.601562 C 2.460938 -2.699219 2.476562 -2.796875 2.476562 -2.90625 C 2.558594 -4.480469 3.046875 -5.132812 3.589844 -5.09375 C 4.132812 -5.050781 4.1875 -4.203125 4.144531 -3.8125 C 4.019531 -2.851562 3.367188 -2.574219 2.714844 -2.574219 C 2.628906 -2.574219 2.546875 -2.585938 2.460938 -2.601562 Z M 2.460938 -2.601562 "/></g></g></g><g fill="#000000" fill-opacity="1"><g transform="translate(46.872846, 27.555996)"><g><path d="M 6.261719 -0.320312 C 5.859375 -0.363281 5.871094 -2.796875 5.871094 -3.742188 C 5.886719 -4.882812 5.414062 -5.675781 4.339844 -5.761719 C 3.492188 -5.816406 2.808594 -4.785156 2.546875 -3.605469 L 2.492188 -4.550781 C 2.449219 -5.246094 2.238281 -5.746094 1.53125 -5.859375 C 0.835938 -5.953125 0.472656 -5.578125 0.625 -5.578125 C 0.90625 -5.578125 0.695312 -1.128906 0.695312 -0.347656 C 0.695312 0.152344 2.699219 0.238281 2.683594 -0.347656 C 2.699219 -2.210938 3.449219 -4.953125 3.867188 -4.925781 C 4.355469 -4.898438 4.214844 -3.632812 4.257812 -0.960938 C 4.269531 -0.0546875 5.007812 0.140625 5.507812 0.140625 C 6.261719 0.140625 6.316406 -0.304688 6.261719 -0.320312 Z M 6.261719 -0.320312 "/></g></g></g><g fill="#000000" fill-opacity="1"><g transform="translate(53.592697, 27.555996)"><g><path d="M 7.164062 -0.320312 C 6.957031 -0.460938 6.707031 -0.667969 6.429688 -0.917969 C 6.734375 -1.320312 6.902344 -1.753906 6.902344 -2.113281 C 6.902344 -3.003906 5.746094 -2.65625 5.746094 -2.476562 C 5.746094 -2.226562 5.703125 -1.988281 5.621094 -1.753906 C 5.121094 -2.308594 4.621094 -2.964844 4.230469 -3.605469 C 5.078125 -4.214844 5.886719 -4.898438 5.886719 -5.84375 C 5.886719 -6.523438 5.441406 -7.402344 3.742188 -7.414062 C 3.03125 -7.414062 1.515625 -6.984375 1.570312 -5.273438 C 1.570312 -4.605469 1.90625 -3.910156 2.421875 -3.242188 C 1.699219 -2.753906 1.113281 -2.210938 1.113281 -1.460938 C 1.113281 -0.527344 1.90625 0.472656 3.921875 0.472656 C 4.632812 0.472656 5.300781 0.167969 5.816406 -0.265625 C 6.21875 0 6.566406 0.195312 6.804688 0.320312 C 7.125 0.527344 7.332031 -0.109375 7.164062 -0.320312 Z M 3.464844 -5.59375 C 3.464844 -6.234375 3.867188 -6.496094 4.269531 -6.496094 C 4.757812 -6.496094 5.035156 -6.050781 5.035156 -5.621094 C 5.035156 -5.035156 4.550781 -4.578125 3.910156 -4.160156 C 3.632812 -4.6875 3.464844 -5.191406 3.464844 -5.59375 Z M 3.921875 -0.417969 C 2.808594 -0.417969 2.253906 -0.917969 2.253906 -1.460938 C 2.253906 -1.90625 2.53125 -2.28125 2.9375 -2.628906 C 3.5625 -1.960938 4.3125 -1.335938 5.007812 -0.820312 C 4.714844 -0.570312 4.355469 -0.417969 3.921875 -0.417969 Z M 3.921875 -0.417969 "/></g></g></g><g fill="#000000" fill-opacity="1"><g transform="translate(61.926424, 27.555996)"><g><path d="M 2.296875 0.238281 C 2.949219 0.207031 4.714844 -0.0273438 4.714844 -2.699219 C 4.714844 -5.441406 4.632812 -6.316406 4.632812 -6.84375 C 4.632812 -7.375 2.644531 -7.402344 2.65625 -6.746094 C 2.671875 -5.800781 2.742188 -3.6875 2.742188 -2.421875 C 2.742188 -1.417969 2.449219 -0.945312 2.015625 -0.945312 C 1.726562 -0.945312 1.347656 -1.222656 1.292969 -1.726562 C 1.265625 -1.933594 0.460938 -1.699219 0.460938 -0.933594 C 0.460938 -0.0976562 1.378906 0.277344 2.296875 0.238281 Z M 2.296875 0.238281 "/></g></g></g><g fill="#000000" fill-opacity="1"><g transform="translate(67.352388, 27.555996)"><g><path d="M 1.058594 -1.390625 C 1.058594 -0.847656 1.308594 -0.25 1.792969 0.0546875 C 2.824219 0.695312 4.035156 -0.0703125 4.589844 -1.488281 C 4.703125 -1.78125 4.703125 -1.558594 4.714844 -1.195312 C 4.773438 -0.0546875 5.507812 0.140625 6.011719 0.140625 C 6.761719 0.140625 6.816406 -0.304688 6.761719 -0.320312 C 6.359375 -0.363281 6.371094 -2.796875 6.359375 -3.242188 C 6.386719 -4.019531 6.386719 -4.828125 6.386719 -5.621094 C 6.386719 -6.023438 4.6875 -5.96875 4.675781 -5.621094 C 4.660156 -5.09375 4.550781 -3.199219 4.339844 -2.492188 C 4.214844 -2.03125 3.9375 -0.792969 3.3125 -0.777344 C 2.878906 -0.765625 2.867188 -1.167969 2.742188 -4.550781 C 2.699219 -5.246094 2.492188 -5.746094 1.78125 -5.859375 C 1.085938 -5.96875 0.722656 -5.578125 0.875 -5.578125 C 1.15625 -5.578125 1.058594 -2.171875 1.058594 -1.390625 Z M 1.058594 -1.390625 "/></g></g></g><g fill="#000000" fill-opacity="1"><g transform="translate(74.531359, 27.555996)"><g><path d="M 2.503906 -3.128906 C 2.476562 -4.855469 2.53125 -5.761719 2.492188 -6.457031 C 2.449219 -7.152344 2.238281 -7.652344 1.53125 -7.761719 C 0.835938 -7.875 0.472656 -7.484375 0.625 -7.484375 C 0.90625 -7.484375 0.710938 -2.839844 0.710938 -1.640625 C 0.710938 -0.304688 1.710938 0.140625 2.226562 0.140625 C 2.964844 0.140625 3.019531 -0.304688 2.964844 -0.320312 C 2.574219 -0.363281 2.503906 -2.78125 2.503906 -3.128906 Z M 2.503906 -3.128906 "/></g></g></g><g fill="#000000" fill-opacity="1"><g transform="translate(78.051279, 27.555996)"><g><path d="M 2.503906 -3.128906 C 2.476562 -4.855469 2.53125 -5.761719 2.492188 -6.457031 C 2.449219 -7.152344 2.238281 -7.652344 1.53125 -7.761719 C 0.835938 -7.875 0.472656 -7.484375 0.625 -7.484375 C 0.90625 -7.484375 0.710938 -2.839844 0.710938 -1.640625 C 0.710938 -0.304688 1.710938 0.140625 2.226562 0.140625 C 2.964844 0.140625 3.019531 -0.304688 2.964844 -0.320312 C 2.574219 -0.363281 2.503906 -2.78125 2.503906 -3.128906 Z M 2.503906 -3.128906 "/></g></g></g><g fill="#000000" fill-opacity="1"><g transform="translate(81.571199, 27.555996)"><g><path d="M 4.730469 -5.761719 C 4.285156 -4.464844 3.867188 -3.171875 3.4375 -2.003906 C 2.921875 -3.101562 1.890625 -5.328125 1.765625 -5.761719 C 1.628906 -6.207031 0 -5.773438 0.167969 -5.425781 C 1.15625 -3.4375 2.253906 -0.890625 2.683594 -0.179688 C 2.476562 0.25 2.28125 0.625 2.074219 0.960938 C 1.824219 1.347656 1.503906 1.726562 0.917969 1.753906 C 0.863281 1.753906 0.890625 2.617188 1.765625 2.617188 C 2.199219 2.617188 2.90625 2.40625 3.5625 1.113281 C 4.0625 0.0976562 5.746094 -4.382812 6.164062 -5.621094 C 6.300781 -6.023438 4.84375 -6.050781 4.730469 -5.761719 Z M 4.730469 -5.761719 "/></g></g></g><g clip-path="url(#82d7463a45)"><g clip-path="url(#65575d5b52)"><g clip-path="url(#9282da3b75)"><g clip-path="url(#3c281c34ef)"><path fill="#ff782c" d="M 39.179688 6.851562 C 40.21875 8.125 38.339844 7.703125 37.175781 8.648438 C 36.011719 9.597656 36 11.558594 34.964844 10.28125 C 34.480469 9.6875 34.457031 8.667969 34.359375 7.855469 C 34.25 6.933594 34.136719 6.226562 34.757812 5.71875 C 35.378906 5.214844 36.105469 5.472656 36.992188 5.773438 C 37.757812 6.03125 38.699219 6.257812 39.179688 6.851562 Z M 39.179688 6.851562 " fill-opacity="1" fill-rule="evenodd"/></g></g></g></g><g clip-path="url(#c692147649)"><g clip-path="url(#5d5b7356e5)"><g clip-path="url(#d1f7e4ca5d)"><g clip-path="url(#27a24fc9a9)"><path fill="#ff782c" d="M 33.171875 4.28125 C 33.296875 4.433594 33.394531 4.59375 33.46875 4.761719 C 33.546875 4.933594 33.589844 5.101562 33.605469 5.265625 C 33.621094 5.429688 33.609375 5.578125 33.5625 5.710938 C 33.515625 5.84375 33.445312 5.949219 33.34375 6.03125 C 33.246094 6.113281 33.125 6.160156 32.984375 6.179688 C 32.847656 6.195312 32.699219 6.179688 32.542969 6.128906 C 32.382812 6.082031 32.230469 6.003906 32.078125 5.894531 C 31.925781 5.785156 31.789062 5.65625 31.667969 5.507812 C 31.546875 5.355469 31.445312 5.195312 31.371094 5.027344 C 31.296875 4.855469 31.25 4.6875 31.234375 4.523438 C 31.21875 4.359375 31.234375 4.210938 31.277344 4.078125 C 31.324219 3.945312 31.398438 3.839844 31.496094 3.757812 C 31.597656 3.675781 31.714844 3.628906 31.855469 3.609375 C 31.996094 3.59375 32.140625 3.609375 32.300781 3.65625 C 32.457031 3.707031 32.613281 3.785156 32.761719 3.894531 C 32.914062 4 33.050781 4.132812 33.171875 4.28125 Z M 33.171875 4.28125 " fill-opacity="1" fill-rule="nonzero"/></g></g></g></g><g clip-path="url(#089e840cb6)"><g clip-path="url(#affd8e7e40)"><g clip-path="url(#fc8657f6da)"><g clip-path="url(#a214cb78b0)"><path fill="#ff782c" d="M 35.179688 2.679688 C 35.304688 2.832031 35.40625 2.996094 35.480469 3.167969 C 35.558594 3.339844 35.605469 3.511719 35.621094 3.675781 C 35.636719 3.84375 35.621094 3.992188 35.574219 4.128906 C 35.53125 4.261719 35.457031 4.371094 35.355469 4.453125 C 35.253906 4.535156 35.132812 4.585938 34.992188 4.601562 C 34.851562 4.621094 34.699219 4.605469 34.539062 4.554688 C 34.382812 4.503906 34.222656 4.425781 34.070312 4.316406 C 33.917969 4.207031 33.777344 4.074219 33.652344 3.921875 C 33.527344 3.769531 33.429688 3.605469 33.351562 3.433594 C 33.277344 3.257812 33.230469 3.089844 33.214844 2.921875 C 33.195312 2.757812 33.210938 2.605469 33.257812 2.472656 C 33.304688 2.335938 33.378906 2.230469 33.476562 2.144531 C 33.578125 2.0625 33.699219 2.015625 33.84375 1.996094 C 33.984375 1.980469 34.132812 1.996094 34.292969 2.046875 C 34.453125 2.09375 34.609375 2.175781 34.761719 2.285156 C 34.917969 2.394531 35.054688 2.527344 35.179688 2.679688 Z M 35.179688 2.679688 " fill-opacity="1" fill-rule="nonzero"/></g></g></g></g><g clip-path="url(#cad21bb506)"><g clip-path="url(#07707feb67)"><g clip-path="url(#6d25a72242)"><g clip-path="url(#0215bc94f6)"><path fill="#ff782c" d="M 32.890625 7.242188 C 33.015625 7.347656 33.121094 7.46875 33.207031 7.605469 C 33.289062 7.738281 33.347656 7.878906 33.378906 8.023438 C 33.40625 8.167969 33.410156 8.304688 33.378906 8.433594 C 33.351562 8.5625 33.296875 8.675781 33.214844 8.773438 C 33.132812 8.871094 33.03125 8.941406 32.90625 8.992188 C 32.78125 9.039062 32.644531 9.0625 32.5 9.054688 C 32.351562 9.046875 32.207031 9.015625 32.058594 8.953125 C 31.910156 8.890625 31.777344 8.808594 31.652344 8.703125 C 31.527344 8.59375 31.421875 8.476562 31.335938 8.339844 C 31.253906 8.203125 31.195312 8.066406 31.164062 7.921875 C 31.136719 7.777344 31.132812 7.640625 31.164062 7.511719 C 31.191406 7.378906 31.246094 7.265625 31.328125 7.171875 C 31.410156 7.074219 31.511719 7 31.636719 6.953125 C 31.761719 6.902344 31.894531 6.882812 32.042969 6.886719 C 32.191406 6.894531 32.335938 6.929688 32.484375 6.992188 C 32.628906 7.050781 32.765625 7.136719 32.890625 7.242188 Z M 32.890625 7.242188 " fill-opacity="1" fill-rule="nonzero"/></g></g></g></g><g clip-path="url(#a7a468ca88)"><g clip-path="url(#c6ae82664b)"><g clip-path="url(#73e85e246d)"><g clip-path="url(#64146d98f6)"><path fill="#ff782c" d="M 36.285156 4.648438 C 36.574219 5.28125 37.167969 5.570312 37.605469 5.292969 C 38.046875 5.019531 38.167969 4.28125 37.878906 3.648438 C 37.589844 3.011719 37 2.722656 36.558594 3 C 36.117188 3.277344 35.996094 4.015625 36.285156 4.648438 Z M 36.285156 4.648438 " fill-opacity="1" fill-rule="evenodd"/></g></g></g></g></svg>