<svg xmlns="http://www.w3.org/2000/svg" width="64" height="80" viewBox="0 0 64 80" fill="none"><path d="M49.2634 5.22385C48.4936 5.22385 47.8888 5.88365 47.8888 6.65341C47.8888 7.03829 48.0538 7.42316 48.2737 7.69808C46.7342 9.2376 43.8751 11.9318 42.7205 11.4369C41.6758 10.997 41.4559 8.96268 41.4009 7.53313C42.1706 7.53313 42.7754 6.87334 42.7754 6.10358C42.7754 5.33382 42.1706 4.67403 41.4009 4.67403C40.6311 4.67403 40.0263 5.33382 40.0263 6.10358C40.0263 6.76337 40.4112 7.25822 40.961 7.47815C40.3562 8.9077 39.0366 10.7771 36.6723 9.73244C34.9129 8.79773 34.0882 5.33382 33.7583 2.85959C34.4181 2.69464 34.8579 2.14482 34.8579 1.43004C34.8579 0.660282 34.2531 0.000488281 33.4833 0.000488281C32.7136 0.000488281 32.1088 0.660282 32.1088 1.43004C32.1088 2.14482 32.6036 2.69464 33.2084 2.85959C32.8785 5.33382 32.0538 8.79773 30.1844 9.62248C27.8201 10.6671 26.5005 8.79773 25.8957 7.36818C26.4455 7.20323 26.8304 6.65341 26.8304 5.99361C26.8304 5.22385 26.2256 4.56406 25.4559 4.56406C24.6861 4.56406 24.0813 5.22385 24.0813 5.99361C24.0813 6.81835 24.6861 7.42316 25.4559 7.42316C25.4009 8.85272 25.1809 10.8871 24.1363 11.3269C22.9816 11.8218 20.0675 9.12763 18.583 7.58811C18.8029 7.3132 18.9679 6.9833 18.9679 6.54344C18.9679 5.77368 18.3631 5.11389 17.5933 5.11389C16.8236 5.11389 16.2188 5.77368 16.2188 6.54344C16.2188 7.36818 16.8785 7.97299 17.5933 7.97299C17.8133 7.97299 17.9782 7.91801 18.1981 7.80804C19.4078 10.5572 22.1569 16.9352 21.937 19.5194C24.3012 17.9799 28.5899 16.9902 33.4833 16.9902C38.2668 16.9902 42.5005 17.9799 44.8648 19.4094C44.6998 16.7702 47.339 10.5022 48.6036 7.80804C48.7686 7.91801 48.9885 7.97299 49.2084 7.97299C49.9782 7.97299 50.583 7.3132 50.583 6.54344C50.638 5.82866 50.0332 5.22385 49.2634 5.22385Z" fill="#EE8F36"></path><path fill-rule="evenodd" clip-rule="evenodd" d="M33.484 64.0005C35.9033 64.0005 38.2675 63.7806 40.5768 63.0658C44.4806 61.9112 47.5046 59.6019 49.1541 55.8081C50.1988 53.4438 50.4737 50.9696 50.4737 48.4404C50.4737 46.7909 50.1438 45.1414 49.9239 43.492C49.8689 42.9971 49.7039 42.9421 49.2641 43.1071C47.3947 43.6019 45.5802 43.9318 43.6558 43.8768C30.5149 43.8219 32.9892 31.2858 32.8792 22.7085C32.9342 22.3236 32.8242 22.2136 32.4393 22.2686C31.3397 22.3236 30.24 22.4335 29.1954 22.5985C26.8311 23.0384 24.6318 23.9181 22.9273 25.7325C21.7177 27.0521 20.893 28.6466 20.2881 30.3511C16.9892 39.5332 12.8655 57.4576 24.5768 62.406C27.3259 63.6706 30.35 64.0005 33.484 64.0005ZM61.9101 30.7909C61.8551 31.2308 61.8001 31.7256 61.6352 32.1655C61.2503 33.76 60.2056 34.9696 58.996 36.0693C58.4462 36.5641 57.8414 37.004 57.2366 37.4438C56.027 38.3236 54.5974 37.8287 53.8826 36.7291C53.4977 36.1792 53.3878 35.5195 53.2228 34.8597C52.3981 31.9456 51.4634 28.9765 50.1438 26.2274C49.2641 24.5229 48.3294 22.8734 46.7349 21.6638C46.295 21.3339 45.3603 20.0693 46.24 19.7394C46.405 19.6844 46.6249 19.6294 46.8448 19.5744C50.1438 19.4095 53.3878 19.6844 56.3019 21.4988C59.3259 23.3683 61.0304 26.1724 61.8001 29.5813C61.8551 29.8562 61.8001 30.1311 61.9101 30.4061C61.9101 30.516 61.9101 30.626 61.9101 30.7909ZM5.05792 30.571C5.05792 28.5366 5.93764 26.7222 6.98231 25.0177C9.01668 21.8837 11.9857 20.1793 15.6146 19.6844C17.1541 19.4645 18.7486 19.4095 20.3431 19.5744C21.7177 19.7394 20.728 21.1689 20.1782 21.6088C18.6387 22.7634 17.704 24.303 16.8792 25.9524C15.3397 28.9765 14.405 32.2205 13.5253 35.5194C13.3053 36.2342 12.9754 36.894 12.3706 37.3889C11.7108 37.9387 10.7211 38.1036 10.0064 37.6088C8.52183 36.6191 7.14726 35.5744 6.10259 34.0899C5.38781 33.0452 5.00293 31.8906 5.05792 30.571ZM26.2263 32.1655L30.8998 34.4748L26.2263 36.7841L21.6077 34.4748L26.2263 32.1655ZM39.3122 19.4095C42.6112 20.1243 45.4153 21.7188 47.4496 24.5229C48.8242 26.3923 49.7039 28.5916 50.3637 30.8459C51.5184 34.8047 53.0029 40.7428 53.6077 44.8665C55.4771 56.9077 48.5493 66.0349 36.5631 67.2995C33.2091 67.6844 29.5253 67.4644 26.3363 66.5847C11.6009 62.7359 12.4256 50.0349 14.8449 37.7737C15.4497 34.8047 16.0545 31.8356 17.0991 28.9215C19.2435 23.0933 23.3672 19.8494 29.4703 19.0796C32.8242 18.6947 36.0132 18.6947 39.3122 19.4095Z" fill="#6D6D70"></path><path fill-rule="evenodd" clip-rule="evenodd" d="M41.4587 32.1655L46.0772 34.4748L41.4587 36.7841L36.7852 34.4748L41.4587 32.1655Z" fill="white"></path><path d="M3.13402 71.9179H0.824742C0.274914 71.9179 0 72.2478 0 72.7976V79.8904H2.69416C3.40893 79.8904 4.01374 79.8354 4.39862 79.7254C5.93814 79.3405 6.76288 77.856 6.76288 75.9316C6.76288 73.3474 5.60824 71.9179 3.13402 71.9179ZM5.05842 75.8766C5.05842 77.5261 4.50859 78.4058 2.8591 78.4058H1.5945V73.2924H3.13402C4.56357 73.2924 5.05842 74.2821 5.05842 75.8766ZM11.2165 73.1825C12.701 73.1825 13.4158 74.3371 13.4158 75.8766C13.4158 77.4711 12.701 78.5708 11.2165 78.5708C9.73195 78.5708 9.01718 77.4162 9.01718 75.8766C9.07216 74.3371 9.73195 73.1825 11.2165 73.1825ZM11.2165 80.0003C13.6357 80.0003 15.0103 78.3509 15.0103 75.9316C15.0103 73.5124 13.5807 71.8079 11.2165 71.8079C8.85223 71.8079 7.42268 73.4574 7.42268 75.9316C7.42268 78.3509 8.79725 80.0003 11.2165 80.0003ZM15.7251 75.8766C15.7251 78.1859 17.0996 79.9454 19.4089 79.9454C20.5636 79.9454 21.1134 79.5605 21.7182 78.7907V79.7804H22.9828V75.4918H20.5636V76.8113C21.0034 76.8113 21.0584 76.8113 21.5533 76.8113C21.3883 77.746 20.7285 78.5158 19.6289 78.5158C18.1443 78.4058 17.4295 77.4711 17.4295 75.7667C17.4295 74.0072 18.1443 73.1275 19.5189 73.1275C20.2337 73.1275 20.7835 73.4024 21.1134 74.0072L22.5429 73.2924C22.378 72.9625 22.1581 72.6876 21.8831 72.4677C21.2234 71.9729 20.3986 71.7529 19.4639 71.7529C17.0996 71.6979 15.7251 73.5124 15.7251 75.8766Z" fill="#EE8F36"></path><path d="M31.6145 74.5023C31.6145 72.8528 30.7348 71.9181 29.0853 71.9181H26.3911C25.9513 71.9181 25.5664 72.3029 25.5664 72.7978V79.8906H27.2159V77.0864H29.1403C30.7898 77.0315 31.6145 76.0418 31.6145 74.5023ZM27.1609 75.6019V73.2926H28.8104C29.5802 73.2926 29.965 73.6775 29.965 74.4473C29.965 75.217 29.5801 75.6019 28.7554 75.6019H27.1609ZM36.0681 73.1827C37.5527 73.1827 38.2674 74.3373 38.2674 75.8768C38.2674 77.4713 37.5527 78.571 36.0681 78.571C34.5836 78.571 33.8688 77.4163 33.8688 75.8768C33.8688 74.3373 34.5836 73.1827 36.0681 73.1827ZM36.0681 80.0005C38.4874 80.0005 39.9169 78.3511 39.9169 75.9318C39.9169 73.5126 38.4874 71.8081 36.0681 71.8081C33.7039 71.8081 32.2743 73.4576 32.2743 75.9318C32.2743 78.3511 33.6489 80.0005 36.0681 80.0005ZM49.209 71.9181C48.8241 71.9181 48.5492 72.138 48.3843 72.5229L47.1746 77.5263L46.02 71.9181H44.3155L43.1609 77.5263L41.7863 71.9181H40.0819L42.3362 79.8906H43.9307L45.1403 73.7875L46.3499 79.8906H47.8894L50.1437 71.9181H49.209ZM50.7485 79.8906H56.5217V78.406H52.343V76.3717H54.5973C55.1471 76.3717 55.477 76.0968 55.4221 75.5469V75.0521H52.343V73.3476H56.5217V71.973H51.5733C51.0234 71.973 50.7485 72.3029 50.7485 72.8528V79.8906ZM63.6695 74.1724C63.6695 72.5229 62.7897 71.8631 61.1403 71.8631H58.1162C57.6763 71.8631 57.2915 72.248 57.2915 72.7428V79.8356H58.941V76.7566H60.7004C61.6351 76.7566 61.855 77.0864 61.91 78.0212C61.91 78.7909 61.91 79.2308 61.965 79.3957C61.965 79.5607 62.02 79.7256 62.075 79.8906H63.8894C63.7245 79.7806 63.6695 79.6157 63.6695 79.3957L63.6145 77.8562C63.6145 77.3614 63.5045 76.9765 63.3396 76.6466C63.1746 76.4267 62.9547 76.2067 62.5698 76.0968C63.2296 75.8768 63.6695 75.217 63.6695 74.1724ZM62.02 74.3373C62.02 75.1071 61.5801 75.382 60.8104 75.382H58.886V73.2926H60.9203C61.6351 73.2926 62.02 73.6225 62.02 74.3373Z" fill="#6D6D70"></path></svg>