<svg xmlns="http://www.w3.org/2000/svg" width="82" height="80" viewBox="0 0 82 80" fill="none"><path d="M14.4563 76.737C14.268 76.737 14.1216 76.7789 14.017 76.8416C13.8915 76.9253 13.8496 77.0299 13.8496 77.1764C13.8496 77.3228 13.9124 77.4483 14.017 77.5111C14.1425 77.5947 14.3726 77.6784 14.7701 77.7621C15.1466 77.8458 15.4395 77.9922 15.6278 78.1596C15.8161 78.3269 15.9207 78.578 15.9207 78.8918C15.9207 79.2056 15.7952 79.4775 15.565 79.6867C15.314 79.8959 15.0002 79.9796 14.6027 79.9796C14.017 79.9796 13.5149 79.7704 13.0547 79.3729L13.4522 78.8918C13.8287 79.2265 14.2262 79.3729 14.6237 79.3729C14.8329 79.3729 14.9793 79.3311 15.1048 79.2474C15.2303 79.1637 15.2722 79.0382 15.2722 78.9127C15.2722 78.7662 15.2094 78.6616 15.1048 78.578C15.0002 78.4943 14.8119 78.4315 14.5191 78.3688C14.2471 78.306 14.0379 78.2433 13.8915 78.1805C13.745 78.1177 13.6195 78.055 13.5149 77.9713C13.3057 77.8039 13.1802 77.5529 13.1802 77.1973C13.1802 76.8626 13.3057 76.5906 13.5568 76.4023C13.8078 76.2141 14.1216 76.1304 14.4772 76.1304C14.7073 76.1304 14.9584 76.1722 15.1885 76.2559C15.4186 76.3396 15.6278 76.4442 15.7952 76.5906L15.4604 77.0718C15.3558 76.9672 15.2094 76.8835 15.0211 76.8207C14.8329 76.758 14.6446 76.737 14.4563 76.737Z" fill="#999999"></path><path d="M18.2637 79.9586V76.2559H18.8913V79.3729H20.5857V79.9586H18.2637Z" fill="#999999"></path><path d="M25.8575 79.4356C25.4809 79.7912 25.0207 79.9795 24.4768 79.9795C23.9329 79.9795 23.4517 79.7912 23.0961 79.4356C22.7195 79.059 22.5312 78.6197 22.5312 78.0758C22.5312 77.5319 22.7195 77.0717 23.0961 76.716C23.4726 76.3604 23.9329 76.1721 24.4768 76.1721C25.0207 76.1721 25.5018 76.3604 25.8575 76.716C26.234 77.0717 26.4223 77.5319 26.4223 78.0758C26.4223 78.6197 26.234 79.0799 25.8575 79.4356ZM25.3972 77.1135C25.1462 76.8415 24.8324 76.716 24.4559 76.716C24.0793 76.716 23.7864 76.8415 23.5145 77.1135C23.2634 77.3855 23.1379 77.6993 23.1379 78.0758C23.1379 78.4524 23.2634 78.7661 23.5145 79.0381C23.7655 79.3101 24.0793 79.4356 24.4559 79.4356C24.8324 79.4356 25.1253 79.3101 25.3972 79.0381C25.6483 78.7661 25.7738 78.4524 25.7738 78.0758C25.7738 77.6993 25.6483 77.3855 25.3972 77.1135Z" fill="#999999"></path><path d="M31.3788 78.1386H32.0064V79.4147C31.6508 79.7912 31.1487 80.0004 30.5002 80.0004C29.9563 80.0004 29.4961 79.8121 29.1195 79.4565C28.743 79.1009 28.5547 78.6406 28.5547 78.0967C28.5547 77.5528 28.743 77.0926 29.1195 76.716C29.4961 76.3395 29.9563 76.1721 30.4793 76.1721C31.0232 76.1721 31.4625 76.3186 31.8181 76.6323L31.4834 77.1135C31.337 76.988 31.1906 76.9043 31.0441 76.8625C30.8977 76.8206 30.7303 76.7997 30.542 76.7997C30.1655 76.7997 29.8517 76.9252 29.6007 77.1553C29.3496 77.4064 29.2241 77.7202 29.2241 78.1176C29.2241 78.5151 29.3496 78.8289 29.6007 79.059C29.8517 79.2891 30.1446 79.4147 30.5002 79.4147C30.8558 79.4147 31.1487 79.331 31.3788 79.1845V78.1386Z" fill="#999999"></path><path d="M34.8936 79.1009L34.5171 79.9376H33.8477L35.4794 76.2349H36.1488L37.7805 79.9376H37.1111L36.7346 79.1009H34.8936ZM36.5044 78.536L35.835 77.0089L35.1656 78.536H36.5044Z" fill="#999999"></path><path d="M42.6774 76.2349H43.305V79.9376H42.6356L40.5436 77.239V79.9376H39.916V76.2349H40.5436L42.6983 78.9963V76.2349H42.6774Z" fill="#999999"></path><path d="M48.9746 79.9586V76.2559H49.6022V77.8667H51.4431V76.2559H52.0707V79.9586H51.4431V78.4315H49.6022V79.9586H48.9746Z" fill="#999999"></path><path d="M57.2985 76.2349V76.8206H55.3112V77.8038H57.0893V78.3687H55.3112V79.3519H57.3613V79.9376H54.6836V76.2349H57.2985Z" fill="#999999"></path><path d="M62.7192 77.4482C62.7192 78.0549 62.4472 78.4523 61.9242 78.5988L62.8866 79.9376H62.0916L61.213 78.6825H60.3971V79.9376H59.7695V76.2349H61.1502C61.715 76.2349 62.1125 76.3395 62.3636 76.5277C62.5937 76.716 62.7192 77.0298 62.7192 77.4482ZM61.8824 77.9712C62.0079 77.8666 62.0707 77.6783 62.0707 77.4482C62.0707 77.1972 62.0079 77.0298 61.8824 76.9461C61.7569 76.8625 61.5268 76.8206 61.1921 76.8206H60.3971V78.1385H61.1711C61.5059 78.1385 61.7569 78.0758 61.8824 77.9712Z" fill="#999999"></path><path d="M67.8024 76.2349V76.8206H65.8151V77.8038H67.5933V78.3687H65.8151V79.3519H67.8652V79.9376H65.1875V76.2349H67.8024Z" fill="#999999"></path><path d="M11.2547 58.014C12.3426 58.9554 12.8865 60.2942 12.8865 62.0097C12.8865 63.8297 12.3426 65.2313 11.2547 66.2354C10.1669 67.2396 8.61887 67.7416 6.65243 67.7416H3.53541V72.1975H0V56.5706H6.63151C8.61887 56.5915 10.1669 57.0726 11.2547 58.014ZM8.74439 64.1225C9.26738 63.6623 9.53934 62.9929 9.53934 62.1352C9.53934 61.2775 9.26738 60.629 8.74439 60.1897C8.2214 59.7503 7.44738 59.5411 6.46416 59.5411H3.53541V64.8338H6.46416C7.44738 64.8129 8.20048 64.5828 8.74439 64.1225Z" fill="#43C3DC"></path><path d="M24.6219 61.7795C25.626 62.8883 26.1281 64.4572 26.1281 66.4446C26.1281 66.8002 26.1281 67.0722 26.1072 67.2605H17.4883C17.6766 68.0136 18.0531 68.6202 18.597 69.0386C19.1409 69.457 19.8104 69.6662 20.5844 69.6662C21.1492 69.6662 21.6931 69.5616 22.2161 69.3524C22.7391 69.1432 23.1993 68.8294 23.6177 68.411L25.4168 70.231C24.8101 70.9214 24.057 71.4444 23.1993 71.8C22.3207 72.1557 21.3584 72.3439 20.2915 72.3439C19.0363 72.3439 17.9276 72.0929 16.9862 71.5908C16.0448 71.0888 15.3126 70.3775 14.7896 69.457C14.2667 68.5366 14.0156 67.4697 14.0156 66.2563C14.0156 65.043 14.2667 63.9552 14.7896 63.0347C15.3126 62.1142 16.0448 61.3821 16.9862 60.88C17.9276 60.357 18.9945 60.106 20.2078 60.106C22.1533 60.106 23.6177 60.6499 24.6219 61.7795ZM22.9065 65.2313C22.8855 64.4363 22.6136 63.8087 22.1533 63.3276C21.6722 62.8464 21.0446 62.6163 20.2497 62.6163C19.4966 62.6163 18.8899 62.8464 18.3878 63.3276C17.8858 63.7878 17.572 64.4363 17.4464 65.2313H22.9065Z" fill="#43C3DC"></path><path d="M35.8139 71.549C35.3746 71.8209 34.8725 72.0301 34.3286 72.1556C33.7847 72.3021 33.2408 72.3648 32.6969 72.3648C31.5882 72.3648 30.6677 72.051 29.9774 71.4025C29.287 70.754 28.9314 69.8545 28.9314 68.662V63.0974H27.2578V60.7335H28.9314V57.4282H32.3413V60.7335H35.6047V63.1184H32.3413V68.0763C32.3413 68.9968 32.6969 69.457 33.4291 69.457C33.9312 69.457 34.496 69.3106 35.1027 69.0177L35.8139 71.549Z" fill="#43C3DC"></path><path d="M47.8643 58.3696C47.0484 58.0349 46.1907 57.8466 45.3121 57.8466C44.0988 57.8466 43.011 58.1395 42.0068 58.7252C41.0027 59.311 40.2077 60.1059 39.622 61.11C39.0362 62.1142 38.7434 63.202 38.7434 64.3944C38.7434 65.5868 39.0362 66.6747 39.622 67.6788C40.2077 68.6829 41.0027 69.4779 42.0068 70.0636C43.011 70.6494 44.1197 70.9423 45.3121 70.9423C46.1698 70.9423 47.0066 70.7749 47.8434 70.4402C48.6593 70.1055 49.3914 69.6452 50.0399 69.0386L50.9813 70.0427C50.2073 70.754 49.3287 71.3188 48.3245 71.7372C47.3204 72.1556 46.3163 72.3648 45.2703 72.3648C43.8059 72.3648 42.4461 72.0092 41.2119 71.2979C39.9776 70.5866 38.9944 69.6243 38.2831 68.3901C37.5509 67.1767 37.1953 65.8379 37.1953 64.3944C37.1953 62.951 37.5509 61.633 38.2831 60.4197C39.0153 59.2064 39.9985 58.265 41.2328 57.5537C42.4671 56.8425 43.8268 56.4868 45.3121 56.4868C46.3581 56.4868 47.3832 56.6751 48.3664 57.0726C49.3496 57.47 50.2073 58.0139 50.9604 58.7043L50.0399 59.7712C49.4124 59.1854 48.6802 58.7043 47.8643 58.3696Z" fill="#43C3DC"></path><path d="M60.2897 72.2183L60.2688 70.2519C59.8086 70.9422 59.2019 71.4443 58.4697 71.779C57.7166 72.1137 56.8798 72.2811 55.8966 72.2811C55.1017 72.2811 54.4113 72.1346 53.8046 71.8208C53.198 71.507 52.7377 71.0887 52.403 70.5657C52.0683 70.0218 51.9219 69.436 51.9219 68.7666C51.9219 67.7624 52.3193 66.9675 53.0934 66.3817C53.8674 65.796 54.9552 65.5031 56.315 65.5031H60.2479V64.6036C60.2479 63.6831 59.9759 62.9719 59.432 62.4698C58.8881 61.9677 58.0722 61.7167 57.0263 61.7167C55.7711 61.7167 54.5159 62.1769 53.2607 63.1183L52.5913 62.0932C53.3862 61.5493 54.1394 61.1309 54.8506 60.8799C55.5619 60.6289 56.3777 60.4824 57.2982 60.4824C58.7207 60.4824 59.8086 60.8381 60.5826 61.5493C61.3566 62.2606 61.7541 63.2438 61.775 64.4781L61.7959 72.2183H60.2897ZM58.8044 70.3146C59.5157 69.8335 60.0178 69.1431 60.2688 68.2645V66.6537H56.5033C55.4782 66.6537 54.7042 66.8211 54.1603 67.1767C53.6164 67.5114 53.3653 68.0344 53.3653 68.7247C53.3653 69.4151 53.6164 69.9799 54.1394 70.4192C54.6623 70.8376 55.3318 71.0468 56.1895 71.0468C57.2145 71.0468 58.0932 70.7958 58.8044 70.3146Z" fill="#43C3DC"></path><path d="M67.7995 61.2146C68.5108 60.7544 69.3894 60.5033 70.3935 60.4824V61.884C69.1593 61.8631 68.1551 62.2397 67.4229 62.9719C66.6698 63.704 66.2514 64.7082 66.1468 65.9634V72.2183H64.6406V60.5243H66.1259V63.2438C66.5234 62.3652 67.0882 61.6748 67.7995 61.2146Z" fill="#43C3DC"></path><path d="M80.4148 62.2189C81.3771 63.3695 81.7955 64.9175 81.7327 66.863H71.9632C72.0678 68.1182 72.5281 69.1223 73.3439 69.8964C74.1598 70.6704 75.1639 71.0469 76.3773 71.0469C77.1304 71.0469 77.8207 70.9214 78.4483 70.6495C79.0968 70.3775 79.6407 70.001 80.101 69.5198L80.9587 70.3775C80.3938 70.9842 79.7035 71.4653 78.9086 71.8001C78.1136 72.1348 77.235 72.3021 76.2936 72.3021C75.1639 72.3021 74.1598 72.0511 73.2812 71.549C72.4026 71.0469 71.7122 70.3566 71.2101 69.4571C70.7081 68.5575 70.457 67.5534 70.457 66.4028C70.457 65.2731 70.7081 64.2481 71.2101 63.3485C71.7122 62.449 72.4026 61.7586 73.2812 61.2566C74.1598 60.7545 75.143 60.5035 76.2518 60.5035C78.0718 60.4826 79.4525 61.0683 80.4148 62.2189ZM80.3729 65.7124C80.2892 64.4991 79.8918 63.5159 79.1596 62.8046C78.4274 62.0934 77.4651 61.7168 76.2727 61.7168C75.1012 61.7168 74.118 62.0724 73.323 62.8046C72.5281 63.5368 72.0888 64.4991 71.9632 65.7124H80.3729Z" fill="#43C3DC"></path><path d="M57.6982 34.1239C57.7191 34.1239 57.7191 34.103 57.7401 34.103C57.6355 33.4963 57.4681 32.806 57.2798 32.1365C56.6522 29.6262 55.8364 27.9526 55.8364 27.9526C57.1543 26.3627 56.5895 24.6055 56.5895 24.6055C55.8364 24.1243 54.1837 25.1075 54.1837 25.1075C54.4557 24.1871 53.9118 23.5386 53.9118 23.5386C52.9076 23.685 52.3219 24.7519 52.3219 24.7519C51.6943 24.7519 50.6065 24.7728 49.7906 25.4423C48.9747 26.0908 47.8451 26.3 47.2803 26.3627C46.7154 26.4046 46.8409 27.4924 46.8409 27.4924C45.9205 32.3457 52.2382 32.011 52.2382 32.011C51.0039 32.7641 48.2216 32.2411 48.2216 32.2411C48.2216 32.2411 48.1589 33.3289 47.5522 34.5423C47.0501 35.5883 46.1297 36.7388 44.5398 37.3873C43.2428 37.9103 41.8412 39.3956 40.7324 41.5294C42.4269 42.2825 44.1632 42.3453 47.6359 41.2575C47.6359 41.2575 49.4141 42.931 49.3722 43.8933C49.3722 43.8933 51.3805 42.0106 52.6357 40.5671C53.1377 40.0023 54.0164 38.9145 54.1628 38.5588C54.5812 37.5756 56.192 36.174 57.8028 35.2954C57.8237 34.877 57.761 34.5004 57.6982 34.1239Z" fill="#E9C3DC"></path><path d="M60.3542 37.9312C60.3542 37.9312 60.2287 37.6175 60.0613 37.3037L60.0195 37.2409C59.8939 37.0108 59.7475 36.7807 59.6011 36.697C59.0362 36.1949 57.8647 35.923 55.8774 38.266C55.8146 38.3496 55.7519 38.4961 55.6891 38.5798C55.5008 38.8517 52.6348 42.9729 48.8902 45.3995C48.8902 45.3995 48.7856 45.4414 48.8902 45.4623C49.8525 45.274 53.4926 44.2699 58.0949 39.5211V39.5002C58.1158 39.4793 59.4756 38.245 60.3542 37.9312Z" fill="#43C3DC"></path><path d="M58.431 40.0022C56.8202 41.5084 54.54 43.7468 51.2975 45.1694C51.2765 45.1903 51.2347 45.1903 51.2138 45.2112C51.0046 45.2949 50.7954 45.3786 50.5862 45.4622C50.4188 45.5459 50.2306 45.6087 50.0632 45.6714C49.2473 45.9225 48.557 46.0271 48.285 46.0689C47.8666 46.1107 47.6156 46.1107 47.6156 46.1107C49.603 44.8346 47.511 42.4498 47.1972 42.4707C46.8834 42.4916 41.1305 44.8556 36.8002 39.9395C34.2689 37.0735 30.1268 36.2785 27.1144 36.1112H27.0935C27.0935 36.1112 27.0307 36.1112 26.9052 36.0903C26.4241 36.0693 25.9847 36.0693 25.5873 36.0693C24.9178 36.0693 24.0601 36.1112 23.1815 36.2367C23.1397 36.2367 23.0978 36.2576 23.056 36.2576C23.0351 36.2576 23.0351 36.2576 23.0142 36.2576C22.7422 36.2994 22.4493 36.3413 22.1774 36.404C21.9473 36.4459 21.7171 36.404 21.487 36.2785C19.6043 32.9942 18.5374 29.2077 18.5374 25.1702C18.5374 12.5348 29.039 2.28418 41.9882 2.28418C51.8623 2.28418 60.2929 8.22535 63.7655 16.6559C59.7281 5.67315 48.5152 -1.39767 36.4864 0.234059C22.533 2.11682 12.7636 14.9405 14.6463 28.8939C14.7928 30.0445 15.0229 31.1741 15.3367 32.262C15.8806 34.4376 16.7174 36.4877 17.7633 38.3914C21.3197 44.8346 27.47 49.437 34.5409 51.0896C42.5531 52.282 51.5903 51.9055 60.1674 42.5544C61.046 41.5084 61.82 40.4206 62.5313 39.2491C62.5104 39.2073 62.4685 39.1654 62.4476 39.1027C62.0083 38.4751 60.9205 37.6801 58.431 40.0022Z" fill="#43C3DC"></path><path d="M44.1829 36.3622C45.4799 35.8183 46.1702 34.8559 46.5259 33.9773C46.3376 33.8936 46.1493 33.789 45.9611 33.7054C38.4091 30.4001 34.8318 26.6764 34.8318 26.6764C28.8697 27.4504 29.7693 17.8274 29.7693 17.8274C29.7693 17.8274 30.6688 28.3709 35.7314 25.1911C37.5932 24.0196 37.4259 22.4088 36.5263 20.9026C39.6433 19.5219 42.4884 18.8315 42.2374 15.1497C42.2164 14.7522 41.8817 14.4384 41.4843 14.4175C40.1036 14.3757 37.0493 14.2711 36.4426 14.0828C35.6477 13.8527 33.493 12.7858 32.1332 12.6184C30.7734 12.4511 27.51 12.3883 25.5226 16.7814C24.8323 18.2876 24.6231 20.5679 24.644 22.9945C24.644 22.9945 25.2925 31.7389 25.3552 35.0442C28.0539 34.9815 33.3465 35.2534 36.3171 37.973C37.7397 39.27 38.8066 40.2741 39.8525 40.9645C40.3964 39.7511 41.9236 37.3245 44.1829 36.3622Z" fill="#43C3DC"></path><path d="M57.5927 15.589C57.5927 15.589 57.007 15.6518 56.8815 15.8401C56.7769 16.0492 56.7141 15.9028 56.4003 16.9279C56.0865 17.9529 54.5385 19.9194 50.3127 20.1286C50.3127 20.1286 48.5973 20.547 47.8233 21.0072C47.8233 21.0072 47.1957 21.1955 47.0911 20.8189C47.0911 20.8189 46.1288 21.4465 45.5012 21.0909C45.5012 21.0909 45.4385 20.8608 45.7523 20.6725C46.066 20.5051 50.1244 18.8943 50.9194 17.6182C51.7143 16.3421 50.9403 17.5764 50.9403 17.5764C50.9403 17.5764 48.2208 17.6601 45.9824 12.5766C45.9824 12.5766 48.5346 13.6644 49.3086 13.7272C50.1035 13.7899 51.3796 14.292 51.3796 14.292C51.3796 14.292 49.9571 11.7189 51.3378 9.02026C51.3378 9.02026 52.1955 10.8821 52.844 11.2587C53.4925 11.6561 54.915 13.6435 54.6222 15.5263C54.6222 15.5263 55.2498 14.3966 56.1911 14.3966C56.1911 14.3966 56.9024 14.4384 57.0488 15.1915C57.0698 15.2125 57.3208 15.4844 57.5927 15.589Z" fill="#E9C3DC"></path></svg>