<svg xmlns="http://www.w3.org/2000/svg" width="101" height="80" viewBox="0 0 101 80" fill="none"><path fill-rule="evenodd" clip-rule="evenodd" d="M25.4102 75.3237V79.8961H26.4357V78.5897H27.3371C28.4998 78.5897 29.1595 77.9822 29.1595 76.9175C29.1595 75.8528 28.5063 75.3433 27.3371 75.3433L25.4102 75.3237ZM26.4357 76.1729H27.2848C27.8596 76.1729 28.1862 76.4276 28.1862 76.9306C28.1862 77.4335 27.8596 77.7144 27.2848 77.7144H26.4357V76.1729ZM35.6914 79.87H36.8606L35.8874 78.3676C36.1624 78.2385 36.3915 78.0287 36.5444 77.7662C36.6972 77.5037 36.7665 77.2008 36.743 76.8979C36.743 75.892 36.0899 75.3237 34.8749 75.3237H32.9153V79.8961H33.9474V78.5897H34.9664L35.6849 79.8961L35.6914 79.87ZM33.9278 77.7144V76.1729H34.8749C35.4432 76.1729 35.7633 76.4276 35.7633 76.9306C35.7633 77.4335 35.4432 77.7144 34.8749 77.7144H33.9278ZM44.1502 76.1729V75.3237H40.6883V79.8961H44.2221V79.0469H41.7138V78.041H43.9151V77.1853H41.7138V76.199L44.1502 76.1729ZM53.0533 79.87V75.2976H51.9102L50.6038 78.0802L49.2974 75.2976H48.1413V79.87H49.0753V76.8L50.2837 79.4127H50.9369L52.1453 76.8V79.87H53.0533ZM58.1678 79.87V75.2976H57.1749V79.87H58.1678ZM66.2869 75.2976H65.2549V77.943C65.2683 78.0811 65.2517 78.2205 65.2062 78.3515C65.1606 78.4826 65.0872 78.6022 64.991 78.7021C64.8947 78.8021 64.778 78.88 64.6488 78.9305C64.5196 78.981 64.3809 79.0029 64.2425 78.9947C64.1027 79.0035 63.9626 78.9822 63.8317 78.9323C63.7008 78.8824 63.5822 78.805 63.4837 78.7053C63.3853 78.6056 63.3094 78.486 63.2611 78.3545C63.2128 78.223 63.1933 78.0827 63.2039 77.943V75.2976H62.1718V77.943C62.1718 78.4887 62.3886 79.0121 62.7745 79.398C63.1603 79.7838 63.6837 80.0006 64.2294 80.0006C64.7751 80.0006 65.2984 79.7838 65.6843 79.398C66.0702 79.0121 66.2869 78.4887 66.2869 77.943V75.2976ZM75.2226 79.87V75.2976H74.0795L72.7731 78.0802L71.4668 75.2976H70.3171V79.87H71.2447V76.8L72.4531 79.4127H73.1063L74.3147 76.8V79.87H75.2226Z" fill="#F1A28A"></path><path fill-rule="evenodd" clip-rule="evenodd" d="M28.2305 48.6079H72.3993V15.3801L52.3398 2.06799L50.3149 0.722412L28.2305 15.3801V48.6079Z" fill="#F1A28A"></path><path fill-rule="evenodd" clip-rule="evenodd" d="M49.924 0.134618C50.046 0.0473866 50.1921 0.000488281 50.3421 0.000488281C50.492 0.000488281 50.6382 0.0473866 50.7601 0.134618L50.8058 0.16728L52.7328 1.441L72.7531 14.7269C72.867 14.7925 72.9607 14.8881 73.0241 15.0033C73.0874 15.1185 73.118 15.2488 73.1124 15.3801V48.608C73.1124 48.7975 73.0376 48.9792 72.9042 49.1138C72.7709 49.2484 72.5898 49.3248 72.4004 49.3265H28.2315C28.0421 49.3248 27.861 49.2484 27.7277 49.1138C27.5943 48.9792 27.5195 48.7975 27.5195 48.608V15.3801C27.5195 15.2623 27.5488 15.1463 27.6046 15.0426C27.6605 14.9388 27.7412 14.8506 27.8396 14.7857L49.924 0.134618ZM50.3159 1.57818L28.9435 15.7655V47.8961H71.6884V15.7655L51.9489 2.66247L50.3159 1.57818Z" fill="#5F372D"></path><path fill-rule="evenodd" clip-rule="evenodd" d="M24.2331 48.6929C24.2331 48.6929 24.0567 45.427 25.5395 43.3041C26.4948 41.9793 27.5635 40.7401 28.7336 39.6005C28.8511 39.4045 31.4182 40.737 31.4182 40.737C31.4182 40.737 32.6135 42.6966 34.6842 42.1479C36.7548 41.5992 37.2316 41.1485 37.2316 41.1485C39.335 41.6189 41.5164 41.6189 43.6198 41.1485C43.6198 41.1485 44.1097 41.6058 46.1673 42.1479C48.2248 42.6901 49.4332 40.737 49.4332 40.737C49.4332 40.737 52.0003 39.4307 52.1179 39.6005C53.289 40.741 54.3598 41.9801 55.3185 43.3041C56.8078 45.4466 56.6249 48.6929 56.6249 48.6929L54.0774 48.6537C53.9 47.7469 53.6012 46.868 53.1891 46.041C52.5032 44.6693 49.6749 44.4602 49.6945 44.2251C49.7141 43.9899 47.4606 44.1336 45.6839 44.813C43.9072 45.4923 44.2077 48.6603 44.2077 48.6603C44.2077 48.6603 42.3134 48.6603 40.4388 48.6276C38.5641 48.5949 36.6699 48.6603 36.6699 48.6603C36.6699 48.6603 36.9246 45.5184 35.174 44.8652C33.4235 44.212 31.1373 44.0422 31.1634 44.2773C31.1896 44.5125 28.3547 44.7215 27.6689 46.0932C27.2568 46.9203 26.958 47.7991 26.7805 48.706L24.2331 48.6929Z" fill="#F4F2F3"></path><path fill-rule="evenodd" clip-rule="evenodd" d="M40.4189 17.7186L41.9409 17.6271C42.2519 17.9293 42.6426 18.1365 43.0672 18.2244C43.4918 18.3124 43.9327 18.2774 44.3381 18.1236C45.5988 17.5292 46.1801 18.1236 46.1801 18.1236C46.1801 18.1236 48.8582 19.025 50.1972 20.2922C51.4263 21.462 52.4197 22.8568 53.1235 24.4007C54.0576 26.2036 53.9531 27.1638 54.6455 28.3199C55.3379 29.4761 55.0831 30.6453 55.0831 31.6185C55.0831 32.5918 53.9727 37.5822 52.7773 38.7383C52.1194 39.4075 51.2622 39.8453 50.3344 39.9859C50.3344 39.9859 47.5649 42.259 46.6112 42.1937C45.6433 41.9821 44.7151 41.6184 43.8613 41.1159H36.9766C36.1227 41.6184 35.1945 41.9821 34.2267 42.1937C33.273 42.259 30.5035 39.9859 30.5035 39.9859C29.5756 39.8453 28.7184 39.4075 28.0605 38.7383C26.8652 37.5822 25.7548 32.5852 25.7548 31.6185C25.7548 30.6518 25.5 29.4695 26.1924 28.3199C26.8848 27.1703 26.7803 26.2036 27.7143 24.4007C28.4181 22.8551 29.414 21.46 30.6472 20.2922C31.9536 19.025 34.6578 18.1236 34.6578 18.1236C34.6578 18.1236 35.0301 17.4704 36.2908 18.0582C37.5514 18.6461 38.9035 17.5945 38.9035 17.5945L40.4189 17.7186Z" fill="#F4F2F3"></path><path fill-rule="evenodd" clip-rule="evenodd" d="M35.5811 27.0853C34.8692 23.6168 30.7802 23.0485 29.5064 24.8905C28.8143 26.2921 28.2355 27.7468 27.7755 29.2408C27.5011 30.1944 26.9916 31.4878 27.9845 31.9711C28.9774 32.4545 29.9441 33.0228 30.7736 32.2912L31.6293 31.5531L32.6614 29.9854L31.6293 31.5531L35.5811 27.0853Z" fill="#888885"></path><path fill-rule="evenodd" clip-rule="evenodd" d="M43.8617 41.1486C43.8617 41.1486 47.0363 42.5137 47.2322 42.3178C47.4282 42.1218 47.3433 42.2655 47.8854 41.9389C48.8143 41.0551 49.6685 40.096 50.4394 39.0714C50.5308 38.9342 51.478 36.0928 51.2232 35.0543C50.9685 34.0157 50.3088 32.3501 50.0671 32.2913C49.1247 31.8262 48.359 31.0674 47.8854 30.1292L47.2322 28.8228C47.2322 28.8228 44.0381 26.3668 42.0785 26.0467C40.8113 25.8377 40.4913 25.8965 40.4194 25.9684C40.3476 25.8965 40.0275 25.8377 38.7603 26.0467C36.8007 26.3668 33.6066 28.8228 33.6066 28.8228L32.9534 30.1292C32.4798 31.0674 31.7142 31.8262 30.7718 32.2913C30.5301 32.3501 29.8704 34.0222 29.6156 35.0543C29.3609 36.0863 30.308 38.9342 30.3995 39.0714C31.1703 40.096 32.0246 41.0551 32.9534 41.9389C33.4956 42.2655 33.4107 42.1283 33.6066 42.3178C33.8026 42.5072 36.9771 41.1486 36.9771 41.1486L40.4194 41.3053L43.8617 41.1486Z" fill="#C3C0BD"></path><path fill-rule="evenodd" clip-rule="evenodd" d="M31.877 18.7376C31.877 18.7376 28.8331 17.0066 27.0826 17.2809C25.919 17.4987 24.8094 17.9425 23.8166 18.5873C23.8166 18.5873 22.9609 23.3164 22.9609 24.355C22.9609 25.3936 22.9609 26.4518 23.3333 26.3603C23.7056 26.2689 27.5072 23.8913 27.5072 23.8913L29.1401 21.4222L31.877 18.7376Z" fill="#C3C0BD"></path><path fill-rule="evenodd" clip-rule="evenodd" d="M48.9629 18.7376C48.9629 18.7376 52.0068 17.0066 53.7573 17.2809C54.9209 17.4987 56.0305 17.9425 57.0233 18.5873C57.0233 18.5873 57.879 23.3164 57.879 24.355C57.879 25.3936 57.879 26.4518 57.5132 26.3603C57.1474 26.2689 53.3327 23.8913 53.3327 23.8913L51.6998 21.4222L48.9629 18.7376Z" fill="#C3C0BD"></path><path fill-rule="evenodd" clip-rule="evenodd" d="M35.5655 27.0853C34.8535 23.6168 30.7645 23.0485 29.4908 24.8905C28.7987 26.2921 28.2199 27.7468 27.7599 29.2408C27.4855 30.1944 26.976 31.4878 27.9689 31.9711C28.9617 32.4545 29.9285 33.0228 30.758 32.2912L31.6072 31.5531L32.6457 29.9854L31.6072 31.5531L32.7894 30.2467C33.3011 29.5327 33.888 28.8758 34.54 28.2871L35.5655 27.0853Z" fill="#C3C0BD"></path><path fill-rule="evenodd" clip-rule="evenodd" d="M45.2734 27.0853C45.9854 23.6168 50.0744 23.0485 51.3481 24.8905C52.0403 26.2921 52.6191 27.7468 53.0791 29.2408C53.36 30.1944 53.8629 31.4878 52.8701 31.9711C51.8772 32.4545 50.9105 33.0228 50.0809 32.2912L49.2253 31.5531L48.1932 29.9854L49.2253 31.5531L47.749 29.8809C47.1408 28.9076 46.3748 28.0423 45.4825 27.3204L45.2734 27.0853Z" fill="#C3C0BD"></path><path fill-rule="evenodd" clip-rule="evenodd" d="M32.0318 24.969C32.8013 24.9687 33.5441 25.2515 34.1186 25.7634C34.6931 26.2753 35.0594 26.9806 35.1475 27.7451C33.9309 28.7154 32.9016 29.8997 32.1102 31.2396H32.0318C31.2003 31.2396 30.4028 30.9093 29.8148 30.3213C29.2268 29.7333 28.8965 28.9359 28.8965 28.1043C28.8965 27.2728 29.2268 26.4753 29.8148 25.8873C30.4028 25.2993 31.2003 24.969 32.0318 24.969Z" fill="#FEFEFE"></path><path fill-rule="evenodd" clip-rule="evenodd" d="M32.0331 25.8506C32.3296 25.8497 32.6233 25.9074 32.8975 26.0203C33.1717 26.1331 33.4209 26.299 33.6308 26.5083C33.8408 26.7177 34.0073 26.9664 34.121 27.2402C34.2347 27.514 34.2932 27.8076 34.2932 28.1041C34.2934 28.2401 34.2803 28.3757 34.254 28.5091C33.7135 29.0388 33.2216 29.6159 32.7843 30.2335C32.5433 30.3202 32.2892 30.3644 32.0331 30.3642C31.4556 30.3331 30.9119 30.0818 30.5141 29.6619C30.1163 29.2421 29.8945 28.6858 29.8945 28.1074C29.8945 27.529 30.1163 26.9726 30.5141 26.5528C30.9119 26.133 31.4556 25.8817 32.0331 25.8506Z" fill="#5F372D"></path><path fill-rule="evenodd" clip-rule="evenodd" d="M31.2489 26.5039C31.3684 26.5116 31.483 26.554 31.5787 26.6259C31.6744 26.6979 31.7469 26.7962 31.7875 26.9089C31.828 27.0215 31.8347 27.1435 31.8068 27.26C31.7788 27.3764 31.7175 27.4821 31.6302 27.5641C31.543 27.6461 31.4337 27.7008 31.3158 27.7214C31.1979 27.7421 31.0765 27.7279 30.9666 27.6805C30.8566 27.6331 30.763 27.5546 30.6971 27.4546C30.6312 27.3547 30.5959 27.2377 30.5957 27.1179C30.5955 27.0339 30.6126 26.9507 30.6459 26.8736C30.6792 26.7964 30.7279 26.7269 30.7892 26.6693C30.8504 26.6117 30.9228 26.5674 31.0019 26.5389C31.081 26.5105 31.165 26.4986 31.2489 26.5039Z" fill="#FEFEFE"></path><path fill-rule="evenodd" clip-rule="evenodd" d="M48.8057 24.969C48.0747 24.9685 47.3664 25.2235 46.8035 25.6898C46.2405 26.1562 45.8582 26.8046 45.7227 27.523C46.9008 28.5125 47.8125 29.7813 48.3746 31.2135C48.5118 31.2135 48.6555 31.2135 48.8057 31.2135C49.6373 31.2135 50.4347 30.8832 51.0227 30.2952C51.6107 29.7072 51.9411 28.9097 51.9411 28.0782C51.9411 27.2467 51.6107 26.4492 51.0227 25.8612C50.4347 25.2732 49.6373 24.9429 48.8057 24.9429V24.969Z" fill="#FEFEFE"></path><path fill-rule="evenodd" clip-rule="evenodd" d="M48.8069 25.8506C48.5104 25.8497 48.2167 25.9074 47.9425 26.0203C47.6684 26.1331 47.4192 26.299 47.2092 26.5083C46.9993 26.7177 46.8327 26.9664 46.719 27.2402C46.6054 27.514 46.5469 27.8076 46.5469 28.1041C46.5469 28.1825 46.5469 28.2543 46.5469 28.3262C47.0744 28.8862 47.5308 29.5093 47.9055 30.1813C48.2126 30.3104 48.5445 30.3699 48.8773 30.3554C49.2101 30.341 49.5355 30.2529 49.8302 30.0975C50.1249 29.9422 50.3815 29.7235 50.5815 29.4571C50.7815 29.1907 50.92 28.8832 50.9869 28.5569C51.0538 28.2306 51.0476 27.8935 50.9686 27.5698C50.8896 27.2462 50.7399 26.9441 50.5302 26.6853C50.3204 26.4265 50.0559 26.2174 49.7557 26.073C49.4555 25.9287 49.127 25.8527 48.7939 25.8506H48.8069Z" fill="#5F372D"></path><path fill-rule="evenodd" clip-rule="evenodd" d="M48.0879 26.5039C47.9668 26.5052 47.8487 26.5423 47.7486 26.6106C47.6485 26.6788 47.5708 26.7752 47.5254 26.8875C47.4799 26.9998 47.4686 27.123 47.4931 27.2417C47.5175 27.3604 47.5765 27.4691 47.6626 27.5544C47.7487 27.6396 47.8581 27.6974 47.9771 27.7206C48.096 27.7438 48.2191 27.7312 48.3309 27.6846C48.4427 27.6379 48.5382 27.5592 48.6054 27.4584C48.6726 27.3575 48.7085 27.2391 48.7085 27.1179C48.7085 27.0368 48.6924 26.9564 48.6611 26.8815C48.6299 26.8065 48.584 26.7386 48.5263 26.6815C48.4686 26.6244 48.4002 26.5793 48.3249 26.5488C48.2497 26.5183 48.1691 26.5031 48.0879 26.5039Z" fill="#FEFEFE"></path><path fill-rule="evenodd" clip-rule="evenodd" d="M38.5446 25.5308C38.7178 25.49 38.9001 25.5198 39.0514 25.6135C39.2027 25.7072 39.3105 25.8572 39.3513 26.0304C39.392 26.2037 39.3622 26.386 39.2685 26.5373C39.1748 26.6886 39.0248 26.7964 38.8516 26.8371C37.8726 27.0908 36.9338 27.4799 36.0624 27.9933C35.3142 28.4013 34.6495 28.9464 34.1029 29.6001C33.4184 30.4975 32.7923 31.4379 32.2282 32.4154C32.1872 32.4928 32.1311 32.5611 32.0632 32.6163C31.9953 32.6716 31.9169 32.7126 31.8328 32.737C31.7488 32.7614 31.6606 32.7686 31.5737 32.7582C31.4868 32.7479 31.4028 32.7201 31.3268 32.6767C31.25 32.6351 31.1823 32.5786 31.1277 32.5104C31.0731 32.4423 31.0327 32.3638 31.009 32.2798C30.9852 32.1958 30.9786 32.1078 30.9894 32.0211C31.0002 31.9345 31.0283 31.8509 31.072 31.7753C31.662 30.738 32.3164 29.7388 33.0316 28.7837C33.6821 27.9929 34.4725 27.3286 35.3635 26.8241C36.3481 26.2416 37.4103 25.8017 38.5184 25.5177L38.5446 25.5308ZM41.9869 26.8371C41.9011 26.8166 41.8202 26.7793 41.7489 26.7274C41.6775 26.6756 41.617 26.6102 41.5709 26.535C41.5248 26.4598 41.494 26.3762 41.4802 26.2891C41.4664 26.202 41.4699 26.113 41.4905 26.0272C41.5111 25.9414 41.5483 25.8605 41.6002 25.7891C41.652 25.7178 41.7174 25.6573 41.7926 25.6112C41.8679 25.5651 41.9514 25.5343 42.0385 25.5205C42.1257 25.5067 42.2146 25.5102 42.3004 25.5308C43.4061 25.816 44.466 26.2558 45.4488 26.8371C46.3411 27.3398 47.1319 28.0043 47.7807 28.7967C48.4959 29.7519 49.1504 30.7511 49.7403 31.7883C49.784 31.8639 49.8121 31.9476 49.8229 32.0342C49.8338 32.1209 49.8271 32.2088 49.8033 32.2929C49.7796 32.3769 49.7392 32.4553 49.6847 32.5235C49.6301 32.5917 49.5624 32.6482 49.4855 32.6897C49.4095 32.7332 49.3256 32.7609 49.2386 32.7713C49.1517 32.7817 49.0636 32.7744 48.9795 32.7501C48.8954 32.7257 48.8171 32.6847 48.7492 32.6294C48.6812 32.5742 48.6251 32.5058 48.5841 32.4285C48.0255 31.4401 47.4037 30.4888 46.7225 29.5806C46.1759 28.9268 45.5112 28.3817 44.763 27.9737C43.8957 27.4615 42.9614 27.0724 41.9869 26.8175V26.8371Z" fill="#5F372D"></path><path fill-rule="evenodd" clip-rule="evenodd" d="M37.9238 36.1647C37.9238 36.1647 39.0865 39.0845 39.9683 39.189C40.8501 39.2935 42.0455 38.2484 42.1239 38.2288C42.2977 37.877 42.4314 37.5067 42.5223 37.1249C42.5811 36.9159 42.8816 35.7859 42.8816 35.7859L40.1904 35.2241L37.9238 36.1647Z" fill="#F3A38F"></path><path fill-rule="evenodd" clip-rule="evenodd" d="M41.0872 30.9653V30.7694V30.7237V30.6518V30.6191H41.0153H40.1923H40.1205V30.6518V30.7237V30.7694V34.4534C38.8641 34.6438 37.727 35.3046 36.9394 36.3019L36.7631 36.5109C35.5053 37.4425 33.9778 37.9379 32.4128 37.9218C31.3677 37.8043 32.4128 38.9735 33.6408 38.9735C35.2145 38.9184 36.7153 38.2968 37.867 37.2229C37.9888 37.7581 38.2104 38.2656 38.5202 38.7187C38.7693 39.0973 39.1033 39.4124 39.4957 39.6392C39.888 39.866 40.3278 39.9981 40.7802 40.0251H40.8847C41.2735 40.021 41.6567 39.933 42.0084 39.7673C42.3601 39.6016 42.672 39.3621 42.9227 39.0649C43.3565 38.5439 43.6449 37.9174 43.7588 37.249C44.8972 38.3007 46.377 38.9061 47.9261 38.9539C49.1802 38.9539 50.1992 37.7847 49.1541 37.9022C47.5891 37.9183 46.0616 37.4229 44.8039 36.4913L44.6275 36.2823C43.84 35.285 42.7029 34.6242 41.4465 34.4338V30.9457L41.0872 30.9653ZM36.4495 33.5324C36.5787 33.5324 36.705 33.5707 36.8124 33.6425C36.9198 33.7142 37.0036 33.8163 37.053 33.9356C37.1024 34.055 37.1154 34.1863 37.0902 34.313C37.065 34.4397 37.0028 34.5561 36.9114 34.6474C36.8201 34.7388 36.7037 34.801 36.577 34.8262C36.4503 34.8514 36.3189 34.8385 36.1996 34.789C36.0802 34.7396 35.9782 34.6559 35.9064 34.5485C35.8347 34.441 35.7963 34.3148 35.7963 34.1856C35.7963 34.0123 35.8652 33.8462 35.9877 33.7237C36.1102 33.6012 36.2763 33.5324 36.4495 33.5324ZM44.3923 33.5324C44.5215 33.5324 44.6478 33.5707 44.7552 33.6425C44.8627 33.7142 44.9464 33.8163 44.9958 33.9356C45.0453 34.055 45.0582 34.1863 45.033 34.313C45.0078 34.4397 44.9456 34.5561 44.8542 34.6474C44.7629 34.7388 44.6465 34.801 44.5198 34.8262C44.3931 34.8514 44.2617 34.8385 44.1424 34.789C44.023 34.7396 43.921 34.6559 43.8492 34.5485C43.7775 34.441 43.7392 34.3148 43.7392 34.1856C43.7392 34.0123 43.808 33.8462 43.9305 33.7237C44.053 33.6012 44.2191 33.5324 44.3923 33.5324ZM45.8816 32.2978C46.0108 32.2978 46.1371 32.3362 46.2445 32.4079C46.3519 32.4797 46.4357 32.5817 46.4851 32.7011C46.5345 32.8204 46.5475 32.9518 46.5223 33.0785C46.4971 33.2052 46.4349 33.3216 46.3435 33.4129C46.2522 33.5043 46.1358 33.5665 46.0091 33.5917C45.8824 33.6169 45.751 33.6039 45.6317 33.5545C45.5123 33.5051 45.4103 33.4213 45.3385 33.3139C45.2667 33.2065 45.2284 33.0802 45.2284 32.951C45.2284 32.7778 45.2973 32.6117 45.4198 32.4892C45.5423 32.3667 45.7084 32.2978 45.8816 32.2978ZM46.7177 34.1594C46.8469 34.1594 46.9732 34.1978 47.0806 34.2695C47.188 34.3413 47.2717 34.4433 47.3212 34.5627C47.3706 34.682 47.3836 34.8134 47.3584 34.9401C47.3331 35.0668 47.2709 35.1832 47.1796 35.2745C47.0882 35.3659 46.9719 35.4281 46.8451 35.4533C46.7184 35.4785 46.5871 35.4655 46.4677 35.4161C46.3484 35.3667 46.2464 35.2829 46.1746 35.1755C46.1028 35.0681 46.0645 34.9418 46.0645 34.8126C46.0645 34.6394 46.1333 34.4733 46.2558 34.3508C46.3783 34.2283 46.5445 34.1594 46.7177 34.1594ZM34.9602 32.2978C35.0894 32.2978 35.2157 32.3362 35.3231 32.4079C35.4306 32.4797 35.5143 32.5817 35.5637 32.7011C35.6132 32.8204 35.6261 32.9518 35.6009 33.0785C35.5757 33.2052 35.5135 33.3216 35.4221 33.4129C35.3308 33.5043 35.2144 33.5665 35.0877 33.5917C34.961 33.6169 34.8296 33.6039 34.7103 33.5545C34.5909 33.5051 34.4889 33.4213 34.4171 33.3139C34.3454 33.2065 34.3071 33.0802 34.3071 32.951C34.3071 32.7778 34.3759 32.6117 34.4984 32.4892C34.6209 32.3667 34.787 32.2978 34.9602 32.2978ZM34.1242 34.1594C34.2534 34.1594 34.3796 34.1978 34.4871 34.2695C34.5945 34.3413 34.6782 34.4433 34.7276 34.5627C34.7771 34.682 34.79 34.8134 34.7648 34.9401C34.7396 35.0668 34.6774 35.1832 34.586 35.2745C34.4947 35.3659 34.3783 35.4281 34.2516 35.4533C34.1249 35.4785 33.9936 35.4655 33.8742 35.4161C33.7548 35.3667 33.6528 35.2829 33.5811 35.1755C33.5093 35.0681 33.471 34.9418 33.471 34.8126C33.471 34.6394 33.5398 34.4733 33.6623 34.3508C33.7848 34.2283 33.9509 34.1594 34.1242 34.1594ZM38.6965 36.1843C39.1206 35.9434 39.5898 35.7922 40.0748 35.7402L40.4013 37.6214L40.6626 35.7336C41.1725 35.779 41.6669 35.9327 42.1127 36.1843V36.3738C42.1284 37.0383 41.9164 37.6883 41.5118 38.2158C41.3884 38.3636 41.2348 38.4833 41.0613 38.5667C40.8878 38.65 40.6983 38.6952 40.5059 38.6991H40.4536C40.2114 38.6781 39.9776 38.6003 39.771 38.4721C39.5645 38.3438 39.3911 38.1688 39.2648 37.961C38.922 37.4413 38.7257 36.8389 38.6965 36.217V36.1843ZM37.5142 40.3974C38.8598 40.5215 40.2054 40.5085 40.3752 40.5085H40.4275C40.5973 40.5085 41.9429 40.5085 43.2885 40.3974L45.248 41.3837C43.653 41.7052 42.0283 41.8563 40.4013 41.8345C38.7744 41.8563 37.1497 41.7052 35.5547 41.3837L37.5142 40.3974Z" fill="#5F372D"></path><path fill-rule="evenodd" clip-rule="evenodd" d="M38.3816 28.1239C38.3816 27.9507 38.4504 27.7845 38.5729 27.662C38.6954 27.5395 38.8615 27.4707 39.0347 27.4707C39.208 27.4707 39.3741 27.5395 39.4966 27.662C39.6191 27.7845 39.6879 27.9507 39.6879 28.1239V29.0776C39.6879 29.2508 39.6191 29.4169 39.4966 29.5394C39.3741 29.6619 39.208 29.7308 39.0347 29.7308H38.9564C38.3019 29.6556 37.6395 29.6909 36.9968 29.8353C36.5723 29.9254 36.1601 30.0657 35.7688 30.2533C35.3995 30.4282 35.0529 30.6476 34.7367 30.9065C32.9143 32.4742 32.3918 32.5787 31.6733 32.7158C31.5426 32.7158 31.412 32.742 31.2814 32.7942C30.8962 33.3073 30.6549 33.9139 30.5824 34.5513C30.3489 35.6295 30.3668 36.7471 30.6347 37.8173C30.7519 38.2841 30.9509 38.7264 31.2226 39.1237C31.7779 40.0363 32.519 40.8219 33.3977 41.4294C33.6307 41.5707 33.8918 41.6592 34.1627 41.6885C34.4335 41.7179 34.7076 41.6874 34.9654 41.5993C35.4166 41.4512 35.8538 41.2632 36.2717 41.0375C35.7361 40.5084 35.5075 39.8422 35.6186 39.7311C35.7296 39.6201 36.6637 40.1753 38.0027 40.4235C38.0027 40.4235 39.198 41.8017 37.6892 41.7299C36.9636 42.2223 36.1719 42.6094 35.3377 42.8795C34.8979 43.0361 34.4288 43.0927 33.9644 43.0453C33.5 42.9978 33.0521 42.8475 32.6531 42.6052C31.5994 41.9029 30.7085 40.983 30.0403 39.9075C29.6836 39.389 29.4205 38.812 29.263 38.2027C28.9464 36.938 28.9218 35.6179 29.1911 34.3423C29.3106 33.3572 29.7514 32.4389 30.4453 31.7295C30.5549 31.6594 30.6736 31.6044 30.798 31.5662C31.0266 31.5074 31.1834 31.4748 31.3336 31.4487C31.8496 31.3507 32.2285 31.2723 33.7766 29.9463C34.1712 29.5978 34.6105 29.3034 35.0829 29.071C35.5696 28.8362 36.0828 28.6607 36.6114 28.5485C37.1693 28.428 37.739 28.371 38.3097 28.3786L38.3816 28.1239Z" fill="#5F372D"></path><path fill-rule="evenodd" clip-rule="evenodd" d="M41.1316 28.15C41.1316 27.9768 41.2004 27.8106 41.3229 27.6881C41.4454 27.5656 41.6116 27.4968 41.7848 27.4968C41.958 27.4968 42.1242 27.5656 42.2467 27.6881C42.3692 27.8106 42.438 27.9768 42.438 28.15V28.4113C43.0087 28.4036 43.5784 28.4606 44.1363 28.5811C44.6649 28.6934 45.1781 28.8688 45.6648 29.1037C46.1372 29.3361 46.5765 29.6304 46.9711 29.979C48.5192 31.2853 48.8981 31.3833 49.4141 31.4813C49.5643 31.4813 49.7211 31.5401 49.9497 31.5989C50.0741 31.6371 50.1928 31.692 50.3024 31.7622C50.9963 32.4716 51.4371 33.3898 51.5565 34.3749C51.8259 35.6505 51.8013 36.9706 51.4847 38.2353C51.3271 38.8446 51.0641 39.4216 50.7074 39.9401C50.0409 41.0171 49.1497 41.9373 48.0946 42.6378C47.6956 42.8801 47.2477 43.0305 46.7833 43.0779C46.3189 43.1254 45.8498 43.0687 45.41 42.9122C44.5758 42.642 43.7841 42.255 43.0585 41.7625C41.5496 41.854 42.745 40.4562 42.745 40.4562C44.0514 40.2079 44.9201 39.5809 45.1291 39.7638C45.3382 39.9467 45.0246 40.5345 44.4759 41.0702C44.8939 41.2958 45.3311 41.4838 45.7823 41.6319C46.0468 41.7292 46.3297 41.7656 46.6102 41.7385C46.8906 41.7113 47.1614 41.6213 47.4022 41.4751C48.2772 40.8653 49.0157 40.0801 49.5708 39.1694C49.8425 38.7721 50.0416 38.3298 50.1587 37.863C50.4266 36.7928 50.4445 35.6753 50.211 34.597C50.1385 33.9596 49.8972 33.353 49.5121 32.8399C49.3814 32.8051 49.2508 32.779 49.1201 32.7616C48.4082 32.6244 47.8791 32.5199 46.0567 30.9522C45.7405 30.6933 45.3939 30.474 45.0246 30.299C44.6333 30.1114 44.2211 29.9711 43.7966 29.881C43.1539 29.7366 42.4915 29.7013 41.8371 29.7765H41.7587C41.5854 29.7765 41.4193 29.7076 41.2968 29.5851C41.1743 29.4626 41.1055 29.2965 41.1055 29.1233L41.1316 28.15Z" fill="#5F372D"></path><path fill-rule="evenodd" clip-rule="evenodd" d="M37.6171 29.1102C37.605 29.2835 37.5246 29.4448 37.3935 29.5587C37.2624 29.6726 37.0915 29.7298 36.9182 29.7177C36.745 29.7056 36.5837 29.6251 36.4697 29.494C36.3558 29.363 36.2986 29.192 36.3108 29.0188C36.2798 28.0563 36.582 27.1126 37.1664 26.3472C37.7739 25.694 38.7537 25.3152 40.4324 25.3152C42.1111 25.3152 43.0974 25.6744 43.6984 26.3472C44.2828 27.1126 44.585 28.0563 44.554 29.0188C44.5662 29.192 44.509 29.363 44.3951 29.494C44.2811 29.6251 44.1198 29.7056 43.9466 29.7177C43.7733 29.7298 43.6024 29.6726 43.4713 29.5587C43.3402 29.4448 43.2598 29.2835 43.2477 29.1102C43.2779 28.4495 43.0996 27.796 42.7382 27.2421C42.3854 26.8567 41.7061 26.6477 40.4455 26.6477C39.1848 26.6477 38.4859 26.8567 38.1528 27.2421C37.7821 27.7929 37.5947 28.4467 37.6171 29.1102Z" fill="#5F372D"></path><path fill-rule="evenodd" clip-rule="evenodd" d="M31.0466 19.0509C30.3593 18.572 29.5848 18.2324 28.7669 18.0515C27.6137 17.965 26.4544 18.098 25.3507 18.4434C24.7367 18.6525 24.2599 18.9399 24.2077 19.3056C24.1685 19.5669 24.1489 19.7302 24.1162 19.9588C23.8811 21.52 23.463 24.5312 23.6133 25.6808C24.0313 25.4261 24.5343 25.0276 25.0307 24.6814C25.7633 24.0469 26.5952 23.5372 27.4932 23.1725C28.2947 21.5172 29.5208 20.1039 31.0466 19.077V19.0509ZM29.1589 40.456C27.9766 41.3182 24.7498 44.1008 25.0241 48.5034C25.0343 48.595 25.0249 48.6877 24.9967 48.7754C24.9684 48.8632 24.9219 48.9439 24.8602 49.0124C24.7985 49.0809 24.723 49.1355 24.6387 49.1728C24.5544 49.21 24.4631 49.2289 24.371 49.2284C24.1877 49.2373 24.0082 49.1739 23.8714 49.0517C23.7345 48.9294 23.6512 48.7583 23.6394 48.5752C23.352 43.9245 26.4285 40.861 27.9831 39.6199C27.4952 39.2135 27.0933 38.7139 26.8008 38.1502C25.976 36.428 25.4146 34.5916 25.1352 32.7026C24.8566 31.285 25.0043 29.8167 25.5598 28.483C25.7769 27.97 25.9559 27.4416 26.0954 26.9023C26.2587 26.3536 26.4416 25.7265 26.6702 25.0733L25.808 25.7265C25.212 26.2113 24.5786 26.6481 23.9137 27.0329H23.8615C23.7457 27.1104 23.6136 27.16 23.4754 27.1778C23.3372 27.1957 23.1968 27.1812 23.0652 27.1357C22.9335 27.0901 22.8142 27.0146 22.7167 26.9152C22.6191 26.8158 22.5459 26.6951 22.5028 26.5626C21.9345 25.4326 22.5028 21.6114 22.7902 19.7368C22.8294 19.4493 22.8686 19.1946 22.8751 19.1227C23.0123 18.156 23.8484 17.5486 24.9066 17.1632C26.1951 16.7661 27.5464 16.6132 28.891 16.7125C30.0929 16.8366 31.654 17.836 32.3334 18.3063C36.0566 16.5622 45.1033 16.6929 48.5456 18.3063C49.1988 17.836 50.7861 16.8366 51.9879 16.7125C53.3326 16.6132 54.6839 16.7661 55.9724 17.1632C57.0306 17.529 57.8667 18.1364 58.0038 19.1227C58.0038 19.1946 58.0496 19.4493 58.0953 19.7368C58.3696 21.6114 58.9444 25.4326 58.3762 26.5626C58.3331 26.6951 58.2599 26.8158 58.1623 26.9152C58.0647 27.0146 57.9454 27.0901 57.8138 27.1357C57.6822 27.1812 57.5418 27.1957 57.4036 27.1778C57.2654 27.16 57.1333 27.1104 57.0175 27.0329H56.9653C56.3004 26.6481 55.667 26.2113 55.071 25.7265L54.2088 25.0733C54.4374 25.7265 54.6203 26.3797 54.7836 26.9023C54.923 27.4416 55.1021 27.97 55.3192 28.483C55.8746 29.8167 56.0224 31.285 55.7438 32.7026C55.4644 34.5916 54.9029 36.428 54.0781 38.1502C53.7857 38.7139 53.3838 39.2135 52.8959 39.6199C54.4505 40.861 57.527 43.9245 57.2396 48.5752C57.2295 48.7577 57.1476 48.9289 57.0117 49.0512C56.8759 49.1736 56.6972 49.2373 56.5146 49.2284C56.4224 49.2289 56.3311 49.21 56.2468 49.1728C56.1625 49.1355 56.087 49.0809 56.0253 49.0124C55.9636 48.9439 55.9171 48.8632 55.8888 48.7754C55.8606 48.6877 55.8512 48.595 55.8614 48.5034C56.1357 44.1008 52.9089 41.3182 51.7267 40.456C50.9806 40.8974 50.1846 41.2482 49.3556 41.5011C49.272 41.527 49.184 41.5358 49.0969 41.5271C49.0098 41.5183 48.9254 41.4921 48.8486 41.4501C48.7718 41.408 48.7043 41.351 48.65 41.2823C48.5957 41.2137 48.5558 41.1348 48.5325 41.0504C48.5068 40.9664 48.4982 40.878 48.5074 40.7906C48.5166 40.7031 48.5433 40.6185 48.586 40.5416C48.6287 40.4648 48.6865 40.3973 48.7559 40.3433C48.8252 40.2893 48.9048 40.2499 48.9898 40.2274C48.9898 40.2274 51.9814 39.3783 52.9089 37.5624C53.6691 35.972 54.1865 34.2766 54.4439 32.5328C54.6812 31.3811 54.5791 30.1853 54.15 29.0905C53.8815 28.5092 53.6629 27.9061 53.4968 27.2877C51.596 20.8015 48.2713 18.6198 42.8302 18.4108C41.8634 18.3716 39.2376 18.4108 38.2252 18.4108C32.5751 18.5871 29.3548 20.4487 27.356 27.255C27.1899 27.8734 26.9714 28.4765 26.7028 29.0578C26.2738 30.1526 26.1717 31.3484 26.4089 32.5001C26.6664 34.244 27.1838 35.9393 27.9439 37.5297C28.8519 39.3456 31.8631 40.1947 31.8631 40.1947C31.9481 40.2173 32.0276 40.2567 32.097 40.3107C32.1664 40.3647 32.2241 40.4321 32.2668 40.5089C32.3095 40.5858 32.3363 40.6705 32.3455 40.7579C32.3546 40.8453 32.3461 40.9337 32.3203 41.0178C32.2971 41.1022 32.2571 41.181 32.2029 41.2497C32.1486 41.3183 32.081 41.3754 32.0042 41.4174C31.9275 41.4595 31.843 41.4856 31.7559 41.4944C31.6689 41.5032 31.5809 41.4944 31.4973 41.4685C30.6682 41.2155 29.8722 40.8647 29.1262 40.4234L29.1589 40.456ZM49.8651 19.0509C51.3891 20.078 52.6131 21.4913 53.4119 23.1464C54.3099 23.5111 55.1418 24.0208 55.8744 24.6553C56.3774 25.0276 56.8738 25.3999 57.2919 25.6547C57.4747 24.5181 57.0241 21.4938 56.7889 19.9327C56.7889 19.7302 56.7366 19.5669 56.6975 19.2795C56.6452 18.9137 56.1749 18.6263 55.5544 18.4173C54.4507 18.0718 53.2914 17.9388 52.1382 18.0254C51.3085 18.209 50.5244 18.5578 49.8324 19.0509H49.8651Z" fill="#5F372D"></path><path fill-rule="evenodd" clip-rule="evenodd" d="M20.4528 47.9089H60.389C60.5738 47.9106 60.7506 47.9848 60.8813 48.1155C61.012 48.2462 61.0862 48.423 61.0879 48.6078C61.0863 48.7933 61.0123 48.9708 60.8818 49.1025C60.7512 49.2343 60.5744 49.3099 60.389 49.3133H20.4528C20.2674 49.3099 20.0906 49.2343 19.9601 49.1025C19.8295 48.9708 19.7556 48.7933 19.7539 48.6078C19.7556 48.423 19.8298 48.2462 19.9605 48.1155C20.0912 47.9848 20.268 47.9106 20.4528 47.9089Z" fill="#5F372D"></path><path fill-rule="evenodd" clip-rule="evenodd" d="M27.0488 47.857C27.0488 47.857 27.898 45.303 29.8967 44.7282C31.8955 44.1534 35.4815 44.4212 36.0041 45.4532C36.5267 46.4853 36.8075 49.3724 36.592 49.6075C36.3764 49.8427 36.9578 49.4965 36.3372 49.8753L35.684 50.2477C34.7939 50.6714 33.8276 50.9113 32.8426 50.9531C31.9007 50.8622 30.9994 50.5242 30.2299 49.9733L29.8772 48.9805L30.452 48.9151C30.3355 48.5718 30.198 48.2358 30.0405 47.9092H27.1925L27.0488 47.857Z" fill="#F0EDEA"></path><path fill-rule="evenodd" clip-rule="evenodd" d="M36.3824 46.6745C36.6437 47.9025 36.7417 49.4375 36.5914 49.6073C36.4412 49.7772 36.9572 49.4963 36.3367 49.8751L35.6835 50.2475C34.7934 50.6711 33.827 50.9111 32.8421 50.9529C31.9001 50.862 30.9988 50.524 30.2293 49.9731L29.8766 48.9803L30.4514 48.9149C30.3349 48.5715 30.1975 48.2356 30.0399 47.909H29.3867C29.7067 47.4145 30.1193 46.9864 30.6017 46.6484C31.6337 46.0605 35.0303 45.7208 35.6704 46.1977C35.8925 46.3087 36.1211 46.472 36.3824 46.6745Z" fill="#C3C0BD"></path><path fill-rule="evenodd" clip-rule="evenodd" d="M27.6311 48.2095C27.6079 48.2939 27.5679 48.3728 27.5136 48.4414C27.4593 48.5101 27.3918 48.5671 27.315 48.6092C27.2383 48.6512 27.1538 48.6774 27.0667 48.6862C26.9796 48.6949 26.8917 48.6861 26.8081 48.6602C26.7237 48.637 26.6448 48.5971 26.5761 48.5428C26.5075 48.4885 26.4504 48.4209 26.4084 48.3442C26.3664 48.2674 26.3402 48.183 26.3314 48.0959C26.3226 48.0088 26.3315 47.9208 26.3574 47.8372C26.3574 47.8372 27.1804 45.0154 28.8983 44.212L29.153 44.1009C30.4069 43.6443 31.7393 43.4422 33.0722 43.5065C34.6856 43.6045 36.2532 44.1924 36.9913 45.7535C36.9913 45.8254 37.0567 45.8907 37.0828 45.956C37.736 47.5759 37.8078 48.621 37.5596 49.3853C37.2726 50.1295 36.7084 50.7335 35.9854 51.0705C35.6381 51.2643 35.2639 51.4052 34.875 51.4885C33.9514 51.7002 32.9958 51.7334 32.0597 51.5865C31.5554 51.5323 31.0687 51.3693 30.6335 51.1088C30.1982 50.8483 29.8246 50.4965 29.5384 50.0776C29.3934 49.8391 29.2875 49.5789 29.2249 49.3069C29.1842 49.1336 29.2139 48.9513 29.3076 48.8C29.4014 48.6488 29.5513 48.5409 29.7246 48.5002C29.8978 48.4595 30.0801 48.4893 30.2314 48.583C30.3827 48.6767 30.4905 48.8266 30.5313 48.9999C30.5606 49.1386 30.6137 49.2711 30.688 49.3918C30.8802 49.643 31.1232 49.8509 31.4013 50.0017C31.6793 50.1525 31.986 50.243 32.3014 50.2671C33.0612 50.3909 33.838 50.3643 34.5876 50.1887C34.843 50.1381 35.0895 50.05 35.3192 49.9274C35.7534 49.735 36.1052 49.3948 36.312 48.9672C36.4622 48.4839 36.3708 47.7327 35.8613 46.4394L35.8025 46.3022C35.3257 45.2897 34.1957 44.8978 33.0134 44.826C31.8676 44.7672 30.7216 44.9382 29.6429 45.3289L29.46 45.4073C28.2908 45.9625 27.6376 48.203 27.6311 48.2095Z" fill="#5F372D"></path><path fill-rule="evenodd" clip-rule="evenodd" d="M53.9092 47.857C53.9092 47.857 53.06 45.303 51.0612 44.7282C49.0625 44.1534 45.4764 44.4212 44.9539 45.4532C44.4313 46.4853 44.1505 49.3724 44.366 49.6075C44.5816 49.8427 43.9937 49.4965 44.6208 49.8753L45.274 50.2477C46.1641 50.6714 47.1304 50.9113 48.1153 50.9531C49.046 50.8566 49.9353 50.5189 50.6955 49.9733L51.0547 48.9805L50.4799 48.9151C50.5936 48.5707 50.7311 48.2346 50.8914 47.9092H53.7916L53.9092 47.857Z" fill="#F0EDEA"></path><path fill-rule="evenodd" clip-rule="evenodd" d="M44.5669 46.6745C44.3056 47.9025 44.2076 49.4375 44.3579 49.6073C44.5081 49.7772 43.9855 49.4963 44.6126 49.8751L45.2658 50.2475C46.1559 50.6711 47.1223 50.9111 48.1072 50.9529C49.0378 50.8564 49.9272 50.5187 50.6873 49.9731L51.0466 48.9803L50.4717 48.9149C50.5855 48.5705 50.723 48.2344 50.8833 47.909H51.5364C51.212 47.4159 50.7976 46.9882 50.315 46.6484C49.2895 46.0605 45.8863 45.7208 45.2527 46.1977C45.0502 46.3087 44.8282 46.472 44.5669 46.6745Z" fill="#C3C0BD"></path><path fill-rule="evenodd" clip-rule="evenodd" d="M53.3137 48.2095C53.363 48.3784 53.4775 48.5208 53.6318 48.6053C53.7862 48.6898 53.9678 48.7096 54.1367 48.6602C54.3056 48.6109 54.448 48.4964 54.5325 48.3421C54.617 48.1877 54.6368 48.0061 54.5874 47.8372C54.5874 47.8372 53.7709 45.0154 52.0465 44.212L51.7983 44.1009C50.5444 43.6443 49.212 43.4422 47.8791 43.5065C46.2592 43.6045 44.6981 44.1924 43.96 45.7535C43.9273 45.8254 43.8946 45.8907 43.8685 45.956C43.2153 47.5759 43.1435 48.621 43.3917 49.3853C43.6765 50.1287 44.2384 50.7327 44.9593 51.0705C45.3076 51.2622 45.6816 51.403 46.0698 51.4885C46.9934 51.6999 47.9489 51.7331 48.885 51.5865C49.3903 51.5324 49.8779 51.3694 50.3142 51.109C50.7506 50.8485 51.1254 50.4967 51.4129 50.0776C51.5551 49.8377 51.6608 49.578 51.7264 49.3069C51.7466 49.2211 51.7496 49.1322 51.7354 49.0452C51.7212 48.9583 51.69 48.875 51.6436 48.8C51.5972 48.7251 51.5365 48.6601 51.465 48.6087C51.3935 48.5572 51.3125 48.5204 51.2267 48.5002C51.1409 48.48 51.052 48.477 50.9651 48.4912C50.8781 48.5054 50.7948 48.5366 50.7199 48.583C50.645 48.6294 50.5799 48.6901 50.5285 48.7616C50.477 48.8331 50.4402 48.9141 50.42 48.9999C50.3907 49.1386 50.3376 49.2711 50.2633 49.3918C50.0711 49.643 49.828 49.8509 49.55 50.0017C49.272 50.1525 48.9653 50.243 48.6499 50.2671C47.89 50.3909 47.1133 50.3643 46.3637 50.1887C46.108 50.1392 45.8613 50.0511 45.6321 49.9274C45.1618 49.6465 44.7699 49.3787 44.6393 48.9672C44.5086 48.5557 44.5805 47.7327 45.09 46.4394L45.1488 46.3022C45.6256 45.2897 46.7556 44.8978 47.9314 44.826C49.0793 44.7674 50.2274 44.9384 51.3084 45.3289L51.4847 45.4073C52.6605 45.9625 53.3137 48.203 53.3137 48.2095Z" fill="#5F372D"></path><path fill-rule="evenodd" clip-rule="evenodd" d="M53.7975 41.0244C53.2227 43.3889 54.1764 48.2095 54.1764 48.2095L57.2595 49.5159L60.1988 49.026C60.1988 49.026 61.5836 50.0384 62.6875 49.9927C63.7914 49.947 64.2094 48.5949 64.2094 48.5949L65.8032 48.5296L67.397 48.5949C67.397 48.5949 67.815 49.9535 68.9189 49.9927C70.0228 50.0319 71.4076 49.026 71.4076 49.026L74.347 49.5159L77.4366 48.2095C77.4366 48.2095 78.3837 43.4085 77.8089 41.0244V40.9852C77.2656 39.1558 76.555 37.3803 75.686 35.6813C75.8431 34.4682 75.8057 33.2377 75.575 32.0365C75.17 30.6517 75.0655 30.2336 75.0655 30.2336L72.3221 31.9907C71.1268 31.6511 69.8933 31.4646 68.6511 31.4355C66.7373 31.4355 65.8163 31.4355 65.8163 31.4355C65.8163 31.4355 64.8953 31.4355 62.9814 31.4355C61.7393 31.4654 60.5059 31.6519 59.3105 31.9907L56.5671 30.2336C56.5671 30.2336 56.4626 30.6517 56.0576 32.0365C55.8269 33.2377 55.7894 34.4682 55.9465 35.6813C55.0776 37.3803 54.3669 39.1558 53.8237 40.9852L53.7975 41.0244Z" fill="#F4F2F3"></path><path fill-rule="evenodd" clip-rule="evenodd" d="M60.5632 36.9746C61.1184 36.9746 61.5757 37.667 61.5757 38.5227C61.5757 39.3784 61.1184 40.0642 60.5632 40.0642C60.008 40.0642 59.5508 39.3718 59.5508 38.5227C59.5508 37.6735 60.0015 36.9746 60.5632 36.9746ZM66.8796 41.0244C66.6865 40.5601 66.5548 40.0726 66.4877 39.5743C66.8992 39.2542 67.3238 38.8231 67.2519 38.4639C67.1213 37.8107 65.8084 37.8107 65.8018 37.8107C65.8018 37.8107 64.4955 37.8107 64.3517 38.4639C64.2799 38.8231 64.7045 39.2542 65.116 39.5743C65.0489 40.0726 64.9171 40.5601 64.7241 41.0244C64.544 41.4967 64.2905 41.9376 63.9729 42.3308C63.7231 42.6522 63.4031 42.9122 63.0375 43.0911C62.6718 43.27 62.2701 43.3629 61.8631 43.3628C61.6898 43.3628 61.5237 43.4316 61.4012 43.5541C61.2787 43.6766 61.2099 43.8428 61.2099 44.016C61.2099 44.1893 61.2787 44.3554 61.4012 44.4779C61.5237 44.6004 61.6898 44.6692 61.8631 44.6692C62.4682 44.6789 63.0674 44.5483 63.6136 44.2877C64.1599 44.027 64.6383 43.6434 65.0115 43.1669C65.3421 42.7708 65.6169 42.3313 65.828 41.8605C66.0391 42.3313 66.3138 42.7708 66.6445 43.1669C67.0136 43.6422 67.4872 44.0262 68.0287 44.289C68.5702 44.5518 69.1649 44.6864 69.7667 44.6823C69.9399 44.6823 70.1061 44.6135 70.2286 44.491C70.3511 44.3685 70.4199 44.2023 70.4199 44.0291C70.4199 43.8559 70.3511 43.6897 70.2286 43.5672C70.1061 43.4447 69.9399 43.3759 69.7667 43.3759C69.3517 43.3795 68.9417 43.2856 68.5695 43.1018C68.1974 42.918 67.8736 42.6495 67.6242 42.3177C67.3024 41.9263 67.0465 41.4851 66.8665 41.0113L66.8796 41.0244ZM71.0404 36.9746C71.6022 36.9746 72.0529 37.667 72.0529 38.5227C72.0529 39.3784 71.6022 40.0642 71.0404 40.0642C70.4787 40.0642 70.0345 39.3718 70.0345 38.5227C70.0345 37.6735 70.4852 36.9746 71.0404 36.9746Z" fill="#5F372D"></path><path fill-rule="evenodd" clip-rule="evenodd" d="M51.4189 47.9089H80.1594C80.3339 47.9258 80.4959 48.0071 80.6138 48.1369C80.7317 48.2667 80.797 48.4358 80.797 48.6111C80.797 48.7865 80.7317 48.9555 80.6138 49.0854C80.4959 49.2152 80.3339 49.2964 80.1594 49.3133H51.4189C51.2443 49.2964 51.0823 49.2152 50.9644 49.0854C50.8466 48.9555 50.7812 48.7865 50.7812 48.6111C50.7812 48.4358 50.8466 48.2667 50.9644 48.1369C51.0823 48.0071 51.2443 47.9258 51.4189 47.9089Z" fill="#5F372D"></path><path fill-rule="evenodd" clip-rule="evenodd" d="M60.4414 48.5754C60.9479 48.388 61.4822 48.2864 62.0221 48.2749C62.6797 48.2425 63.3386 48.2974 63.9817 48.4382L63.1587 49.836C62.5748 49.8937 61.9874 49.9068 61.4016 49.8752C61.2252 49.7838 60.8072 49.7577 60.7484 49.6205C60.6896 49.4833 60.4414 48.5754 60.4414 48.5754Z" fill="#F3CED0"></path><path fill-rule="evenodd" clip-rule="evenodd" d="M60.0234 47.9091L62.1006 47.4453L64.0602 47.9091C64.132 48.0005 64.1451 48.105 64.0602 48.3467C63.9793 48.7099 63.8009 49.0442 63.5441 49.3134H60.8203C60.6585 49.1754 60.5037 49.0294 60.3566 48.8758L60.7354 48.399C60.5657 48.1544 60.3125 47.9802 60.0234 47.9091Z" fill="#F4F2F3"></path><path fill-rule="evenodd" clip-rule="evenodd" d="M63.8571 48.9215C63.7967 49.073 63.7003 49.2075 63.5763 49.3134H60.9308C60.7848 49.1123 60.6662 48.8926 60.5781 48.6602C61.1777 48.5212 61.7916 48.4532 62.4071 48.4578C62.9285 48.4473 63.4386 48.6104 63.8571 48.9215Z" fill="#F3A38F"></path><path fill-rule="evenodd" clip-rule="evenodd" d="M56.8594 48.6928C57.2382 47.6739 58.12 45.9952 59.8836 45.662C60.8812 45.4174 61.9155 45.3598 62.9341 45.4922C63.4441 45.5547 63.9172 45.7907 64.274 46.1605C64.6307 46.5304 64.8495 47.0116 64.8936 47.5236C65.2594 49.8098 64.3907 50.0972 63.3782 50.4303H63.2803H63.2149C62.5453 50.5812 61.847 50.5451 61.1966 50.3258C60.8855 50.2335 60.5963 50.0795 60.346 49.873C60.0958 49.6666 59.8896 49.4118 59.7399 49.1239C59.7022 49.0455 59.6803 48.9603 59.6755 48.8733C59.6706 48.7864 59.683 48.6993 59.7118 48.6171C59.7406 48.535 59.7853 48.4593 59.8434 48.3943C59.9014 48.3294 59.9717 48.2766 60.0502 48.2389C60.1287 48.2011 60.2139 48.1792 60.3008 48.1744C60.3878 48.1695 60.4748 48.1819 60.557 48.2107C60.6392 48.2395 60.7149 48.2842 60.7798 48.3423C60.8447 48.4004 60.8975 48.4706 60.9353 48.5491C61.0903 48.8046 61.3386 48.9897 61.6277 49.0652C62.0122 49.2054 62.4274 49.2393 62.8296 49.1631H62.8687H62.9602C63.3913 49.026 63.7636 48.9019 63.5807 47.7326C63.5618 47.4971 63.4626 47.2752 63.2997 47.104C63.1368 46.9328 62.9202 46.8227 62.6859 46.792C61.8354 46.7022 60.9759 46.7597 60.1449 46.9619C59.724 47.0864 59.3381 47.3078 59.0182 47.6084C58.6983 47.909 58.4533 48.2804 58.3029 48.6928H56.8594Z" fill="#5F372D"></path><path fill-rule="evenodd" clip-rule="evenodd" d="M55.8682 35.309C55.7504 34.237 55.7967 33.1534 56.0054 32.0953L56.7957 30.8804C56.7957 30.8804 57.7494 32.448 58.2785 33.6107C58.8076 34.7734 57.8278 35.7205 56.652 35.7205C56.5048 35.7114 56.3611 35.6711 56.2305 35.6025C56.0999 35.5338 55.9853 35.4382 55.8943 35.3221L55.8682 35.309ZM75.6861 35.309C75.8039 34.237 75.7576 33.1534 75.5489 32.0953L74.8108 30.8804C74.8108 30.8804 73.8571 32.448 73.328 33.6107C72.7989 34.7734 73.831 35.7271 74.9806 35.7075C75.1234 35.6948 75.262 35.6528 75.3878 35.5843C75.5137 35.5157 75.6241 35.422 75.7122 35.309H75.6861Z" fill="#F3A38F"></path><path fill-rule="evenodd" clip-rule="evenodd" d="M60.3215 37.5559C60.415 37.5559 60.5047 37.5931 60.5709 37.6592C60.637 37.7254 60.6742 37.8151 60.6742 37.9086C60.6742 38.0022 60.637 38.0919 60.5709 38.1581C60.5047 38.2242 60.415 38.2614 60.3215 38.2614C60.2279 38.2614 60.1382 38.2242 60.0721 38.1581C60.0059 38.0919 59.9688 38.0022 59.9688 37.9086C59.9688 37.8151 60.0059 37.7254 60.0721 37.6592C60.1382 37.5931 60.2279 37.5559 60.3215 37.5559Z" fill="#FEFEFE"></path><path fill-rule="evenodd" clip-rule="evenodd" d="M65.2471 38.1897C65.5214 38.1897 65.7435 38.3138 65.7435 38.4706C65.7435 38.6273 65.5214 38.7449 65.2471 38.7449C64.9728 38.7449 64.7441 38.6208 64.7441 38.4706C64.7441 38.3203 64.9662 38.1897 65.2471 38.1897Z" fill="#FEFEFE"></path><path fill-rule="evenodd" clip-rule="evenodd" d="M70.7479 37.556C70.8174 37.5573 70.8849 37.579 70.9421 37.6186C70.9992 37.6581 71.0434 37.7136 71.0691 37.7782C71.0948 37.8427 71.1009 37.9134 71.0865 37.9814C71.0722 38.0494 71.0381 38.1116 70.9885 38.1603C70.9389 38.209 70.8761 38.2419 70.8078 38.255C70.7396 38.2681 70.669 38.2608 70.605 38.2339C70.5409 38.207 70.4862 38.1618 70.4477 38.104C70.4092 38.0461 70.3887 37.9782 70.3887 37.9087C70.3887 37.8618 70.398 37.8154 70.4161 37.7722C70.4343 37.729 70.4608 37.6898 70.4943 37.6569C70.5277 37.6241 70.5674 37.5983 70.6109 37.5809C70.6545 37.5636 70.7011 37.5551 70.7479 37.556Z" fill="#FEFEFE"></path><path fill-rule="evenodd" clip-rule="evenodd" d="M78.3566 41.0243C78.7111 43.4467 78.6137 45.9139 78.0692 48.3008C78.032 48.4741 77.9274 48.6254 77.7786 48.7216C77.6298 48.8177 77.4488 48.8508 77.2756 48.8136C77.1023 48.7763 76.951 48.6718 76.8548 48.523C76.7587 48.3741 76.7256 48.1932 76.7628 48.02C77.2928 45.7255 77.377 43.3505 77.011 41.0243C76.759 39.2384 76.107 37.5326 75.1037 36.0339C75.0202 35.9417 74.9648 35.8275 74.944 35.7048C74.9231 35.5822 74.9378 35.4561 74.9861 35.3415C75.6393 33.6889 75.1364 31.8339 74.7771 30.8802C73.9869 31.3803 73.2436 31.9509 72.5563 32.585C72.4635 32.6722 72.3474 32.7304 72.2221 32.7524C72.0967 32.7744 71.9677 32.7594 71.8508 32.7091C70.9802 32.4272 70.0861 32.2239 69.1793 32.1017C68.0585 31.9361 66.9284 31.8423 65.7957 31.8208C64.663 31.8423 63.5329 31.9361 62.4122 32.1017C61.5073 32.2232 60.6153 32.4265 59.7472 32.7091C59.6294 32.7608 59.4991 32.7766 59.3724 32.7545C59.2458 32.7324 59.1285 32.6735 59.0352 32.585C58.3479 31.9509 57.6046 31.3803 56.8143 30.8802C56.4551 31.8339 55.9325 33.6889 56.6053 35.3415C56.6537 35.4561 56.6683 35.5822 56.6475 35.7048C56.6267 35.8275 56.5712 35.9417 56.4877 36.0339C55.4816 37.5311 54.8293 39.2376 54.5804 41.0243C54.2144 43.3505 54.2987 45.7255 54.8286 48.02C54.8471 48.1057 54.8484 48.1943 54.8326 48.2806C54.8168 48.3669 54.7842 48.4493 54.7366 48.523C54.689 48.5967 54.6273 48.6603 54.5551 48.7101C54.4829 48.76 54.4016 48.7952 54.3159 48.8136C54.2301 48.832 54.1415 48.8334 54.0552 48.8176C53.9689 48.8018 53.8865 48.7692 53.8129 48.7216C53.7392 48.674 53.6756 48.6123 53.6257 48.5401C53.5758 48.4679 53.5407 48.3866 53.5222 48.3008C52.9763 45.914 52.8811 43.4461 53.2414 41.0243C53.5126 39.0624 54.1936 37.1797 55.2401 35.4983C54.3648 32.8136 55.7561 29.9396 55.8933 29.6195C55.9337 29.5416 55.9894 29.4726 56.0571 29.4167C56.1248 29.3608 56.203 29.3191 56.2871 29.2941C56.3713 29.2691 56.4596 29.2614 56.5468 29.2713C56.634 29.2811 56.7183 29.3085 56.7947 29.3517C57.7999 29.9218 58.7452 30.5914 59.6165 31.3505C60.4602 31.1034 61.3202 30.9157 62.1901 30.7887C63.3653 30.6198 64.5499 30.5238 65.7369 30.5013H65.7892C66.9763 30.5238 68.1608 30.6198 69.336 30.7887C70.208 30.9164 71.0701 31.104 71.9161 31.3505C72.7837 30.5896 73.727 29.9199 74.7314 29.3517C74.8078 29.3085 74.8921 29.2811 74.9793 29.2713C75.0665 29.2614 75.1549 29.2691 75.239 29.2941C75.3231 29.3191 75.4014 29.3608 75.469 29.4167C75.5367 29.4726 75.5924 29.5416 75.6328 29.6195C75.783 29.9135 77.1743 32.7941 76.286 35.4983C77.3557 37.1749 78.0612 39.0575 78.3566 41.0243Z" fill="#5F372D"></path><path fill-rule="evenodd" clip-rule="evenodd" d="M71.1536 48.5754C70.6471 48.388 70.1128 48.2864 69.5729 48.2749C68.9153 48.2425 68.2564 48.2974 67.6133 48.4382L68.4363 49.836C69.0202 49.8937 69.6075 49.9068 70.1934 49.8752C70.3698 49.7838 70.7943 49.7577 70.8466 49.6205C70.8988 49.4833 71.1536 48.5754 71.1536 48.5754Z" fill="#F3CED0"></path><path fill-rule="evenodd" clip-rule="evenodd" d="M71.5832 47.9091L69.5126 47.4453L67.553 47.9091C67.4812 48.0005 67.4681 48.105 67.553 48.3467C67.6366 48.7089 67.8146 49.0425 68.069 49.3134H70.7929C70.9547 49.1754 71.1095 49.0294 71.2566 48.8758L70.8778 48.399C71.0459 48.1557 71.2965 47.9816 71.5832 47.9091Z" fill="#F4F2F3"></path><path fill-rule="evenodd" clip-rule="evenodd" d="M67.75 48.9215C67.8105 49.073 67.9069 49.2075 68.0309 49.3134H70.6436C70.7897 49.1123 70.9083 48.8926 70.9964 48.6602C70.3968 48.5212 69.7829 48.4532 69.1674 48.4577C68.6571 48.4544 68.1596 48.6172 67.75 48.9215Z" fill="#F3A38F"></path><path fill-rule="evenodd" clip-rule="evenodd" d="M74.7445 48.6928C74.3656 47.6739 73.4838 45.9952 71.7202 45.662C70.7227 45.4174 69.6884 45.3598 68.6698 45.4922C68.1597 45.5547 67.6867 45.7907 67.3299 46.1605C66.9731 46.5304 66.7544 47.0116 66.7102 47.5236C66.3444 49.8098 67.2132 50.0972 68.2256 50.4303H68.3236H68.3889C69.0586 50.5812 69.7568 50.5451 70.4073 50.3258C70.7183 50.2335 71.0076 50.0795 71.2579 49.873C71.5081 49.6666 71.7142 49.4118 71.8639 49.1239C71.9017 49.0455 71.9236 48.9603 71.9284 48.8733C71.9332 48.7864 71.9209 48.6993 71.8921 48.6171C71.8633 48.535 71.8186 48.4593 71.7605 48.3943C71.7024 48.3294 71.6321 48.2766 71.5537 48.2389C71.4752 48.2011 71.39 48.1792 71.3031 48.1744C71.2161 48.1695 71.129 48.1819 71.0469 48.2107C70.9647 48.2395 70.889 48.2842 70.8241 48.3423C70.7591 48.4004 70.7063 48.4706 70.6686 48.5491C70.5136 48.8046 70.2653 48.9897 69.9762 49.0652C69.5917 49.2054 69.1765 49.2393 68.7743 49.1631H68.7351H68.6437C68.2126 49.026 67.8403 48.9019 67.9905 47.7326C68.0183 47.496 68.1272 47.2763 68.2987 47.1108C68.4701 46.9453 68.6936 46.8442 68.9311 46.8247C69.7815 46.7346 70.6411 46.7921 71.472 46.9945C71.8929 47.119 72.2788 47.3405 72.5987 47.6411C72.9186 47.9417 73.1636 48.3131 73.314 48.7255L74.7445 48.6928Z" fill="#5F372D"></path><path fill-rule="evenodd" clip-rule="evenodd" d="M61.957 18.9399H64.4V21.3502H61.957V18.9138V18.9399ZM65.223 22.2778H67.6659V24.7142H65.223V22.2778ZM61.957 22.2778H64.4V24.7142H61.957V22.2778ZM65.223 18.9399H67.6659V21.3502H65.223V18.9399Z" fill="white"></path><path fill-rule="evenodd" clip-rule="evenodd" d="M1.59401 68.5433C1.61903 68.5405 1.64235 68.5293 1.66015 68.5115C1.67796 68.4937 1.68918 68.4703 1.69198 68.4453V65.4341C1.6897 65.4207 1.69066 65.407 1.69478 65.3941C1.6989 65.3811 1.70605 65.3694 1.71565 65.3598C1.72524 65.3502 1.737 65.343 1.74993 65.3389C1.76286 65.3348 1.77659 65.3338 1.78996 65.3361H6.87833C7.61732 65.3398 8.32841 65.0541 8.85944 64.5402C9.39047 64.0263 9.69925 63.3249 9.71972 62.5862C9.73921 61.8229 9.45757 61.0826 8.93567 60.5252C8.41377 59.9679 7.69353 59.6383 6.93059 59.6076H0.0981965C0.0844627 59.6085 0.0710269 59.612 0.0586627 59.618C0.0462984 59.6241 0.0352488 59.6325 0.0261456 59.6428C0.0170424 59.6531 0.0100631 59.6651 0.0056137 59.6781C0.00116429 59.6912 -0.000668465 59.7049 0.000216611 59.7187V68.4453C0.001765 68.4708 0.0125858 68.4948 0.0306357 68.5129C0.0486855 68.5309 0.0727172 68.5417 0.0981965 68.5433H1.59401ZM1.78996 63.6443C1.77742 63.6452 1.76482 63.6435 1.75296 63.6394C1.7411 63.6352 1.73023 63.6286 1.72104 63.62C1.71184 63.6114 1.70451 63.601 1.69951 63.5895C1.69451 63.5779 1.69195 63.5655 1.69198 63.5529V61.3908C1.69198 61.378 1.69452 61.3652 1.69944 61.3533C1.70437 61.3415 1.71158 61.3307 1.72068 61.3216C1.72978 61.3125 1.74058 61.3052 1.75247 61.3003C1.76435 61.2954 1.7771 61.2929 1.78996 61.2929H6.95672C7.26267 61.3255 7.54522 61.4718 7.74844 61.7029C7.95165 61.9339 8.06073 62.2328 8.05408 62.5405C8.05063 62.8356 7.93053 63.1173 7.72002 63.3241C7.50951 63.531 7.22571 63.6461 6.93059 63.6443H1.78996ZM21.9018 61.1949L21.4249 59.686C21.4192 59.6682 21.4078 59.6528 21.3924 59.6422C21.3771 59.6316 21.3587 59.6263 21.34 59.6272H13.1424C13.1244 59.6263 13.1064 59.629 13.0894 59.6351C13.0725 59.6412 13.0568 59.6506 13.0435 59.6627C13.0302 59.6749 13.0193 59.6895 13.0116 59.7058C13.004 59.7222 12.9996 59.7398 12.9987 59.7579V68.38C12.9996 68.398 13.004 68.4157 13.0116 68.432C13.0193 68.4483 13.0302 68.463 13.0435 68.4751C13.0568 68.4873 13.0725 68.4966 13.0894 68.5027C13.1064 68.5088 13.1244 68.5115 13.1424 68.5106H21.3465C21.3652 68.5115 21.3836 68.5063 21.399 68.4956C21.4143 68.485 21.4257 68.4696 21.4315 68.4518L21.9083 66.9495C21.9083 66.8972 21.9083 66.8385 21.8234 66.8385H14.8212C14.7842 66.8338 14.75 66.8161 14.7249 66.7886C14.6997 66.7611 14.6852 66.7255 14.684 66.6882V65.0095C14.684 64.987 14.6929 64.9654 14.7089 64.9495C14.7248 64.9336 14.7464 64.9246 14.7689 64.9246H19.5241C19.5459 64.9243 19.5671 64.9173 19.5846 64.9044C19.6022 64.8915 19.6153 64.8735 19.6221 64.8528L20.0989 63.3439C20.102 63.3312 20.102 63.318 20.0991 63.3053C20.0962 63.2927 20.0904 63.2808 20.0822 63.2707C20.074 63.2606 20.0636 63.2525 20.0518 63.2471C20.04 63.2417 20.027 63.239 20.014 63.2394H14.7885C14.7693 63.2342 14.7522 63.2233 14.7393 63.2081C14.7265 63.1929 14.7186 63.1742 14.7166 63.1545V61.4627C14.7182 61.4268 14.7332 61.3928 14.7586 61.3675C14.784 61.3421 14.8179 61.3271 14.8538 61.3255H21.856C21.8691 61.3217 21.881 61.3149 21.8908 61.3056C21.9007 61.2963 21.9081 61.2848 21.9126 61.272C21.9171 61.2592 21.9184 61.2455 21.9165 61.2321C21.9147 61.2187 21.9096 61.2059 21.9018 61.1949ZM34.4235 59.6272H25.1089L24.606 61.0642H28.8909C28.9002 61.067 28.9086 61.0721 28.9154 61.0789C28.9223 61.0858 28.9273 61.0942 28.9301 61.1034V68.4388C28.93 68.4568 28.9367 68.4741 28.9488 68.4874C28.9609 68.5007 28.9775 68.509 28.9954 68.5106H30.55C30.55 68.5106 30.6088 68.4714 30.6088 68.4388V61.1361C30.6114 61.1277 30.6155 61.1199 30.6212 61.1132C30.6268 61.1064 30.6337 61.1009 30.6415 61.0969H34.9656L34.4431 59.6599L34.4235 59.6272ZM45.7302 59.7383V63.1283C45.7302 63.1443 45.727 63.1602 45.7207 63.1749C45.7144 63.1896 45.7051 63.2028 45.6935 63.2139C45.6819 63.2249 45.6681 63.2334 45.6531 63.2389C45.6381 63.2444 45.6221 63.2468 45.6061 63.2459H39.6817C39.6665 63.2459 39.6515 63.2429 39.6376 63.2369C39.6237 63.2309 39.6111 63.2221 39.6007 63.2111C39.5903 63.2001 39.5823 63.1871 39.5771 63.1728C39.5719 63.1586 39.5697 63.1435 39.5706 63.1283V59.7383C39.5707 59.7225 39.5675 59.7069 39.5611 59.6925C39.5547 59.6781 39.5454 59.6652 39.5336 59.6547C39.5219 59.6442 39.508 59.6363 39.493 59.6316C39.478 59.6269 39.4622 59.6254 39.4465 59.6272H37.9899C37.9604 59.6272 37.9322 59.6389 37.9114 59.6597C37.8905 59.6806 37.8789 59.7088 37.8789 59.7383V68.4388C37.8787 68.4695 37.8899 68.4993 37.9105 68.5222C37.931 68.5452 37.9593 68.5596 37.9899 68.5629H39.4465C39.4631 68.5638 39.4796 68.5613 39.4951 68.5554C39.5106 68.5495 39.5247 68.5404 39.5364 68.5286C39.5481 68.5169 39.5572 68.5029 39.5631 68.4874C39.569 68.4719 39.5716 68.4553 39.5706 68.4388V65.0487C39.5722 65.0198 39.5844 64.9924 39.6049 64.9719C39.6254 64.9514 39.6527 64.9392 39.6817 64.9377H45.6061C45.6369 64.9375 45.6666 64.9488 45.6895 64.9693C45.7125 64.9898 45.727 65.0181 45.7302 65.0487V68.4388C45.7293 68.4542 45.7315 68.4697 45.7366 68.4843C45.7417 68.4989 45.7497 68.5124 45.76 68.5239C45.7703 68.5354 45.7828 68.5448 45.7967 68.5515C45.8107 68.5582 45.8258 68.5621 45.8413 68.5629H47.2979C47.3285 68.5596 47.3568 68.5452 47.3773 68.5222C47.3978 68.4993 47.4091 68.4695 47.4089 68.4388V59.7187C47.4089 59.6892 47.3972 59.661 47.3764 59.6401C47.3556 59.6193 47.3273 59.6076 47.2979 59.6076H45.8413C45.8264 59.6067 45.8116 59.6089 45.7977 59.6141C45.7838 59.6194 45.7711 59.6275 45.7606 59.638C45.7501 59.6485 45.742 59.6612 45.7367 59.6751C45.7315 59.689 45.7293 59.7038 45.7302 59.7187V59.7383ZM56.227 68.7458C59.4146 68.7458 61.8118 66.8581 61.8118 64.082C61.8118 60.914 58.6373 59.4313 56.227 59.4313C53.9866 59.4313 50.6553 60.7376 50.6553 64.082C50.6553 67.054 53.9213 68.7458 56.227 68.7458ZM56.227 61.1165C58.3695 61.1165 60.1462 62.4555 60.1462 64.082C60.1462 65.7084 58.3956 67.054 56.227 67.054C54.0584 67.054 52.3471 65.7476 52.3471 64.082C52.3471 62.4163 54.0846 61.1165 56.227 61.1165ZM70.0682 68.7458C73.1316 68.7458 75.2023 66.9495 75.2023 64.2779V59.7709C75.2023 59.7515 75.1984 59.7322 75.1907 59.7144C75.1831 59.6965 75.1719 59.6804 75.1579 59.6669C75.1439 59.6535 75.1272 59.643 75.109 59.6362C75.0908 59.6294 75.0714 59.6263 75.052 59.6272H73.6607C73.6411 59.6253 73.6213 59.6277 73.6026 59.6341C73.584 59.6406 73.5669 59.651 73.5527 59.6646C73.5384 59.6783 73.5272 59.6948 73.52 59.7132C73.5127 59.7315 73.5095 59.7512 73.5105 59.7709V64.2779C73.5105 66.3224 71.7338 67.054 70.0682 67.054C68.4025 67.054 66.6324 66.3224 66.6324 64.2779V59.7709C66.6307 59.7322 66.6141 59.6957 66.5861 59.6689C66.5581 59.6421 66.5209 59.6272 66.4821 59.6272H65.0908C65.0712 59.6253 65.0514 59.6277 65.0327 59.6341C65.0141 59.6406 64.997 59.651 64.9828 59.6646C64.9685 59.6783 64.9574 59.6948 64.9501 59.7132C64.9428 59.7315 64.9396 59.7512 64.9406 59.7709V64.2779C64.9406 66.9495 66.9982 68.7458 70.0682 68.7458ZM83.6938 68.7458C88.0898 68.7458 88.4882 66.5445 88.4882 65.9762C88.4882 63.5072 84.974 63.3112 83.1908 63.3112C81.2312 63.3112 79.9836 63.0173 79.9836 62.3314C79.9836 61.8415 80.5062 61.1165 83.5958 61.1165C85.0232 61.1167 86.4282 61.4714 87.6848 62.1485H87.7174C87.7272 62.1487 87.737 62.1467 87.7459 62.1427C87.7548 62.1386 87.7627 62.1326 87.7689 62.125C87.7752 62.1175 87.7797 62.1087 87.7821 62.0992C87.7845 62.0897 87.7847 62.0798 87.7828 62.0702L87.6586 60.2477C87.6586 60.2477 87.6586 60.202 87.6195 60.202C86.3459 59.6686 84.9765 59.4018 83.5958 59.4182C81.1332 59.4182 78.2919 59.993 78.2919 62.3184C78.2919 63.0303 78.5009 64.9834 83.1908 64.9834C85.686 64.9834 86.705 65.4276 86.705 65.9044C86.705 66.5576 85.5554 67.0409 83.6938 67.0409C81.9429 67.0977 80.2061 66.7113 78.6446 65.9175C78.6054 65.9175 78.5793 65.9566 78.5793 66.0024L78.7687 67.8901C78.7687 67.8901 78.7687 67.9228 78.7687 67.9358C80.3437 68.5175 82.0154 68.7924 83.6938 68.7458ZM100.625 61.1949L100.148 59.686C100.141 59.6688 100.129 59.654 100.114 59.6435C100.099 59.633 100.081 59.6273 100.063 59.6272H91.8587C91.8407 59.6263 91.8226 59.629 91.8057 59.6351C91.7887 59.6412 91.7731 59.6506 91.7597 59.6627C91.7464 59.6749 91.7355 59.6895 91.7279 59.7058C91.7202 59.7222 91.7158 59.7398 91.715 59.7579V68.38C91.7158 68.398 91.7202 68.4157 91.7279 68.432C91.7355 68.4483 91.7464 68.463 91.7597 68.4751C91.7731 68.4873 91.7887 68.4966 91.8057 68.5027C91.8226 68.5088 91.8407 68.5115 91.8587 68.5106H100.063C100.081 68.5105 100.099 68.5049 100.114 68.4944C100.129 68.4839 100.141 68.4691 100.148 68.4518L100.625 66.9495C100.625 66.8972 100.625 66.8385 100.54 66.8385H93.5374C93.5004 66.8338 93.4663 66.8161 93.4411 66.7886C93.416 66.7611 93.4015 66.7255 93.4002 66.6882V65.0095C93.4002 64.987 93.4092 64.9654 93.4251 64.9495C93.441 64.9336 93.4626 64.9246 93.4851 64.9246H98.2404C98.2621 64.9243 98.2833 64.9173 98.3009 64.9044C98.3184 64.8915 98.3315 64.8735 98.3383 64.8528L98.8152 63.3439C98.8182 63.3312 98.8182 63.318 98.8153 63.3053C98.8124 63.2927 98.8067 63.2808 98.7985 63.2707C98.7903 63.2606 98.7798 63.2525 98.768 63.2471C98.7562 63.2417 98.7433 63.239 98.7303 63.2394H93.5047C93.4811 63.2362 93.4594 63.2245 93.4437 63.2064C93.4281 63.1884 93.4196 63.1653 93.4198 63.1414V61.4496C93.4214 61.4138 93.4364 61.3798 93.4617 61.3544C93.4871 61.329 93.5211 61.314 93.557 61.3124H100.559C100.572 61.3105 100.584 61.3056 100.595 61.2982C100.606 61.2908 100.614 61.2811 100.621 61.2697C100.627 61.2584 100.631 61.2457 100.631 61.2327C100.632 61.2198 100.63 61.2068 100.625 61.1949Z" fill="#5F372D"></path></svg>