<svg xmlns="http://www.w3.org/2000/svg" width="112" height="80" viewBox="0 0 112 80" fill="none"><path fill-rule="evenodd" clip-rule="evenodd" d="M35.1543 29.3002L57.9126 6.54814C58.0685 6.39489 58.1696 6.19461 58.2003 5.9782C58.2311 5.76179 58.1898 5.54128 58.0828 5.35067C57.6971 4.65465 57.5499 3.85147 57.6637 3.0639C57.7775 2.27633 58.146 1.54769 58.713 0.989341C60.1185 -0.409814 62.7844 -0.151411 63.9252 0.989341C64.5479 1.51746 64.9448 2.26391 65.0344 3.07547C65.0492 3.31863 65.152 3.54808 65.3237 3.72092C65.4954 3.89375 65.7241 3.99814 65.9672 4.01454C66.785 4.09176 67.5403 4.48524 68.0722 5.11117C69.213 6.25193 69.5155 8.89267 68.0722 10.3233C67.4789 10.9171 66.7004 11.2902 65.8659 11.3807C65.0313 11.4713 64.1909 11.2739 63.484 10.8212C63.2901 10.6955 63.0588 10.6406 62.829 10.6658C62.5993 10.6911 62.3854 10.795 62.2235 10.9599L39.5912 33.6174C39.4253 33.7786 39.3206 33.9927 39.2953 34.2227C39.27 34.4527 39.3256 34.6844 39.4526 34.8779C39.7519 35.3454 39.9418 35.8746 40.008 36.4258C40.0743 36.977 40.0152 37.5361 39.8352 38.0613C39.6551 38.5864 39.3588 39.0642 38.9684 39.4589C38.5779 39.8535 38.1033 40.1549 37.5801 40.3405C37.0569 40.5261 36.4985 40.5912 35.9466 40.5308C35.3947 40.4705 34.8636 40.2863 34.3928 39.9919C33.9221 39.6976 33.5239 39.3008 33.2279 38.831C32.932 38.3613 32.746 37.8308 32.6837 37.2791C32.6589 37.0509 32.5565 36.8381 32.3936 36.6763C32.2307 36.5146 32.0172 36.4137 31.7888 36.3905C31.2554 36.3207 30.7438 36.135 30.2897 35.8466C29.8357 35.5581 29.4503 35.1738 29.1606 34.7206C28.8709 34.2673 28.6838 33.7562 28.6126 33.2231C28.5413 32.6899 28.5876 32.1476 28.7481 31.6342C28.9087 31.1208 29.1796 30.6488 29.542 30.2512C29.9043 29.8536 30.3492 29.5401 30.8455 29.3327C31.3418 29.1254 31.8775 29.0291 32.415 29.0507C32.9525 29.0723 33.4787 29.2112 33.9568 29.4577C34.1484 29.5629 34.369 29.6026 34.5852 29.5707C34.8014 29.5388 35.0012 29.4372 35.1543 29.2812V29.3002Z" fill="#8769FA"></path><path fill-rule="evenodd" clip-rule="evenodd" d="M48.8743 43.0206L71.6263 20.2623C71.7822 20.109 71.8833 19.9087 71.914 19.6923C71.9448 19.4759 71.9035 19.2554 71.7965 19.0648C71.4097 18.369 71.2619 17.5656 71.3758 16.7778C71.4896 15.99 71.8588 15.2612 72.4267 14.7035C73.8259 13.3043 76.4981 13.5627 77.6389 14.7035C78.2601 15.2391 78.6525 15.9924 78.7355 16.8085C78.7504 17.0527 78.8542 17.2829 79.0272 17.4559C79.2001 17.6289 79.4304 17.7326 79.6746 17.7476C80.4918 17.8232 81.2482 18.2115 81.7859 18.8316C82.933 19.9723 83.2292 22.6131 81.7859 24.0438C81.1927 24.6375 80.4147 25.011 79.5805 25.1027C78.7462 25.1944 77.9057 24.9987 77.1977 24.548C77.0042 24.4225 76.7734 24.3673 76.5441 24.3913C76.3147 24.4154 76.1005 24.5174 75.9372 24.6803L53.3049 47.3315C53.14 47.4934 53.0361 47.7073 53.0109 47.937C52.9856 48.1667 53.0405 48.3981 53.1663 48.592C53.648 49.3575 53.8316 50.2733 53.6821 51.1654C53.5325 52.0574 53.0603 52.8633 52.3553 53.4299C51.6502 53.9964 50.7615 54.284 49.8582 54.238C48.9549 54.1919 48.1 53.8155 47.4562 53.1802C46.8595 52.589 46.4855 51.8097 46.3974 50.9743C46.3726 50.7461 46.2702 50.5333 46.1073 50.3716C45.9444 50.2098 45.7308 50.1089 45.5025 50.0857C44.6733 49.9949 43.9009 49.621 43.3155 49.0269C42.6903 48.4004 42.3113 47.5698 42.2478 46.687C42.1843 45.8042 42.4405 44.928 42.9696 44.2185C43.4987 43.5089 44.2654 43.0134 45.1296 42.8224C45.9939 42.6314 46.898 42.7577 47.6768 43.1781C47.8674 43.2851 48.0879 43.3264 48.3043 43.2957C48.5208 43.2649 48.721 43.1638 48.8743 43.008V43.0206Z" fill="#F7CF03"></path><path fill-rule="evenodd" clip-rule="evenodd" d="M57.915 47.6215L35.163 24.8695C35.0087 24.7131 34.8073 24.6117 34.5898 24.581C34.3723 24.5502 34.1508 24.5918 33.9592 24.6993C33.2644 25.0856 32.462 25.2331 31.6753 25.1192C30.8886 25.0054 30.1609 24.6364 29.6042 24.0691C28.1987 22.6699 28.4571 19.9976 29.6042 18.8569C30.1367 18.235 30.8883 17.8423 31.7029 17.7603C31.9471 17.7453 32.1773 17.6416 32.3503 17.4686C32.5233 17.2956 32.627 17.0654 32.642 16.8212C32.7249 16.0051 33.1174 15.2518 33.7386 14.7162C34.8794 13.5754 37.5201 13.2792 38.9508 14.7162C39.546 15.3098 39.9205 16.089 40.0122 16.9246C40.1039 17.7602 39.9073 18.6021 39.455 19.3107C39.3292 19.5045 39.2743 19.7359 39.2996 19.9656C39.3248 20.1954 39.4287 20.4093 39.5936 20.5712L62.2259 43.2034C62.3878 43.3684 62.6017 43.4722 62.8314 43.4975C63.0611 43.5228 63.2925 43.4679 63.4864 43.3421C64.2519 42.8603 65.1678 42.6768 66.0598 42.8263C66.9518 42.9759 67.7577 43.4481 68.3243 44.1531C68.8908 44.8582 69.1784 45.7469 69.1324 46.6502C69.0863 47.5535 68.7099 48.4083 68.0746 49.0522C67.4876 49.6475 66.7127 50.0216 65.8813 50.111C65.6575 50.1333 65.4477 50.2309 65.2864 50.3877C65.125 50.5444 65.0215 50.7513 64.9927 50.9744C64.9018 51.8053 64.528 52.5797 63.9339 53.1677C63.3074 53.7929 62.4769 54.1719 61.594 54.2354C60.7112 54.2989 59.835 54.0427 59.1255 53.5136C58.4159 52.9845 57.9204 52.2178 57.7294 51.3536C57.5384 50.4893 57.6647 49.5852 58.0851 48.8064C58.1921 48.6158 58.2334 48.3952 58.2027 48.1788C58.1719 47.9624 58.0708 47.7621 57.915 47.6089V47.6215Z" fill="#FF456B"></path><path fill-rule="evenodd" clip-rule="evenodd" d="M71.629 33.9072L48.877 11.1551C48.7227 10.9988 48.5214 10.8974 48.3039 10.8667C48.0864 10.8359 47.8648 10.8775 47.6732 10.985C46.9782 11.3702 46.176 11.5171 45.3896 11.4033C44.6031 11.2895 43.8755 10.9212 43.3182 10.3547C41.919 8.95557 42.1774 6.28331 43.3182 5.14256C43.8486 4.51807 44.6014 4.12473 45.4169 4.04592C45.6663 4.03032 45.9008 3.92214 46.0745 3.74258C46.2482 3.56303 46.3486 3.32507 46.356 3.07534C46.4393 2.25796 46.8343 1.50409 47.4589 0.970304C48.5997 -0.170448 51.2404 -0.466665 52.6711 0.970304C53.2741 1.56596 53.6534 2.35116 53.7452 3.19373C53.837 4.0363 53.6358 4.88478 53.1753 5.59634C53.0495 5.79021 52.9946 6.0216 53.0199 6.25131C53.0452 6.48102 53.149 6.69494 53.314 6.85684L75.9462 29.4954C76.1083 29.6604 76.3227 29.7639 76.5527 29.788C76.7827 29.8122 77.0139 29.7555 77.2067 29.6278C77.6745 29.3308 78.2032 29.1432 78.7535 29.0787C79.3038 29.0142 79.8616 29.0746 80.3853 29.2554C80.9091 29.4361 81.3854 29.7326 81.7788 30.1228C82.1722 30.5129 82.4726 30.9867 82.6577 31.509C82.8428 32.0312 82.9078 32.5884 82.8479 33.1392C82.788 33.6901 82.6047 34.2203 82.3117 34.6905C82.0186 35.1608 81.6234 35.5589 81.1553 35.8554C80.6872 36.1519 80.1583 36.339 79.608 36.4029C79.3796 36.4261 79.1661 36.5271 79.0032 36.6888C78.8403 36.8506 78.7378 37.0634 78.713 37.2916C78.6432 37.825 78.4576 38.3366 78.1691 38.7906C77.8806 39.2446 77.4963 39.63 77.0431 39.9197C76.5899 40.2095 76.0788 40.3965 75.5456 40.4678C75.0124 40.539 74.4701 40.4928 73.9568 40.3322C73.4434 40.1717 72.9713 39.9007 72.5738 39.5384C72.1762 39.1761 71.8627 38.7311 71.6553 38.2348C71.4479 37.7385 71.3516 37.2028 71.3732 36.6653C71.3948 36.1279 71.5337 35.6016 71.7803 35.1235C71.8854 34.932 71.9251 34.7113 71.8933 34.4951C71.8614 34.279 71.7598 34.0791 71.6038 33.9261L71.629 33.9072Z" fill="#08CCAD"></path><path fill-rule="evenodd" clip-rule="evenodd" d="M59.8377 40.8021L55.4638 36.4282L51.0898 40.8021L55.4638 45.1761L59.8377 40.8021Z" fill="#F53800"></path><path fill-rule="evenodd" clip-rule="evenodd" d="M41.7489 31.4554L46.1229 27.0878L41.7489 22.7139L37.375 27.0878L41.7489 31.4554Z" fill="#871C66"></path><path fill-rule="evenodd" clip-rule="evenodd" d="M51.0898 13.3674L55.4638 17.7413L59.8377 13.3674L55.4638 8.99976L51.0898 13.3674Z" fill="#05384A"></path><path fill-rule="evenodd" clip-rule="evenodd" d="M69.1762 22.7139L64.8086 27.0878L69.1762 31.4554L73.5502 27.0878L69.1762 22.7139Z" fill="#05A300"></path><path d="M4.75217 60.1256C4.14059 60.0966 3.52948 60.1918 2.95564 60.4053C2.3818 60.6187 1.8571 60.9461 1.41312 61.3677C0.969141 61.7893 0.615073 62.2964 0.372233 62.8585C0.129392 63.4205 0.00280178 64.0259 8.36451e-05 64.6381C-0.00362013 65.2477 0.115714 65.8518 0.350941 66.4142C0.586169 66.9766 0.932454 67.4858 1.36907 67.9112C1.80568 68.3366 2.32365 68.6696 2.89196 68.8902C3.46027 69.1107 4.06724 69.2144 4.67654 69.1949C6.03911 69.1548 7.33237 68.585 8.28157 67.6066L7.0967 66.3461C6.48025 66.9662 5.65119 67.329 4.77738 67.3608C4.41756 67.3634 4.06086 67.2939 3.7284 67.1562C3.39594 67.0186 3.09446 66.8156 2.84179 66.5594C2.58912 66.3032 2.39039 65.999 2.25737 65.6646C2.12434 65.3303 2.05971 64.9727 2.0673 64.6129C2.05969 64.2535 2.12435 63.8962 2.25745 63.5622C2.39055 63.2282 2.58938 62.9243 2.84214 62.6686C3.0949 62.4129 3.39644 62.2106 3.72887 62.0736C4.0613 61.9367 4.41786 61.8679 4.77738 61.8713C5.22299 61.8945 5.65902 62.0094 6.05813 62.209C6.45724 62.4085 6.81082 62.6884 7.0967 63.031L8.26896 61.6066C7.3341 60.6741 6.0725 60.1428 4.75217 60.1256ZM15.7563 60.1256C13.0273 60.1256 10.9664 62.0163 10.9664 64.6507C10.97 65.2674 11.0982 65.877 11.3433 66.4429C11.5884 67.0088 11.9454 67.5193 12.3928 67.9438C12.8402 68.3682 13.3688 68.6978 13.9468 68.9128C14.5248 69.1278 15.1403 69.2237 15.7563 69.1949C16.3719 69.222 16.9867 69.1248 17.5639 68.9091C18.1411 68.6935 18.669 68.3638 19.116 67.9397C19.563 67.5156 19.9201 67.0058 20.1658 66.4408C20.4115 65.8757 20.5409 65.2669 20.5462 64.6507C20.5462 62.0604 18.479 60.1256 15.7563 60.1256ZM15.7563 61.884C16.4698 61.918 17.1427 62.2253 17.6356 62.7422C18.1285 63.2591 18.4034 63.946 18.4034 64.6602C18.4034 65.3744 18.1285 66.0613 17.6356 66.5782C17.1427 67.0951 16.4698 67.4024 15.7563 67.4365C15.0263 67.4248 14.3304 67.1258 13.8195 66.6043C13.3086 66.0828 13.0239 65.3808 13.0273 64.6507C13.024 64.2875 13.0929 63.9273 13.2299 63.5909C13.367 63.2546 13.5695 62.9488 13.8258 62.6913C14.0821 62.4339 14.3869 62.23 14.7226 62.0914C15.0584 61.9528 15.4183 61.8823 15.7815 61.884H15.7563ZM26.1807 67.3608V60.1886H24.1828V69.1066H30.0189V67.3608H26.1807ZM37.6575 60.1382C34.9285 60.1382 32.8676 62.0289 32.8676 64.6634C32.8712 65.28 32.9994 65.8896 33.2445 66.4555C33.4896 67.0214 33.8466 67.5319 34.294 67.9564C34.7414 68.3808 35.27 68.7104 35.848 68.9254C36.426 69.1404 37.0415 69.2363 37.6575 69.2075C38.2752 69.2363 38.8923 69.1401 39.4719 68.9245C40.0514 68.7088 40.5814 68.3783 41.0299 67.9527C41.4785 67.5271 41.8364 67.0152 42.0822 66.4478C42.3279 65.8803 42.4564 65.2691 42.46 64.6507C42.46 62.0604 40.3928 60.1256 37.6701 60.1256L37.6575 60.1382ZM37.6575 61.8966C38.3709 61.9306 39.0439 62.2379 39.5368 62.7548C40.0296 63.2717 40.3046 63.9586 40.3046 64.6728C40.3046 65.387 40.0296 66.0739 39.5368 66.5908C39.0439 67.1077 38.3709 67.4151 37.6575 67.4491C36.9231 67.4441 36.2207 67.148 35.7044 66.6257C35.188 66.1035 34.9 65.3977 34.9033 64.6634C34.9 64.3001 34.9688 63.9399 35.1059 63.6035C35.243 63.2672 35.4455 62.9614 35.7018 62.704C35.958 62.4465 36.2629 62.2426 36.5986 62.104C36.9343 61.9654 37.2943 61.8949 37.6575 61.8966ZM51.523 69.1192H53.8045L51.9138 66.176C52.4504 65.9206 52.8971 65.5088 53.1952 64.9947C53.4933 64.4806 53.6288 63.8883 53.5839 63.2957C53.5839 61.323 52.2604 60.2012 49.9285 60.2012H46.0713V69.1192H48.0881V66.5982H50.1365L51.5482 69.1192H51.523ZM48.0629 64.8902V61.8713H49.9222C51.0314 61.8713 51.668 62.3692 51.668 63.365C51.668 64.3608 51.0377 64.8902 49.9222 64.8902H48.0629ZM57.586 60.1886V69.1066H61.8276C63.9011 69.1066 65.1868 68.1612 65.1868 66.636C65.2076 66.0924 65.0256 65.5605 64.6762 65.1436C64.3268 64.7266 63.8349 64.4544 63.2961 64.3797C63.7422 64.2855 64.1411 64.0377 64.4233 63.6795C64.7054 63.3213 64.853 62.8755 64.8402 62.4197C64.8402 61.0457 63.6175 60.1886 61.6889 60.1886H57.586ZM59.5965 61.8335H61.5818C62.3381 61.8335 62.8045 62.1802 62.8045 62.7915C62.8045 63.4029 62.3381 63.781 61.5818 63.781H59.6091V61.8335H59.5965ZM59.5965 65.3377H61.5818C62.5398 65.3377 63.1133 65.7285 63.1133 66.3839C63.1133 67.0394 62.5398 67.4617 61.5818 67.4617H59.6091V65.3377H59.5965ZM73.1091 60.1256C70.3801 60.1256 68.3192 62.0163 68.3192 64.6507C68.3822 65.8786 68.9143 67.0354 69.8057 67.8822C70.697 68.729 71.8796 69.2012 73.1091 69.2012C74.3385 69.2012 75.5211 68.729 76.4124 67.8822C77.3038 67.0354 77.8359 65.8786 77.899 64.6507C77.899 62.0604 75.8317 60.1256 73.1091 60.1256ZM73.1091 61.884C73.8225 61.918 74.4954 62.2253 74.9883 62.7422C75.4812 63.2591 75.7561 63.946 75.7561 64.6602C75.7561 65.3744 75.4812 66.0613 74.9883 66.5782C74.4954 67.0951 73.8225 67.4024 73.1091 67.4365C72.3747 67.4315 71.6723 67.1354 71.1559 66.6131C70.6396 66.0909 70.3515 65.3851 70.3549 64.6507C70.3524 64.2878 70.4218 63.9279 70.5592 63.5919C70.6965 63.2559 70.8991 62.9505 71.1552 62.6932C71.4113 62.436 71.7158 62.232 72.0512 62.0931C72.3865 61.9542 72.7461 61.8831 73.1091 61.884ZM89.5775 69.1066V60.1886H87.6867V65.9239L83.3506 60.1886H81.5355V69.1066H83.4641V63.3902L87.7813 69.1066H89.5775ZM100.626 61.8587V60.1886H93.8758V69.1066H100.809V67.4365H95.8926V65.4701H100.197V63.7999H95.8926V61.865L100.626 61.8587ZM107.911 60.1003C105.851 60.1003 104.458 61.1214 104.458 62.7348C104.458 65.886 109.21 64.9155 109.21 66.5982C109.21 67.1465 108.712 67.4491 107.886 67.4491C106.717 67.3663 105.608 66.8962 104.735 66.1129L103.928 67.7579C105.042 68.6633 106.432 69.1614 107.867 69.1696C109.84 69.1696 111.359 68.2306 111.359 66.4848C111.359 63.2705 106.619 64.1907 106.619 62.5457C106.619 62.0604 107.08 61.8209 107.754 61.8209C108.737 61.9026 109.688 62.2158 110.527 62.7348L111.308 61.0709C110.292 60.4358 109.117 60.0994 107.918 60.1003H107.911Z" fill="black"></path><path d="M25.8709 75.2073C26.238 75.2005 26.6027 75.2692 26.9423 75.4089C27.226 75.5288 27.4675 75.7307 27.6356 75.9888C27.8042 76.2585 27.8897 76.572 27.8814 76.89C27.8887 77.204 27.8032 77.5131 27.6356 77.7787C27.4696 78.0402 27.2277 78.2447 26.9423 78.3648C26.6027 78.5046 26.238 78.5733 25.8709 78.5665H24.812V79.9278H23.9297V75.2073H25.8709ZM25.833 77.8228C26.1415 77.8422 26.4477 77.7579 26.7028 77.5833C26.7978 77.4932 26.8734 77.3847 26.9251 77.2645C26.9768 77.1442 27.0034 77.0146 27.0034 76.8837C27.0034 76.7528 26.9768 76.6233 26.9251 76.503C26.8734 76.3827 26.7978 76.2742 26.7028 76.1842C26.4477 76.0096 26.1415 75.9253 25.833 75.9447H24.812V77.8354L25.833 77.8228ZM36.875 79.9278L35.9107 78.5476H34.6502V79.9215H33.7868V75.201H35.728C36.0952 75.1937 36.46 75.2623 36.7994 75.4026C37.0831 75.5224 37.3246 75.7244 37.4927 75.9825C37.6577 76.2564 37.745 76.5702 37.745 76.89C37.745 77.2099 37.6577 77.5236 37.4927 77.7976C37.3087 78.0624 37.0464 78.2629 36.7427 78.3711L37.833 79.9215L36.875 79.9278ZM36.875 76.89C36.8823 76.7586 36.8593 76.6272 36.808 76.5059C36.7566 76.3847 36.6782 76.2768 36.5788 76.1905C36.3237 76.0159 36.0176 75.9316 35.7091 75.951H34.6628V77.8417H35.6901C35.9997 77.8622 36.3069 77.7754 36.5599 77.5959C36.6588 77.5106 36.737 77.4037 36.7883 77.2836C36.8397 77.1634 36.8628 77.0331 36.8561 76.9026L36.875 76.89ZM47.3056 79.1904V79.9278H43.7195V75.2073H47.167V75.9447H44.6208V77.1737H46.9023V77.8921H44.6208V79.1904H47.3056ZM57.648 79.9278V76.7766L56.0976 79.3606H55.6943L54.1439 76.8396V79.9278H53.293V75.2073H54.0178L55.9086 78.3585L57.7489 75.2073H58.4674V79.9278H57.648ZM64.7825 75.2073H65.6585V79.9278H64.7636V75.2073H64.7825ZM73.9967 79.9972C73.7182 80.0128 73.4394 79.9716 73.1772 79.8763C72.9151 79.781 72.675 79.6334 72.4715 79.4425C72.2793 79.2313 72.1317 78.9834 72.0374 78.7138C71.9432 78.4441 71.9044 78.1582 71.9232 77.8732V75.2073H72.7992V77.8354C72.7992 78.7619 73.2026 79.2283 74.003 79.2283C74.8034 79.2283 75.1942 78.7619 75.1942 77.8354V75.2073H76.0576V77.8732C76.0759 78.1577 76.0373 78.4429 75.9443 78.7123C75.8512 78.9818 75.7055 79.23 75.5156 79.4425C75.3131 79.6329 75.0741 79.7802 74.813 79.8756C74.552 79.9709 74.2743 80.0123 73.9967 79.9972ZM86.6458 79.9278V76.7766L85.0954 79.3606H84.6858L83.1353 76.8396V79.9278H82.3034V75.2073H83.0219L84.9126 78.3585L86.7467 75.2073H87.4715V79.9278H86.6458Z" fill="#08CCAD"></path></svg>