<svg xmlns="http://www.w3.org/2000/svg" width="53" height="80" viewBox="0 0 53 80" fill="none"><path d="M26.0056 59.2223C40.368 59.2223 52.0111 47.5792 52.0111 33.2168C52.0111 18.8543 40.368 7.21118 26.0056 7.21118C11.6431 7.21118 0 18.8543 0 33.2168C0 47.5792 11.6431 59.2223 26.0056 59.2223Z" fill="#F26F69"></path><path d="M19.8099 54.9738C18.3881 53.3168 17.7533 51.4031 17.6145 49.2354C17.389 49.4776 16.6 50.3651 15.9818 50.6995C16.3287 47.974 16.4224 44.0224 16.1719 41.7985C13.8447 40.7577 11.829 39.2208 9.73489 37.4209C8.4547 36.3197 7.70046 36.029 6.33492 35.7494C6.64925 35.1027 7.26263 34.3769 7.89683 34.0258C6.48758 33.0364 5.39404 32.3015 4.72584 30.5516C5.07694 30.5759 5.52448 30.6085 5.87558 30.6258C4.95343 29.975 4.55723 29.4955 4.16797 29.0626C4.94094 28.5928 5.4544 28.2618 6.04558 27.5263C7.46455 25.759 8.13552 23.0585 8.93624 20.6528C7.15647 18.5976 6.18158 16.0927 5.76803 13.685C5.21294 10.4495 5.67853 7.35968 6.56737 5.76447L6.80745 5.33358C9.87574 7.07658 11.4265 7.53106 13.7607 8.19024C15.5495 8.69538 17.2613 9.179 19.4567 10.4377C21.6368 9.723 25.4524 9.18456 27.6374 9.17901C30.467 4.83122 32.7971 3.78902 34.8495 0.486198L35.1507 0.000488281L35.5829 0.371709C35.6003 0.386974 41.8278 5.61876 41.3775 17.2973C42.7721 18.685 44.205 19.8417 45.957 20.3108L46.3823 20.4253C46.2229 21.5633 45.8899 22.6701 45.395 23.7073C45.8071 23.5067 46.0243 23.3263 46.3414 23.0134C46.5392 24.6835 46.1596 26.1969 45.4609 27.3459C46.0535 27.2447 46.6596 27.252 47.2497 27.3674L44.8801 31.047C43.9337 32.6277 42.9907 34.2014 41.6411 35.8091C43.9795 39.667 46.4566 42.6909 49.0787 45.2263C44.74 53.5437 36.034 59.2223 26.0075 59.2223C24.593 59.2227 23.1807 59.1083 21.7846 58.8802C20.7584 57.4328 20.1575 56.0992 19.8099 54.9738Z" fill="#532E4B"></path><path d="M37.8721 13.6573C37.793 8.96123 35.9022 5.99493 35.0273 4.8667C33.9552 6.69505 32.9595 7.36116 32.0117 9.85493C34.4229 10.6619 36.2589 12.092 37.8742 13.6573H37.8721Z" fill="#FDDBB2"></path><path d="M10.4182 16.9885C11.1246 15.6161 12.0301 14.3359 13.2915 13.2673C11.9732 11.2946 10.8769 10.4155 8.6995 9.52734C8.53159 11.5888 9.02424 15.2261 10.4182 16.9885Z" fill="#FDDBB2"></path><path d="M18.2537 10.8964C14.3819 8.88069 11.9846 9.28521 7.20726 6.67973C6.55571 8.20624 6.26498 10.7881 6.73334 13.5199C7.09069 15.6015 7.89072 17.7525 9.31176 19.5691C9.50952 19.0237 9.72254 18.4818 9.95845 17.9482C8.01006 15.945 7.39946 11.1607 7.80745 8.76134L7.90737 8.17432C11.4648 9.51904 12.5327 10.267 14.5956 13.4797L14.241 13.7572C8.99606 17.8198 9.92098 26.0228 5.69531 29.2381C6.49951 29.9563 7.18505 30.5565 8.21753 31.1539C7.80121 31.4002 7.26762 31.5737 6.46065 31.6195C7.07681 32.3307 8.26472 32.9698 9.1501 33.8177L9.76417 34.4047C9.22226 34.5296 8.51035 34.7128 7.97468 35.1458C8.935 35.4795 9.57474 35.9951 10.3685 36.6778C13.1759 39.0904 16.4003 41.2407 19.5859 42.9275C18.774 42.7418 17.9747 42.5049 17.1927 42.2184C17.36 44.2323 17.3277 46.2579 17.0963 48.2655C17.5724 47.4495 18.1152 46.6743 18.7193 45.9479C18.3904 48.0989 18.4278 50.6614 19.5144 52.7964C19.5144 51.9222 19.6442 51.0389 19.9203 50.3547C19.9113 51.7556 20.3235 53.3973 20.7447 54.7407C21.0916 55.8166 21.5839 56.84 22.208 57.7826C22.0887 56.8382 22.0325 55.6462 22.2441 54.5776C22.5299 56.1235 22.959 57.6394 23.5257 59.1058C24.3417 59.1826 25.1681 59.2214 26.0049 59.2224C35.6719 59.2224 44.1045 53.949 48.5869 46.12C45.742 43.3917 43.0505 40.0792 40.4374 35.7078C42.8895 32.8782 43.6382 31.0179 45.4798 28.214C45.1904 28.2498 44.9049 28.3123 44.627 28.4006C44.2452 28.7819 43.7939 29.0865 43.2975 29.2978C44.2523 27.6679 44.8067 26.3551 45.2404 25.0118C44.6159 25.3074 44.2197 25.4753 43.4828 25.5939C44.2988 23.998 44.9399 22.8622 45.2612 21.124C40.588 19.5718 38.2371 13.8925 33.1372 11.3751C32.3372 10.9803 31.5871 10.7375 30.7399 10.4925C32.1901 6.25994 33.2066 6.35708 34.4868 3.78698L34.7935 3.17221L35.2736 3.66278C35.2847 3.67388 39.0781 7.47907 38.8325 14.6301L40.4194 16.312C40.4832 7.51376 36.6315 2.81973 35.3541 1.50415C33.1712 4.75493 31.1583 5.47101 28.1663 10.1588C26.0736 10.1276 23.7665 10.4301 21.6113 10.8818C19.6053 11.3023 17.5175 11.7776 15.585 12.4201C16.4206 11.8229 17.3142 11.3115 18.2523 10.8936L18.2537 10.8964Z" fill="#F26F69"></path><path d="M17.7079 41.8804C18.3329 42.2458 18.9592 42.5948 19.5869 42.9274C18.7751 42.7417 17.9758 42.5049 17.1938 42.2183C17.3613 44.2322 17.3292 46.2578 17.098 48.2654C17.5742 47.4501 18.1172 46.6759 18.7217 45.9506C18.3928 48.1016 18.4309 50.6641 19.5175 52.7991C19.5175 51.9249 19.6466 51.0416 19.9235 50.3574C19.9137 51.7583 20.3259 53.4 20.7471 54.7434C21.0939 55.8192 21.5865 56.8425 22.2111 57.7846C22.0911 56.8402 22.0356 55.6489 22.2465 54.5803C22.5328 56.1261 22.9619 57.642 23.5281 59.1085C24.3441 59.1853 25.1707 59.2241 26.008 59.2251C27.4559 59.2255 28.9013 59.1057 30.3294 58.867L30.0394 58.0878C30.0394 58.0878 29.6855 56.7375 30.7478 55.6461C30.3462 55.7797 29.9263 55.85 29.503 55.8542C29.503 55.8542 31.6485 53.8913 32.2417 51.9575C32.2417 51.9575 31.5527 52.235 31.246 52.6853C31.3092 49.8606 35.0561 47.702 36.7796 46.2546C36.1496 46.4627 35.5099 46.5217 34.6092 46.5321C36.0046 45.0625 36.8192 44.2527 38.1029 42.4015C38.1029 42.4015 37.1932 42.7484 36.3508 42.7894C36.3508 42.7894 38.9646 41.5064 39.424 38.1737C39.424 38.1737 38.8404 38.7982 37.4999 38.9016C39.9007 36.0491 41.668 29.4435 40.2754 25.7181C40.7386 26.017 41.1413 26.4004 41.4626 26.8484C41.4626 26.8484 40.8783 23.2958 38.5324 21.6201C38.5324 21.6201 39.0972 21.3619 40.0068 21.448C40.0068 21.448 38.5608 20.0117 35.5064 20.4523C35.5064 20.4523 35.8533 19.7723 36.7415 19.1409C36.7415 19.1409 33.1986 19.2463 31.0517 22.5207C31.0517 22.5207 31.1288 21.056 31.7456 19.7674C31.7456 19.7674 29.0499 21.482 27.7212 24.8042C27.7212 24.8042 27.4242 24.2873 27.2618 23.1861C26.5298 24.7911 26.1516 26.2204 26.0469 28.0356C26.0469 28.0356 23.4254 25.7965 22.8891 24.7911C23.0727 25.4351 23.1535 26.1042 23.1284 26.7734C23.1284 26.7734 21.6352 23.998 19.104 23.4429C19.104 23.4429 19.5828 23.6434 19.9082 24.5919C19.9082 24.5919 17.3235 22.8572 14.4599 22.6859C14.4599 22.6859 14.8818 22.7913 15.1781 23.5185C15.1781 23.5185 13.2352 23.3103 11.7698 24.6981C11.7698 24.6981 12.4116 24.4587 13.5412 24.4302C13.5412 24.4302 11.9037 25.4544 11.0801 28.1549C11.0801 28.1549 11.4582 27.8198 12.3984 27.647C12.3984 27.647 8.97696 31.5223 17.7058 41.8866L17.7079 41.8804Z" fill="#FDDBB2"></path><path d="M14.4238 26.4813C14.4859 26.5676 14.566 26.6392 14.6587 26.6912C14.7513 26.7433 14.8542 26.7744 14.9602 26.7824C14.0401 31.6603 19.1775 32.5672 21.0454 30.2011C21.3129 30.3523 21.5973 30.4713 21.8926 30.5557C21.5971 30.2781 21.4111 29.6079 21.2189 28.9355C20.4203 26.1461 18.1707 24.5537 15.4175 26.1566C15.1399 26.3203 14.8769 26.4508 14.4238 26.4813Z" fill="#532E4B"></path><path d="M20.5375 29.2796C20.1212 30.2094 19.2191 30.854 18.1783 30.854C16.7399 30.854 15.5742 29.6321 15.5742 28.125C15.5751 27.8293 15.6219 27.5356 15.713 27.2542C16.3609 27.1569 17.0205 27.1677 17.6649 27.2861C19.1504 27.5637 20.2218 28.3519 20.5423 29.2796H20.5375Z" fill="white"></path><path d="M17.6404 27.2829L17.8034 27.1982C18.5528 27.337 19.2779 27.4598 19.5478 28.0475C19.6365 28.296 19.6515 28.5648 19.5912 28.8216C19.5308 29.0784 19.3976 29.3123 19.2076 29.4953C19.0175 29.6782 18.7787 29.8024 18.5198 29.853C18.2609 29.9036 17.9929 29.8784 17.748 29.7804C17.5031 29.6824 17.2917 29.5157 17.1391 29.3005C16.9865 29.0853 16.8994 28.8306 16.888 28.5671C16.8766 28.3035 16.9416 28.0423 17.075 27.8147C17.2085 27.5872 17.4048 27.403 17.6404 27.2843V27.2829Z" fill="#532E4B"></path><path d="M17.3055 26.5826C17.6365 26.4529 18.0466 26.695 18.2207 27.1218C18.3949 27.5485 18.2686 28.0002 17.937 28.1293C17.6053 28.2583 17.1966 28.0176 17.0217 27.5901C16.8469 27.1627 16.9746 26.7117 17.3055 26.5826Z" fill="white"></path><path d="M18.6328 29.2214C18.7133 29.1409 18.9471 29.2443 19.1553 29.4525C19.3634 29.6606 19.4668 29.8945 19.3863 29.975C19.3058 30.0554 19.072 29.9521 18.8638 29.7439C18.6557 29.5357 18.5523 29.3019 18.6328 29.2214Z" fill="white"></path><path d="M37.2475 23.998C37.1984 24.0917 37.1296 24.1735 37.0457 24.2379C36.9618 24.3022 36.8649 24.3475 36.7617 24.3706C38.3459 29.0751 33.3833 30.6848 31.2066 28.5963C31.0555 28.8114 30.8454 28.9781 30.6016 29.0764C30.7403 28.6532 30.748 28.1369 30.7979 27.5714C31.0554 24.6836 33.2043 22.6915 36.1407 23.7281C36.5321 23.8669 36.8853 23.998 37.2509 23.998H37.2475Z" fill="#532E4B"></path><path d="M31.5781 27.6139C32.1173 28.4777 33.0984 28.9912 34.133 28.8476C35.5575 28.6491 36.5442 27.278 36.336 25.7855C36.2958 25.4925 36.2101 25.2076 36.082 24.9411C35.4268 24.9334 34.7749 25.0349 34.1531 25.2415C32.7195 25.7175 31.7676 26.6494 31.5781 27.6132V27.6139Z" fill="white"></path><path d="M34.1715 25.2359L33.9966 25.1581C33.1203 25.1283 32.5305 25.5051 32.3875 26.2565C32.3343 26.5148 32.3568 26.783 32.4523 27.0288C32.5477 27.2746 32.712 27.4877 32.9256 27.6425C33.1391 27.7972 33.3927 27.8871 33.6561 27.9013C33.9194 27.9155 34.1812 27.8534 34.4101 27.7225C34.639 27.5915 34.8253 27.3973 34.9466 27.1632C35.0679 26.929 35.1191 26.6648 35.0939 26.4023C35.0688 26.1398 34.9685 25.8901 34.805 25.6832C34.6415 25.4763 34.4218 25.321 34.1722 25.2359H34.1715Z" fill="#532E4B"></path><path d="M34.815 25.4749C34.9387 25.0304 34.7616 24.5928 34.4194 24.4975C34.0772 24.4022 33.6994 24.6853 33.5757 25.1298C33.4519 25.5743 33.629 26.0118 33.9712 26.1071C34.3134 26.2024 34.6912 25.9193 34.815 25.4749Z" fill="white"></path><path d="M33.4558 27.2931C33.3649 27.2237 33.1477 27.3625 32.97 27.5935C32.7924 27.8246 32.7223 28.0744 32.8132 28.1431C32.9041 28.2118 33.1213 28.0737 33.2989 27.8419C33.4766 27.6102 33.5466 27.3618 33.4558 27.2931Z" fill="white"></path><path d="M26.5926 32.4869C27.5779 32.2232 28.4563 32.1608 28.6208 32.7748C28.7852 33.3889 28.0442 34.4498 27.2157 34.6719C26.3872 34.8939 25.2153 34.3465 25.0508 33.7317C24.8864 33.1169 25.6059 32.7512 26.5926 32.4869Z" fill="#532E4B"></path><path d="M27.6031 35.2997C29.4807 35.9588 31.5248 35.3427 32.8508 33.8821C32.1972 36.1087 29.8346 36.8983 27.7648 36.38C26.5914 37.162 24.226 37.7116 22.832 36.4994C24.6527 36.7838 26.1189 36.3467 27.6031 35.301V35.2997Z" fill="#532E4B"></path><path d="M0 66.1742H2.9767L3.8371 71.9819L4.72318 67.7222H7.80535L8.70738 71.9819L9.56709 66.1742H12.5452L10.4816 75.2764H7.39527L6.27051 70.3811L5.14644 75.2764H2.06357L0 66.1742ZM17.5598 75.3853C16.8197 75.3853 16.1602 75.2398 15.5816 74.9489C15.0206 74.68 14.5492 74.2548 14.2243 73.7243C13.8993 73.1939 13.7345 72.5809 13.7497 71.959C13.7347 71.3372 13.9012 70.7245 14.2289 70.1958C14.5566 69.6672 15.0312 69.2455 15.5947 68.9823C16.1725 68.6996 16.8319 68.5585 17.573 68.559C18.3228 68.559 18.9864 68.7024 19.5637 68.9892C20.1152 69.2515 20.581 69.6648 20.907 70.1813C21.2248 70.6929 21.3835 71.2838 21.383 71.9541C21.383 72.6332 21.2211 73.2308 20.8973 73.7471C20.572 74.2676 20.106 74.6854 19.5533 74.9523C18.976 75.2391 18.3124 75.3823 17.5626 75.3818L17.5598 75.3853ZM17.5861 73.4008C17.7558 73.4049 17.9241 73.3707 18.0787 73.3007C18.2333 73.2308 18.3702 73.127 18.4792 72.997C18.7132 72.7287 18.83 72.3818 18.8296 71.9562C18.8291 71.5306 18.7123 71.1837 18.4792 70.9154C18.3675 70.7885 18.2302 70.6868 18.0762 70.6172C17.9222 70.5476 17.7551 70.5116 17.5861 70.5116C17.4171 70.5116 17.2501 70.5476 17.0961 70.6172C16.9421 70.6868 16.8047 70.7885 16.6931 70.9154C16.4591 71.1846 16.3434 71.5315 16.3462 71.9562C16.349 72.3808 16.4646 72.7278 16.6931 72.997C16.8025 73.1264 16.9395 73.2295 17.0941 73.2988C17.2486 73.3681 17.4168 73.4018 17.5861 73.3974V73.4008ZM25.9126 75.3853C25.1632 75.3853 24.5834 75.1494 24.1731 74.6776C23.7627 74.2057 23.5578 73.5597 23.5583 72.7396V66.5641L26.3497 66.1541V72.5404C26.3497 72.7875 26.4092 72.966 26.5281 73.0761C26.6469 73.1862 26.8565 73.2412 27.1567 73.2412C27.3822 73.2402 27.6043 73.1857 27.8048 73.0824L27.8978 74.935C27.2814 75.2405 26.6011 75.3946 25.9133 75.3846L25.9126 75.3853ZM28.9989 68.6548H32.0686L33.0872 72.6237L34.0794 68.6548H36.5004L34.3965 75.2833H31.1818L28.9989 68.6548ZM41.7432 75.3853C41.011 75.3853 40.3606 75.2375 39.7921 74.9419C39.245 74.6666 38.7846 74.2454 38.4619 73.7249C38.2183 73.3308 38.0593 72.8904 37.9949 72.4317C37.9305 71.9729 37.9621 71.5058 38.0877 71.0598C38.2134 70.6139 38.4303 70.199 38.7248 69.8414C39.0193 69.4837 39.3848 69.1912 39.7983 68.9823C40.3733 68.6955 41.0085 68.5504 41.651 68.559C42.3032 68.559 42.8611 68.7024 43.3246 68.9892C43.7793 69.2655 44.1416 69.6708 44.3654 70.1535C44.6014 70.67 44.7199 71.2323 44.7123 71.8001C44.7165 71.9163 44.7077 72.0327 44.6859 72.147L40.717 72.6633C40.8232 72.972 40.9946 73.1948 41.2332 73.3308C41.4719 73.4668 41.7842 73.5389 42.1727 73.5389C42.7741 73.5389 43.4217 73.3846 44.1156 73.0761L44.4466 74.8489C43.5951 75.217 42.6757 75.4019 41.7481 75.3916L41.7432 75.3853ZM42.6557 70.9931C42.5169 70.438 42.1818 70.1605 41.6503 70.1605C41.5051 70.1549 41.3607 70.1844 41.2293 70.2467C41.098 70.3089 40.9837 70.4019 40.896 70.5178C40.711 70.7556 40.6141 71.0641 40.6053 71.4434L42.6557 70.9938V70.9931ZM49.1684 75.3853C48.2432 75.3853 47.4318 75.2486 46.7343 74.9752L47.0389 73.4008C47.6312 73.6236 48.258 73.741 48.8908 73.7478C49.3321 73.7478 49.5528 73.6243 49.5528 73.3773C49.5511 73.3139 49.5323 73.2521 49.4985 73.1985C49.4647 73.1449 49.417 73.1014 49.3605 73.0726C49.2329 72.9935 48.9926 72.9242 48.6396 72.8645C47.9074 72.7257 47.3805 72.4875 47.059 72.1498C46.7375 71.8121 46.5756 71.3359 46.5733 70.7211C46.608 70.0245 46.8855 69.4909 47.4059 69.1203C47.9263 68.7498 48.6362 68.5648 49.5354 68.5653C49.9319 68.5606 50.3281 68.5891 50.7198 68.6506C51.0337 68.7029 51.3387 68.7989 51.626 68.9358L51.3485 70.5095C51.0762 70.4085 50.7952 70.3333 50.5089 70.2847C50.2571 70.2371 50.0018 70.2107 49.7457 70.2056C49.4459 70.2056 49.2391 70.2361 49.1212 70.2979C49.0713 70.3185 49.0285 70.3533 48.998 70.3979C48.9676 70.4425 48.9508 70.495 48.9498 70.549C48.9498 70.7433 49.1702 70.88 49.611 70.9591C50.4136 71.1007 51.0134 71.3477 51.4102 71.7002C51.8071 72.0526 52.0056 72.5335 52.0056 73.1427C52.0056 73.8394 51.7609 74.3882 51.2715 74.7893C50.7821 75.1903 50.0808 75.389 49.1677 75.3853H49.1684Z" fill="#532E4B"></path><path d="M9.61299 79.9948C9.47028 79.9971 9.32859 79.9702 9.19667 79.9157C9.08057 79.8682 8.97975 79.7897 8.90525 79.6888C8.8334 79.5874 8.79485 79.4661 8.79492 79.3418H9.26814C9.26921 79.3822 9.27829 79.4219 9.29485 79.4587C9.31141 79.4955 9.33511 79.5287 9.36459 79.5562C9.43094 79.612 9.51607 79.6403 9.60259 79.6353C9.6898 79.6403 9.77593 79.614 9.84544 79.5611C9.87411 79.5377 9.89698 79.508 9.91227 79.4743C9.92755 79.4406 9.93484 79.4038 9.93356 79.3668C9.9347 79.3375 9.93002 79.3082 9.91978 79.2807C9.90953 79.2532 9.89394 79.228 9.87389 79.2065C9.83166 79.1629 9.78055 79.1288 9.72402 79.1066C9.64286 79.0756 9.56018 79.0487 9.4763 79.0261C9.35796 78.9924 9.24205 78.9507 9.12937 78.9012C9.03847 78.8591 8.95935 78.7952 8.899 78.7153C8.83082 78.618 8.79711 78.5008 8.80325 78.3822C8.80051 78.2613 8.83464 78.1425 8.90108 78.0415C8.96934 77.9427 9.06444 77.8654 9.17516 77.8188C9.30323 77.7654 9.44097 77.7392 9.57969 77.7418C9.7782 77.7323 9.974 77.7908 10.1348 77.9076C10.2052 77.9629 10.2627 78.0329 10.3033 78.1127C10.3439 78.1925 10.3667 78.2802 10.37 78.3697H9.8843C9.88289 78.3333 9.87359 78.2977 9.85706 78.2652C9.84053 78.2327 9.81715 78.2042 9.78854 78.1817C9.7202 78.1296 9.63568 78.1033 9.54985 78.1074C9.47425 78.1038 9.40002 78.1286 9.34169 78.1768C9.31504 78.2009 9.29419 78.2307 9.28073 78.264C9.26727 78.2973 9.26155 78.3332 9.26398 78.369C9.26321 78.3962 9.26798 78.4233 9.278 78.4486C9.28802 78.4739 9.30308 78.4968 9.32226 78.5161C9.36401 78.5567 9.41327 78.5888 9.46728 78.6105C9.52557 78.6348 9.60605 78.6625 9.71222 78.6944C9.83186 78.7279 9.94896 78.7699 10.0626 78.82C10.1544 78.8636 10.2343 78.9286 10.2958 79.0095C10.3648 79.1059 10.3992 79.2227 10.3936 79.3411C10.3944 79.457 10.3626 79.5707 10.302 79.6693C10.2374 79.7734 10.1445 79.857 10.0342 79.9101C9.90447 79.9726 9.7618 80.0035 9.61785 80.0003L9.61299 79.9948ZM12.7188 79.6222H13.4473V79.9691H12.2768V77.7667H12.7188V79.6222ZM16.2499 79.9948C16.051 79.9966 15.8551 79.9464 15.6816 79.849C15.511 79.7545 15.3692 79.6154 15.2715 79.4466C15.1723 79.2692 15.1203 79.0694 15.1203 78.8662C15.1203 78.663 15.1723 78.4631 15.2715 78.2858C15.3698 78.1174 15.5114 77.9785 15.6816 77.8833C15.8561 77.7881 16.0518 77.7383 16.2506 77.7383C16.4494 77.7383 16.645 77.7881 16.8195 77.8833C16.9888 77.9784 17.1293 78.1175 17.2261 78.2858C17.3244 78.4634 17.376 78.6631 17.376 78.8662C17.376 79.0692 17.3244 79.2689 17.2261 79.4466C17.1294 79.6154 16.9883 79.7546 16.8181 79.849C16.6447 79.9464 16.4488 79.9966 16.2499 79.9948ZM16.2499 79.5999C16.3726 79.6025 16.4938 79.5715 16.6003 79.5104C16.702 79.4489 16.7841 79.3596 16.8369 79.253C16.8931 79.1317 16.9222 78.9996 16.9222 78.8658C16.9222 78.7321 16.8931 78.6 16.8369 78.4787C16.7844 78.3728 16.7021 78.2846 16.6003 78.2247C16.4936 78.1642 16.3725 78.1335 16.2499 78.1359C16.1268 78.1338 16.0054 78.1644 15.8981 78.2247C15.7953 78.2839 15.7125 78.3723 15.6601 78.4787C15.601 78.5987 15.5717 78.7313 15.5747 78.8651C15.5719 78.9994 15.6011 79.1324 15.6601 79.253C15.7126 79.3602 15.7953 79.4497 15.8981 79.5104C16.0051 79.5714 16.1267 79.6024 16.2499 79.5999ZM20.7406 78.4329C20.6935 78.3434 20.6211 78.2698 20.5324 78.2212C20.4371 78.1721 20.3308 78.1483 20.2237 78.1518C20.1021 78.1496 19.9822 78.1803 19.8767 78.2407C19.7751 78.2999 19.6929 78.3874 19.6401 78.4925C19.5836 78.6118 19.5542 78.7422 19.5542 78.8742C19.5542 79.0062 19.5836 79.1365 19.6401 79.2558C19.6947 79.3614 19.7785 79.4491 19.8816 79.5084C19.9917 79.569 20.116 79.5994 20.2417 79.5965C20.3921 79.6035 20.5399 79.5559 20.658 79.4626C20.7685 79.3657 20.8421 79.2335 20.8662 79.0886H20.1085V78.7513H21.3012V79.1323C21.2714 79.2867 21.2066 79.4322 21.1118 79.5576C21.0131 79.6899 20.8851 79.7975 20.7378 79.8719C20.5791 79.9525 20.4031 79.9932 20.225 79.9906C20.0239 79.9934 19.8254 79.9439 19.6491 79.847C19.4802 79.7536 19.3404 79.6153 19.2453 79.4473C19.1487 79.2687 19.0982 79.0689 19.0982 78.8658C19.0982 78.6628 19.1487 78.463 19.2453 78.2844C19.3401 78.116 19.48 77.9774 19.6491 77.884C19.8382 77.7837 20.0501 77.7344 20.264 77.7409C20.4779 77.7475 20.6864 77.8097 20.869 77.9215C21.0511 78.0417 21.185 78.2223 21.2471 78.4315L20.7406 78.4329ZM24.4833 79.5528H23.6063L23.4606 79.9691H22.9971L23.7895 77.7633H24.3036L25.0953 79.9691H24.6283L24.4833 79.5528ZM24.3633 79.1989L24.0448 78.2774L23.7256 79.1989H24.3633ZM28.7784 79.9726H28.3364L27.3358 78.4606V79.9726H26.8945V77.7667H27.3358L28.3364 79.2815V77.7667H28.7819L28.7784 79.9726ZM33.2941 77.7695V79.9726H32.8521V79.0351H31.9084V79.9726H31.4671V77.7695H31.9084V78.6757H32.8521V77.7695H33.2941ZM35.6734 78.1262V78.6813H36.4144V79.0282H35.6727V79.6124H36.5053V79.9719H35.2348V77.7661H36.5123V78.1262H35.6796H35.6734ZM39.5486 79.9726L39.0629 79.1142H38.8548V79.9726H38.4128V77.7695H39.2399C39.3899 77.7654 39.5389 77.7963 39.6749 77.8597C39.787 77.9122 39.8809 77.9967 39.9448 78.1026C40.0096 78.2159 40.0406 78.3453 40.0342 78.4756C40.0278 78.6059 39.9843 78.7317 39.9088 78.8381C39.8161 78.9603 39.6831 79.0456 39.5334 79.0789L40.06 79.9719H39.5486V79.9726ZM38.8548 78.7826H39.2239C39.3214 78.7902 39.4179 78.759 39.4924 78.6958C39.5229 78.6638 39.5465 78.6258 39.5616 78.5843C39.5768 78.5427 39.5832 78.4985 39.5806 78.4544C39.5831 78.4112 39.5766 78.3679 39.5614 78.3274C39.5463 78.2869 39.5228 78.25 39.4924 78.2191C39.4169 78.158 39.3208 78.1282 39.2239 78.1359H38.8548V78.7853V78.7826ZM42.3796 78.1262V78.6813H43.1214V79.0282H42.3817V79.6124H43.2144V79.9719H41.9376V77.7661H43.2144V78.1262H42.3817H42.3796Z" fill="#532E4B"></path></svg>