<svg xmlns="http://www.w3.org/2000/svg" width="96" height="80" viewBox="0 0 96 80" fill="none"><path d="M7.854 60.2966C9.73 60.2966 11.179 60.7446 12.201 61.6406C13.223 62.5226 13.734 63.7756 13.734 65.3996C13.734 67.1076 13.216 68.4376 12.18 69.3896C11.158 70.3276 9.716 70.7966 7.854 70.7966H4.935V74.9966H1.617V60.2966H7.854ZM7.686 68.0246C8.624 68.0246 9.338 67.8146 9.828 67.3946C10.332 66.9606 10.584 66.3306 10.584 65.5046C10.584 64.6926 10.332 64.0836 9.828 63.6776C9.338 63.2576 8.624 63.0476 7.686 63.0476H4.935V68.0246H7.686ZM20.6374 63.5936C22.4574 63.5936 23.8364 64.1186 24.7744 65.1686C25.7264 66.2186 26.2024 67.6816 26.2024 69.5576C26.2024 69.8936 26.1954 70.1526 26.1814 70.3346H18.0754C18.2574 71.0486 18.6074 71.6086 19.1254 72.0146C19.6434 72.4066 20.2664 72.6026 20.9944 72.6026C21.5264 72.6026 22.0374 72.5046 22.5274 72.3086C23.0174 72.0986 23.4584 71.7976 23.8504 71.4056L25.5514 73.1276C24.9774 73.7716 24.2774 74.2686 23.4514 74.6186C22.6394 74.9546 21.7294 75.1226 20.7214 75.1226C19.5314 75.1226 18.4884 74.8846 17.5924 74.4086C16.7104 73.9326 16.0244 73.2606 15.5344 72.3926C15.0584 71.5246 14.8204 70.5236 14.8204 69.3896C14.8204 68.2416 15.0654 67.2336 15.5554 66.3656C16.0454 65.4836 16.7314 64.8046 17.6134 64.3286C18.4954 63.8386 19.5034 63.5936 20.6374 63.5936ZM23.1574 68.4236C23.1294 67.6816 22.8914 67.0866 22.4434 66.6386C21.9954 66.1906 21.4004 65.9666 20.6584 65.9666C19.9584 65.9666 19.3704 66.1906 18.8944 66.6386C18.4324 67.0726 18.1384 67.6676 18.0124 68.4236H23.1574ZM35.3097 74.3666C34.8897 74.6186 34.4207 74.8146 33.9027 74.9546C33.3987 75.0806 32.8877 75.1436 32.3697 75.1436C31.3197 75.1436 30.4657 74.8426 29.8077 74.2406C29.1497 73.6386 28.8207 72.7776 28.8207 71.6576V66.4286H27.2457V64.2026H28.8207V61.0946H32.0337V64.2026H35.0997V66.4496H32.0337V71.1116C32.0337 71.9796 32.3767 72.4136 33.0627 72.4136C33.5387 72.4136 34.0637 72.2736 34.6377 71.9936L35.3097 74.3666ZM51.924 64.3916C51.168 63.9296 50.363 63.5656 49.509 63.2996C48.669 63.0196 47.948 62.8796 47.346 62.8796C46.772 62.8796 46.317 62.9846 45.981 63.1946C45.645 63.4046 45.477 63.7126 45.477 64.1186C45.477 64.6366 45.715 65.0356 46.191 65.3156C46.681 65.5816 47.43 65.8616 48.438 66.1556C49.446 66.4496 50.272 66.7436 50.916 67.0376C51.574 67.3316 52.134 67.7726 52.596 68.3606C53.058 68.9486 53.289 69.7256 53.289 70.6916C53.289 71.6296 53.037 72.4416 52.533 73.1276C52.043 73.7996 51.364 74.3106 50.496 74.6606C49.628 75.0106 48.641 75.1856 47.535 75.1856C46.345 75.1856 45.176 74.9756 44.028 74.5556C42.88 74.1356 41.886 73.5616 41.046 72.8336L42.369 70.1246C43.111 70.7966 43.965 71.3356 44.931 71.7416C45.897 72.1476 46.779 72.3506 47.577 72.3506C48.263 72.3506 48.795 72.2246 49.173 71.9726C49.565 71.7206 49.761 71.3566 49.761 70.8806C49.761 70.5026 49.628 70.1946 49.362 69.9566C49.11 69.7046 48.781 69.5016 48.375 69.3476C47.983 69.1936 47.437 69.0186 46.737 68.8226C45.729 68.5426 44.903 68.2626 44.259 67.9826C43.629 67.7026 43.083 67.2756 42.621 66.7016C42.159 66.1276 41.928 65.3646 41.928 64.4126C41.928 63.5306 42.166 62.7606 42.642 62.1026C43.118 61.4306 43.783 60.9196 44.637 60.5696C45.491 60.2056 46.485 60.0236 47.619 60.0236C48.627 60.0236 49.621 60.1706 50.601 60.4646C51.581 60.7586 52.449 61.1506 53.205 61.6406L51.924 64.3916ZM62.7961 63.5726C64.0701 63.5726 65.0781 63.9646 65.8201 64.7486C66.5761 65.5326 66.9541 66.5826 66.9541 67.8986V74.9966H63.7201V68.8436C63.7201 68.1296 63.5171 67.5696 63.1111 67.1636C62.7191 66.7436 62.1801 66.5336 61.4941 66.5336C60.6961 66.5476 60.0591 66.8276 59.5831 67.3736C59.1211 67.9056 58.8901 68.5916 58.8901 69.4316V74.9966H55.6561V59.4146H58.8901V65.6936C59.6741 64.3076 60.9761 63.6006 62.7961 63.5726ZM74.825 63.5936C76.015 63.5936 77.065 63.8316 77.975 64.3076C78.899 64.7836 79.613 65.4556 80.117 66.3236C80.621 67.1916 80.873 68.1996 80.873 69.3476C80.873 70.4816 80.621 71.4896 80.117 72.3716C79.613 73.2396 78.899 73.9186 77.975 74.4086C77.065 74.8846 76.015 75.1226 74.825 75.1226C73.621 75.1226 72.557 74.8846 71.633 74.4086C70.723 73.9186 70.016 73.2396 69.512 72.3716C69.008 71.4896 68.756 70.4816 68.756 69.3476C68.756 68.1996 69.008 67.1916 69.512 66.3236C70.016 65.4556 70.723 64.7836 71.633 64.3076C72.557 63.8316 73.621 63.5936 74.825 63.5936ZM74.825 66.2816C73.985 66.2816 73.299 66.5686 72.767 67.1426C72.249 67.7166 71.99 68.4656 71.99 69.3896C71.99 70.3136 72.249 71.0626 72.767 71.6366C73.299 72.2106 73.985 72.4976 74.825 72.4976C75.651 72.4976 76.323 72.2106 76.841 71.6366C77.373 71.0626 77.639 70.3136 77.639 69.3896C77.639 68.4656 77.373 67.7166 76.841 67.1426C76.323 66.5686 75.651 66.2816 74.825 66.2816ZM89.92 63.5936C90.97 63.5936 91.894 63.8386 92.692 64.3286C93.504 64.8046 94.127 65.4836 94.561 66.3656C95.009 67.2476 95.233 68.2626 95.233 69.4106C95.233 70.5446 95.016 71.5456 94.582 72.4136C94.148 73.2676 93.532 73.9326 92.734 74.4086C91.95 74.8846 91.033 75.1226 89.983 75.1226C89.199 75.1226 88.499 74.9756 87.883 74.6816C87.281 74.3736 86.77 73.9326 86.35 73.3586V79.0706H83.116V63.6986H86.35V65.3576C86.756 64.7836 87.26 64.3496 87.862 64.0556C88.478 63.7476 89.164 63.5936 89.92 63.5936ZM89.164 72.4346C89.99 72.4346 90.662 72.1476 91.18 71.5736C91.698 70.9856 91.957 70.2296 91.957 69.3056C91.957 68.3956 91.698 67.6536 91.18 67.0796C90.662 66.4916 89.99 66.1976 89.164 66.1976C88.338 66.1976 87.659 66.4916 87.127 67.0796C86.609 67.6536 86.35 68.3956 86.35 69.3056C86.35 70.2436 86.609 70.9996 87.127 71.5736C87.659 72.1476 88.338 72.4346 89.164 72.4346Z" fill="#CE4239"></path><path d="M45.6124 15.1121C45.0806 15.1121 44.6484 15.887 44.6484 16.8457C44.6484 17.8043 45.0806 18.5626 45.6124 18.5626C46.1443 18.5626 46.5864 17.801 46.5864 16.8457C46.5864 15.8903 46.1542 15.1121 45.6124 15.1121ZM51.732 15.1121C51.2002 15.1121 50.7581 15.887 50.7581 16.8457C50.7581 17.8043 51.2002 18.5626 51.732 18.5626C52.2639 18.5626 52.696 17.801 52.696 16.8457C52.696 15.8903 52.2639 15.1121 51.732 15.1121ZM54.2151 18.5626V19.2139C54.2151 19.8119 54.4515 20.3854 54.8723 20.8082C55.293 21.2311 55.8637 21.4686 56.4588 21.4686C57.0539 21.4686 57.6246 21.2311 58.0454 20.8082C58.4662 20.3854 58.7026 19.8119 58.7026 19.2139V18.5626H54.2151ZM50.3725 31.6832C50.1564 31.6832 49.9736 32.0172 49.9736 32.4014C49.9736 32.7855 50.1564 33.1061 50.3725 33.1061C50.5885 33.1061 50.768 32.7721 50.768 32.4014C50.768 32.0306 50.5985 31.6965 50.3725 31.6965V31.6832ZM47.6301 50.008H49.3752H47.6068H47.6301ZM47.3908 31.6832C47.1647 31.6832 46.9952 32.0172 46.9952 32.4014C46.9952 32.7855 47.1647 33.1061 47.3908 33.1061C47.6168 33.1061 47.7863 32.7721 47.7863 32.4014C47.7863 32.0306 47.6068 31.6965 47.3908 31.6965V31.6832ZM51.732 15.1121C51.2002 15.1121 50.7581 15.887 50.7581 16.8457C50.7581 17.8043 51.2002 18.5626 51.732 18.5626C52.2639 18.5626 52.696 17.801 52.696 16.8457C52.696 15.8903 52.2639 15.1121 51.732 15.1121ZM45.6124 15.1121C45.0806 15.1121 44.6484 15.887 44.6484 16.8457C44.6484 17.8043 45.0806 18.5626 45.6124 18.5626C46.1443 18.5626 46.5864 17.801 46.5864 16.8457C46.5864 15.8903 46.1542 15.1121 45.6124 15.1121Z" fill="#CE4239"></path><path d="M61.9823 0.000661166C59.0548 -0.0137693 56.1934 0.875486 53.7851 2.54819C51.3768 4.22089 49.5378 6.59637 48.5166 9.35344C47.4955 6.5969 45.657 4.22181 43.2493 2.54915C40.8417 0.87649 37.9811 -0.0130837 35.0541 0.000661166C27.4088 0.000661166 21 5.99313 21 14.3305C21.0092 16.7223 21.5785 19.0784 22.662 21.2081C23.8321 23.3258 25.8697 26.0381 28.7849 29.2482L39.2092 40.7387L40.2629 26.0148C38.9978 24.2138 38.4064 22.0216 38.5931 19.8252C38.7799 17.6287 39.7327 15.5691 41.2834 14.0098L41.9482 6.22026L45.9138 11.4946C46.5505 11.3557 47.2002 11.2863 47.8517 11.2875C48.7104 11.288 49.5649 11.4072 50.3913 11.6415L53.9514 6.22026L54.7891 14.444L54.9054 15.5463L55.9226 16.0373L60.1408 18.0649C60.1408 18.0649 61.138 24.3179 54.4899 27.1404L55.7231 27.6983L56.8566 41.7642L68.2149 29.2482C71.1268 26.0381 73.1678 23.3258 74.2547 21.2081C75.4097 19.1023 76.0104 16.7349 75.9999 14.3305C76.0065 5.99313 69.6044 0.000661166 61.9823 0.000661166Z" fill="#CE4239"></path><path d="M46.9941 32.4147C46.9941 32.0172 47.1637 31.6965 47.3897 31.6965C47.6157 31.6965 47.7853 32.0306 47.7853 32.4147C47.7853 32.7988 47.6058 33.1195 47.3897 33.1195C47.1736 33.1195 46.9941 32.8155 46.9941 32.4147Z" fill="white"></path><path d="M49.9727 32.4147C49.9727 32.0172 50.1555 31.6965 50.3715 31.6965C50.5876 31.6965 50.7671 32.0306 50.7671 32.4147C50.7671 32.7988 50.5976 33.1195 50.3715 33.1195C50.1455 33.1195 49.9727 32.8155 49.9727 32.4147Z" fill="white"></path><path d="M51.0506 35.5246L53.2046 33.5204L51.875 31.3793V28.039L49.6845 29.9563H48.1089L46.1942 27.8486L45.8618 31.1889L44.582 33.4102L46.2008 35.0169L45.2036 47.3058L47.6501 50.0047H49.4185L52.4999 46.5976L51.7753 35.6415L51.0506 35.5246ZM47.3942 33.1196C47.1681 33.1196 46.9986 32.7856 46.9986 32.4148C46.9986 32.044 47.1681 31.6966 47.3942 31.6966C47.6202 31.6966 47.7897 32.0307 47.7897 32.4148C47.7897 32.7989 47.6069 33.1196 47.3909 33.1196H47.3942ZM50.3858 33.1196C50.1698 33.1196 49.987 32.7856 49.987 32.4148C49.987 32.044 50.1698 31.6966 50.3858 31.6966C50.6019 31.6966 50.7814 32.0307 50.7814 32.4148C50.7814 32.7989 50.5986 33.1196 50.3725 33.1196H50.3858Z" fill="#CE4239"></path></svg>